<svg width="1359" height="788" viewBox="0 0 1359 788" fill="none" xmlns="http://www.w3.org/2000/svg">
<mask id="mask0_114_3" style="mask-type:luminance" maskUnits="userSpaceOnUse" x="0" y="0" width="1359" height="788">
<path d="M1359 0H0V788H1359V0Z" fill="white"/>
</mask>
<g mask="url(#mask0_114_3)">
<path d="M1359 0H0V788H1359V0Z" fill="#CFE1F4"/>
</g>
<mask id="mask1_114_3" style="mask-type:luminance" maskUnits="userSpaceOnUse" x="0" y="0" width="1359" height="788">
<path d="M1359 0H0V788H1359V0Z" fill="white"/>
</mask>
<g mask="url(#mask1_114_3)">
<path d="M1585.16 471.224C1554.02 422.467 1518.34 375.187 1471.12 337.461C1423.89 299.736 1364.1 271.959 1300.22 267.92C1236.35 263.882 1168.74 286.143 1131.37 331.453C1110.76 356.373 1100.34 386.317 1087.2 414.784C1074.06 443.25 1056.85 471.914 1027.63 489.053C998.412 506.192 954.471 507.669 930.802 484.916C904.981 459.995 912.682 418.625 888.673 392.326C861.72 362.776 809.964 366.223 767.156 372.429C724.347 378.634 672.705 382.377 645.412 353.123C623.555 329.68 629.331 292.545 653 270.481C676.669 248.417 713.815 240.242 748.356 243.098C782.897 245.955 815.4 258.366 846.091 272.353C885.276 290.181 931.029 311.359 970.893 294.909C992.976 285.847 1007.47 266.738 1016.31 246.94C1025.14 227.141 1029.44 206.062 1037.37 185.968C1062.74 121.845 1128.2 71.0185 1204.3 56.2435C1262.17 45.0145 1325.14 53.19 1378.93 31.6185C1422.31 14.2825 1453.22 -19.897 1482.33 -52.796L1585.16 471.224Z" fill="#14346A"/>
</g>
<mask id="mask2_114_3" style="mask-type:luminance" maskUnits="userSpaceOnUse" x="0" y="0" width="1359" height="788">
<path d="M1359 0H0V788H1359V0Z" fill="white"/>
</mask>
<g mask="url(#mask2_114_3)">
<path d="M-48.0186 743.872C-38.2791 696.198 17.3267 667.732 70.7807 662.216C124.235 656.7 178.821 667.534 232.955 667.534C377.915 667.436 514.607 580.658 562.059 458.518C577.235 419.413 583.916 377.649 598.752 338.348C613.588 299.145 638.729 260.828 679.613 242.212C738.389 215.321 812.002 236.006 871.345 266.048C930.688 296.091 986.18 335.885 1051.87 349.675C1138.16 367.799 1227.97 336.574 1293.99 286.438C1360.02 236.301 1406.68 168.829 1452.2 102.44" stroke="#F5B195" stroke-miterlimit="10"/>
<path d="M-51.3018 739.243C-40.543 691.766 14.8363 663.397 68.4035 657.684C91.6198 655.222 114.949 655.813 138.392 657.488C169.196 659.655 200 663.496 230.578 664.087C292.978 665.269 353.907 651.381 407.361 624.392C448.697 603.51 485.39 576.028 514.722 543.03C535.673 519.587 552.434 493.189 564.099 464.526C569.308 451.721 573.612 438.522 577.576 425.225C585.616 398.236 592.185 370.853 602.604 344.75C614.382 315.102 632.275 286.438 658.776 266.935C667.043 260.828 675.99 255.607 685.843 251.47C727.066 234.233 774.744 240.143 820.384 254.82C840.089 261.124 859.455 269.102 877.462 277.573C897.62 287.127 917.326 297.372 936.918 307.222C975.423 326.528 1013.59 344.356 1054.81 350.758C1081.65 354.994 1108.04 353.812 1134.31 348.788C1187.43 338.446 1239.75 310.866 1283.35 275.603C1295.24 265.95 1306.68 255.706 1317.78 245.167C1366.81 198.084 1407.81 143.712 1448.24 92.2945" stroke="#F5B195" stroke-miterlimit="10"/>
<path d="M-54.4736 734.613C-42.6956 687.432 12.4571 659.063 66.1376 653.153C89.3539 650.592 112.797 651.184 136.353 652.957C167.157 655.321 197.847 659.556 228.538 660.738C290.826 663.201 351.528 651.479 405.548 625.672C447.337 605.676 484.596 579.475 515.061 547.758C536.805 525.005 554.132 499.001 566.363 470.535C571.799 457.828 576.329 444.629 580.406 431.332C588.787 404.441 595.695 376.96 606.567 351.054C618.911 321.603 637.371 293.628 664.777 275.11C673.271 269.397 682.331 264.473 692.184 260.73C733.633 245.068 780.632 252.456 826.159 267.132C845.977 273.535 865.456 281.119 883.576 289.098C903.961 297.963 923.893 307.418 943.372 315.988C981.764 333.028 1018.8 348.099 1057.64 351.842C1082.78 354.305 1106.91 351.448 1131.03 344.947C1179.95 331.65 1229.67 301.508 1272.48 264.768C1284.25 254.622 1295.58 244.083 1306.68 233.248C1356.17 184.786 1400.22 130.808 1443.82 82.2475" stroke="#FDF3D6" stroke-miterlimit="10"/>
<path d="M-57.7578 729.885C-44.9606 682.999 9.85239 654.533 63.6462 648.524C86.8624 645.963 110.418 646.456 133.974 648.327C164.778 650.79 195.469 655.419 226.047 657.192C288.221 660.837 348.81 651.479 403.396 626.756C445.525 607.647 483.577 582.825 515.061 552.29C537.711 530.324 555.604 504.714 568.288 476.445C573.951 463.837 578.594 450.736 583.011 437.439C591.731 410.548 599.092 383.067 610.304 357.358C623.101 328.104 642.241 300.819 670.44 283.188C679.16 277.77 688.22 273.239 698.186 269.89C739.749 255.805 786.181 264.67 831.708 279.346C851.527 285.749 871.119 293.136 889.579 300.524C910.19 308.798 930.235 317.17 949.714 324.755C987.993 339.53 1024.12 351.842 1060.47 352.827C1084.03 353.517 1105.66 348.986 1127.63 341.106C1172.36 325.05 1219.48 292.25 1261.49 253.835C1273.04 243.295 1284.37 232.263 1295.58 221.133C1345.52 171.193 1392.75 117.708 1439.41 72.0035" stroke="#F5B195" stroke-miterlimit="10"/>
<path d="M-61.042 725.256C-47.2255 678.567 7.36101 650.199 61.268 643.993C84.5975 641.334 108.154 641.826 131.71 643.894C162.514 646.554 193.204 651.479 223.669 653.942C285.73 658.768 346.205 651.676 401.244 628.134C443.826 609.912 482.558 586.469 515.061 557.116C538.617 535.938 557.077 510.722 570.214 482.65C576.103 470.042 580.972 457.04 585.502 443.742C594.562 416.95 602.263 389.371 614.041 363.859C627.405 334.9 646.997 308.108 676.216 291.56C685.049 286.536 694.335 282.301 704.188 279.346C745.977 266.836 791.731 277.179 837.144 291.954C856.963 298.455 876.781 305.448 895.354 312.343C916.079 320.026 936.464 327.513 955.83 333.817C993.995 346.228 1029.22 355.88 1063.08 354.206C1085.05 353.122 1104.19 346.917 1124.12 337.56C1164.66 318.549 1209.06 283.286 1250.51 243.295C1261.83 232.263 1273.16 220.936 1284.48 209.51C1334.88 158.191 1385.16 105.198 1434.99 62.252" stroke="#F5B195" stroke-miterlimit="10"/>
<path d="M-64.2129 720.626C-49.4904 674.233 4.98285 645.865 59.0031 639.462C82.3326 636.704 106.002 637.197 129.558 639.364C160.362 642.122 191.053 647.539 221.404 650.494C283.351 656.601 343.714 651.676 399.319 629.317C442.354 611.981 481.652 589.818 515.287 561.745C539.749 541.257 558.662 516.534 572.365 488.56C578.481 476.051 583.577 463.049 588.22 449.751C597.733 422.959 605.774 395.379 617.892 370.065C631.708 341.303 651.98 315.2 682.105 299.538C691.165 294.81 700.451 290.969 710.417 288.408C752.32 277.475 797.506 289.196 842.92 304.07C862.852 310.571 882.784 317.367 901.583 323.671C922.534 330.763 943.033 337.264 962.398 342.485C1000.45 352.63 1034.77 359.525 1066.14 355.093C1086.63 352.236 1103.17 344.356 1121.06 333.521C1157.42 311.654 1199.2 273.732 1239.86 232.165C1251.07 220.64 1262.28 208.919 1273.61 197.197C1324.46 144.401 1377.8 91.9005 1430.91 51.811" stroke="#F5B195" stroke-miterlimit="10"/>
<path d="M-67.4971 715.898C-51.7553 669.8 2.49148 641.334 56.625 634.931C79.9545 632.173 103.737 632.567 127.293 634.833C158.21 637.788 188.788 643.501 219.139 647.047C280.973 654.336 341.222 651.775 397.281 630.499C440.769 614.049 480.746 593.266 515.401 566.375C540.769 546.675 560.248 522.346 574.404 494.569C580.633 482.158 585.955 469.254 590.938 455.957C600.791 429.165 609.172 401.585 621.743 376.467C636.012 347.902 656.85 322.391 687.994 307.813C697.28 303.479 706.68 299.933 716.646 297.766C758.775 288.408 803.282 301.607 848.696 316.481C868.628 322.982 888.786 329.483 907.699 335.294C928.877 341.795 949.488 347.311 968.967 351.35C1006.79 359.23 1040.54 363.367 1069.19 356.275C1088.22 351.547 1102.26 341.992 1118 329.877C1150.17 305.153 1189.35 264.67 1229.33 221.527C1240.31 209.608 1251.53 197.493 1262.96 185.476C1314.27 131.301 1370.78 79.194 1426.95 41.8625" stroke="#F5B195" stroke-miterlimit="10"/>
<path d="M-70.6689 711.269C-53.9079 665.466 0.112302 637 54.2458 630.4C77.6886 627.544 101.471 627.938 125.14 630.302C156.058 633.355 186.522 639.462 216.873 643.698C278.594 652.267 338.73 651.873 395.242 631.779C439.183 616.216 479.839 596.811 515.4 571.103C541.674 552.191 561.719 528.256 576.328 500.676C582.784 488.363 588.333 475.46 593.429 462.162C603.622 435.469 612.342 407.79 625.366 382.87C640.201 354.502 661.492 329.68 693.655 315.988C703.055 311.95 712.568 308.797 722.647 306.926C764.89 299.144 808.831 313.821 854.131 328.695C874.176 335.294 894.448 341.5 913.474 346.72C934.878 352.63 955.716 357.161 975.082 360.116C1012.79 365.73 1045.75 366.913 1071.68 357.358C1089.35 350.857 1100.68 339.628 1114.38 326.035C1142.35 298.357 1178.82 255.411 1218.12 210.593C1228.99 198.182 1240.09 185.673 1251.64 173.36C1303.39 117.708 1362.96 66.192 1422.31 31.6185" stroke="#F5B195" stroke-miterlimit="10"/>
<path d="M-73.9521 706.639C-56.1719 661.034 -2.37811 632.666 51.8686 625.869C75.3114 622.914 99.2072 623.308 122.876 625.771C153.794 629.021 184.258 635.424 214.496 640.25C276.104 650.002 336.126 651.873 393.204 632.961C437.598 618.284 478.934 600.259 515.514 575.733C542.694 557.51 563.192 534.067 578.368 506.586C585.05 494.372 590.712 481.468 596.035 468.171C606.567 441.477 615.74 413.799 629.104 389.075C644.393 360.904 666.363 336.673 699.319 324.065C708.945 320.421 718.571 317.564 728.651 316.087C771.119 309.881 814.268 326.035 859.681 340.908C879.726 347.508 900.111 353.418 919.477 358.146C941.108 363.465 962.059 367.11 981.425 368.784C1019.02 372.133 1051.3 370.36 1074.52 358.245C1090.82 349.774 1099.43 336.969 1111.1 322.095C1134.88 291.462 1168.74 246.053 1207.36 199.66C1218 186.855 1229.1 173.951 1240.65 161.245C1292.86 104.213 1355.49 53.0915 1418 21.3745" stroke="#F5B195" stroke-miterlimit="10"/>
<path d="M-77.124 701.911C-58.3245 656.601 -4.75723 628.134 49.6028 621.239C73.0455 618.284 96.9413 618.58 120.724 621.141C151.641 624.49 182.105 631.385 212.23 636.803C273.725 647.835 333.521 651.972 391.165 634.143C436.012 620.353 478.028 603.707 515.627 580.362C543.713 562.928 564.777 539.879 580.406 512.594C587.314 500.479 593.203 487.673 598.752 474.376C609.737 447.781 619.137 420.004 633.067 395.478C648.922 367.504 671.345 343.864 705.32 332.339C715.06 328.99 724.799 326.626 734.992 325.444C777.574 320.815 820.156 338.446 865.569 353.32C885.728 359.919 906.226 365.632 925.705 369.769C947.562 374.399 968.627 377.157 987.992 377.748C1025.36 378.831 1057.07 373.906 1077.57 359.525C1092.52 349.084 1098.41 334.801 1108.04 318.45C1127.63 284.96 1158.89 236.893 1196.71 189.022C1207.13 175.724 1218.23 162.426 1229.89 149.523C1282.56 91.1125 1348.24 40.385 1413.93 11.5245" stroke="#FDF3D6" stroke-miterlimit="10"/>
<path d="M-80.4082 697.282C-60.7027 652.267 -7.24875 623.801 47.2245 616.709C70.6672 613.655 94.6763 613.951 118.459 616.709C149.376 620.255 179.84 627.445 209.965 633.454C271.346 645.668 331.029 652.07 389.24 635.424C434.54 622.52 477.348 607.253 515.853 585.09C544.845 568.444 566.476 545.789 582.557 518.701C589.692 506.684 595.808 493.879 601.47 480.582C612.795 453.987 622.648 426.21 636.917 401.88C653.225 374.202 676.215 351.054 711.209 340.515C721.175 337.56 731.028 335.491 741.221 334.703C784.029 331.65 825.932 350.66 871.232 365.632C891.39 372.33 912.115 377.649 931.707 381.293C953.678 385.332 975.082 387.105 994.334 386.514C1031.59 385.332 1062.62 377.157 1080.4 360.51C1093.88 347.902 1097.28 332.241 1104.75 314.511C1120.16 278.066 1148.81 227.535 1185.84 177.99C1196.15 164.2 1207.13 150.607 1218.91 137.309C1272.02 77.421 1340.88 27.2845 1409.74 1.18201" stroke="#4D7CBF" stroke-miterlimit="10"/>
<path d="M-83.6924 692.652C-62.9676 647.834 -9.7401 619.467 44.7332 612.178C68.2892 609.026 92.2981 609.321 116.194 612.178C147.111 615.822 177.462 623.406 207.587 630.006C268.855 643.5 328.424 652.07 387.088 636.606C432.841 624.589 476.329 610.7 515.853 589.719C545.751 573.861 567.948 551.6 584.483 524.611C591.844 512.693 598.073 499.887 603.962 486.59C615.626 459.995 625.819 432.316 640.541 408.085C657.302 380.604 680.858 358.048 716.872 348.592C726.951 345.932 737.03 344.257 747.11 343.863C790.031 342.386 831.368 362.874 876.668 377.846C896.939 384.544 917.777 389.666 937.596 392.72C959.793 396.167 981.311 397.053 1000.56 395.28C1037.6 391.833 1067.83 380.308 1083.12 361.593C1095.13 346.917 1095.92 329.877 1101.36 310.768C1112.57 271.368 1138.5 218.375 1174.97 167.253C1185.05 153.069 1196.03 138.984 1207.81 125.489C1261.38 64.222 1333.29 14.4795 1405.32 -8.76647" stroke="#4D7CBF" stroke-miterlimit="10"/>
<path d="M-86.8633 687.924C-65.1193 643.402 -12.1183 614.936 42.4682 607.548C66.0242 604.396 90.1464 604.593 114.042 607.548C145.073 611.39 175.31 619.368 205.322 626.558C266.477 641.235 325.933 652.07 385.163 637.788C431.369 626.657 475.536 614.148 516.08 594.349C546.884 579.279 569.534 557.412 586.635 530.62C594.109 518.8 600.677 506.093 606.68 492.796C618.684 466.299 629.217 438.522 644.392 414.587C661.719 387.302 685.728 365.238 722.761 356.865C733.067 354.501 743.146 353.221 753.338 353.221C796.487 353.319 837.143 375.285 882.443 390.355C902.715 397.053 923.666 401.88 943.712 404.441C966.135 407.297 987.766 407.199 1007.02 404.244C1043.94 398.63 1073.16 383.657 1085.95 362.775C1096.37 345.932 1094.67 327.513 1097.96 307.025C1104.87 264.67 1128.31 209.115 1163.98 156.418C1173.84 141.741 1184.71 127.361 1196.71 113.472C1250.73 50.7275 1325.7 1.47752 1400.9 -19.0105" stroke="#F5B195" stroke-miterlimit="10"/>
<path d="M-90.1475 683.294C-67.3842 639.068 -14.6097 610.602 40.09 603.116C63.646 599.865 87.8815 600.062 111.777 603.116C142.808 607.056 173.046 615.428 202.944 623.209C263.985 639.068 323.328 652.267 383.011 639.068C429.557 628.824 474.517 617.694 516.08 599.077C547.903 584.795 571.006 563.322 588.56 536.727C596.261 525.005 603.056 512.298 609.285 499.001C621.742 472.504 632.614 444.728 648.243 420.989C666.023 393.902 690.598 372.429 728.537 365.14C738.956 363.17 749.262 362.184 759.454 362.578C802.716 364.253 842.806 387.696 887.993 402.767C908.265 409.563 929.442 413.996 949.601 416.064C972.251 418.33 993.995 417.345 1013.25 413.208C1049.94 405.328 1078.14 387.006 1088.67 364.056C1097.39 345.045 1093.32 325.346 1094.56 303.38C1097.28 258.169 1118.12 200.054 1153.11 145.78C1162.85 130.611 1173.61 115.836 1185.61 101.751C1240.09 37.627 1318.12 -11.1305 1396.49 -28.8605" stroke="#7D91D7" stroke-miterlimit="10"/>
<path d="M-93.3184 678.665C-69.5359 634.635 -16.9879 606.268 37.8251 598.585C61.4944 595.236 85.7299 595.433 109.626 598.585C140.656 602.722 170.894 611.39 200.792 619.861C261.72 637 320.95 652.365 381.199 640.348C428.198 630.991 473.951 621.338 516.42 603.805C549.149 590.31 572.818 569.231 590.825 542.735C598.752 531.013 605.661 518.405 612.116 505.108C624.913 478.71 636.125 450.834 652.207 427.293C670.553 400.402 695.581 379.422 734.539 373.217C745.185 371.542 755.49 370.951 765.796 371.739C809.284 374.891 848.695 399.91 893.882 414.98C914.267 421.777 935.558 426.012 955.943 427.49C978.82 429.164 1000.79 427.194 1019.93 421.875C1056.51 411.73 1083.58 390.158 1091.84 365.041C1098.75 343.863 1092.41 322.784 1091.62 299.538C1090.03 251.372 1108.38 190.795 1142.58 134.847C1152.09 119.284 1162.85 104.114 1174.97 89.635C1229.89 24.034 1311.1 -24.231 1392.64 -39.1045" stroke="#7396D8" stroke-miterlimit="10"/>
<path d="M-96.6025 673.937C-71.914 630.203 -19.4793 601.737 35.3337 593.955C59.003 590.606 83.3518 590.705 107.361 594.054C138.391 598.289 168.629 607.45 198.414 616.413C259.229 634.734 318.232 652.366 379.047 641.531C426.499 633.06 472.932 624.786 516.42 608.435C550.055 595.728 574.177 575.043 592.75 548.744C600.904 537.121 608.039 524.611 614.607 511.314C627.744 484.916 639.409 457.04 655.831 433.696C674.63 407.002 700.111 386.613 740.202 381.491C751.074 380.112 761.493 379.915 771.799 381.097C815.4 385.825 854.245 412.223 899.318 427.392C919.703 434.287 941.221 438.128 961.719 439.113C984.709 440.098 1006.91 437.34 1026.04 430.839C1062.51 418.527 1088.33 393.705 1094.45 366.223C1099.54 342.977 1090.94 320.519 1088.11 295.796C1082.33 244.674 1097.96 181.634 1131.59 124.11C1140.88 108.055 1151.64 92.4915 1163.87 77.815C1219.25 10.835 1303.51 -37.036 1388.22 -49.053" stroke="#699CD9" stroke-miterlimit="10"/>
<path d="M-99.7744 669.307C-74.0667 625.869 -21.8584 597.403 33.0678 589.424C56.7371 585.977 81.1991 586.075 105.208 589.522C136.239 593.955 166.363 603.411 196.148 612.966C256.85 632.567 315.74 652.464 377.008 642.712C424.913 635.128 472.138 628.233 516.532 613.064C551.073 601.244 575.762 580.854 594.788 554.752C603.168 543.227 610.416 530.718 617.325 517.42C630.801 491.121 642.806 463.147 659.68 439.999C678.933 413.602 704.98 393.606 746.09 389.666C757.075 388.582 767.608 388.779 778.027 390.355C821.854 396.659 860.019 424.535 905.093 439.704C925.591 446.599 947.222 450.243 967.947 450.637C991.163 451.031 1013.47 447.288 1032.61 439.605C1068.85 425.027 1093.54 396.955 1097.5 367.307C1100.79 341.992 1089.8 318.155 1085.05 292.052C1074.85 238.074 1088.1 172.375 1120.95 113.373C1130.12 96.924 1140.77 80.967 1153 65.8965C1208.83 -2.561 1296.15 -49.9395 1384.03 -59.1" stroke="#5FA1DB" stroke-miterlimit="10"/>
<path d="M-103.059 664.678C-76.3316 621.535 -24.3499 593.068 30.6896 584.893C54.4722 581.347 78.9341 581.445 102.943 584.991C134.087 589.621 164.098 599.372 193.883 609.616C254.472 630.4 313.248 652.562 375.083 643.993C423.441 637.295 471.345 631.877 516.759 617.792C552.319 606.76 577.461 586.764 596.94 560.859C605.547 549.433 613.021 536.923 620.043 523.626C633.859 497.326 646.204 469.352 663.531 446.402C683.35 420.201 709.963 400.698 751.866 397.841C763.078 397.053 773.723 397.644 784.142 399.516C828.083 407.396 865.682 436.749 910.756 451.918C931.254 458.813 952.998 462.162 973.949 462.063C997.392 461.866 1019.93 457.237 1038.95 448.372C1075.08 431.528 1098.52 400.402 1100.22 368.291C1101.7 341.007 1088.44 315.594 1081.65 288.112C1067.27 231.278 1077.91 163.018 1109.96 102.342C1118.91 85.3995 1129.55 69.0485 1141.9 53.781C1198.18 -16.0555 1288.56 -62.9415 1379.61 -69.4425" stroke="#55A6DC" stroke-miterlimit="10"/>
<path d="M-106.343 659.95C-78.5965 617.004 -26.9545 588.538 28.3115 580.264C52.094 576.718 76.556 576.717 100.678 580.362C131.822 585.09 161.833 595.334 191.505 606.071C251.98 628.135 310.644 652.464 372.931 645.077C421.742 639.265 470.326 635.325 516.759 622.323C553.225 612.079 578.82 592.477 598.865 566.67C607.699 555.343 615.4 542.932 622.534 529.634C636.804 503.335 649.488 475.361 667.268 452.608C687.54 426.604 714.72 407.593 757.642 405.918C768.967 405.524 779.725 406.51 790.258 408.677C834.425 418.133 871.231 448.963 916.305 464.132C936.916 471.125 958.774 474.179 979.838 473.489C1003.51 472.701 1026.16 467.087 1045.18 457.04C1081.2 438.03 1103.39 403.653 1102.94 369.277C1102.6 340.022 1087.2 313.131 1078.25 284.172C1059.68 224.383 1067.61 153.66 1099.09 91.408C1107.81 73.9735 1118.46 57.327 1130.91 41.6655C1187.65 -29.6485 1281.2 -76.042 1375.31 -79.6865" stroke="#4BABDE" stroke-miterlimit="10"/>
<path d="M-109.513 655.321C-80.8604 612.67 -29.3317 584.204 25.9343 575.733C49.7168 572.088 74.2921 572.088 98.5276 575.831C129.671 580.756 159.683 591.296 189.241 602.722C249.603 625.968 308.153 652.661 371.007 646.357C420.271 641.432 469.648 638.871 516.873 627.051C554.246 617.694 580.406 598.388 601.018 572.778C609.965 561.549 617.892 549.138 625.367 535.84C639.976 509.639 653 481.567 671.233 459.01C692.071 433.203 719.704 414.685 763.645 414.094C775.196 413.996 786.068 415.375 796.487 417.936C840.768 428.968 877.008 461.276 922.082 476.543C942.693 483.537 964.777 486.295 986.068 485.113C1009.96 483.734 1032.84 477.232 1051.75 466.003C1087.65 444.826 1108.6 407.297 1106 370.458C1103.73 339.234 1086.18 310.866 1075.2 280.528C1052.43 217.784 1057.76 144.598 1088.45 80.6715C1097.05 62.843 1107.59 45.704 1120.04 29.8455C1177.23 -42.8475 1273.84 -88.847 1371.23 -89.635" stroke="#41B1DF" stroke-miterlimit="10"/>
<path d="M-112.798 650.691C-83.1263 608.336 -31.8241 579.87 23.5552 571.3C47.451 567.557 72.0262 567.557 96.2617 571.398C127.405 576.422 157.417 587.356 186.862 599.373C247.111 623.899 305.548 652.76 368.854 647.638C418.571 643.599 468.628 642.614 516.872 631.779C555.151 623.308 581.878 604.298 602.942 578.885C612.116 567.754 620.27 555.343 627.857 542.046C642.806 515.844 656.283 487.772 674.856 465.413C696.147 439.803 724.346 421.678 769.306 422.368C780.971 422.565 791.957 424.338 802.489 427.293C846.996 439.901 882.557 473.588 927.63 488.954C948.355 495.948 970.552 498.508 991.956 496.735C1015.97 494.765 1039.07 487.279 1057.98 474.868C1093.77 451.425 1113.47 410.843 1108.72 371.64C1104.64 338.446 1084.82 308.502 1071.8 276.785C1044.73 211.184 1047.56 135.339 1077.57 69.935C1085.95 51.614 1096.49 34.1795 1109.06 17.927C1166.7 -56.2435 1266.36 -101.652 1366.93 -99.682" stroke="#37B6E1" stroke-miterlimit="10"/>
<path d="M-115.969 645.963C-72.0277 585.681 13.7025 553.373 94.11 566.769C188.9 582.529 271.686 654.729 366.929 648.721C417.099 645.569 467.835 645.963 517.099 636.31C573.497 625.278 604.981 591.69 630.575 548.054C663.418 492.008 689.126 426.997 775.196 430.445C837.37 432.907 877.687 482.157 933.293 501.168C977.234 516.14 1028.76 509.245 1064.44 483.537C1100.11 457.828 1118.57 414.291 1111.66 372.625C1105.77 337.461 1083.69 306.039 1068.63 272.845C1028.65 185.18 1040.09 81.361 1098.18 5.81151C1156.28 -69.738 1259.11 -114.752 1362.74 -109.926" stroke="#2DBBE2" stroke-miterlimit="10"/>
<path d="M-110.985 654.631C-66.3648 599.077 18.7991 569.034 98.6404 581.347C138.618 587.454 176.556 603.017 214.042 617.989C252.434 633.453 290.146 648.426 329.557 652.858C342.241 654.237 355.152 654.631 368.175 653.449C417.213 649.016 466.816 647.933 515.853 637.886C571.459 626.558 603.509 594.349 630.009 553.176C636.125 543.72 642.014 534.067 648.016 524.512C665.683 496.44 684.483 469.845 714.154 455.168C730.802 446.894 750.734 442.265 775.649 443.053C837.03 444.826 877.234 489.939 931.028 506.191C938.163 508.358 945.524 509.934 952.885 510.919C989.691 515.844 1028.54 506.585 1056.96 484.817C1091.05 458.714 1108.72 415.572 1102.26 374.3C1096.83 339.333 1076.21 307.714 1062.28 274.52C1038.28 217.291 1035.56 153.463 1052.88 95.545C1062.17 64.616 1077.23 35.3615 1097.62 9.5545C1134.99 -37.5285 1189.92 -72.3975 1251.64 -90.817C1287.09 -101.357 1324.8 -106.38 1362.62 -105.001" stroke="#33B4E3" stroke-miterlimit="10"/>
<path d="M-105.89 663.299C-60.7029 612.473 24.0081 584.696 103.396 595.925C143.26 601.539 180.973 615.625 218.005 629.021C255.944 642.712 292.977 655.813 331.708 658.768C344.166 659.753 356.737 659.654 369.534 658.177C417.552 652.464 465.91 650.001 514.607 639.56C569.307 628.036 602.036 597.008 629.329 558.298C635.671 549.334 641.787 540.371 648.016 531.407C666.249 505.206 685.275 480.68 714.946 467.087C731.707 459.502 751.526 455.07 775.988 455.562C836.577 456.744 876.667 497.622 928.649 511.116C935.558 512.889 942.579 514.071 949.714 514.761C985.161 518.11 1022.31 507.964 1049.37 485.9C1081.88 459.404 1098.75 416.753 1092.86 375.876C1087.99 341.105 1068.63 309.388 1056.06 276.095C1034.09 218.867 1032.84 155.334 1051.07 98.106C1060.93 67.374 1076.44 38.5135 1097.28 13.1005C1135.22 -33.1945 1190.26 -67.2755 1252.09 -85.695C1287.54 -96.2345 1325.02 -101.357 1362.74 -100.175" stroke="#38ADE5" stroke-miterlimit="10"/>
<path d="M-100.793 671.967C-54.9267 625.869 29.218 600.259 108.04 610.404C147.678 615.428 185.277 628.233 221.97 639.856C259.569 651.873 295.922 662.905 333.861 664.481C346.092 664.973 358.436 664.481 370.893 662.708C417.892 655.715 465.004 651.676 513.475 640.939C567.382 629.021 600.678 599.471 628.877 563.223C635.332 554.85 641.787 546.478 648.129 538.204C666.929 513.973 686.181 491.318 715.853 478.907C732.614 471.913 752.433 467.678 776.442 467.973C836.238 468.466 876.102 505.305 926.498 515.943C933.18 517.322 939.975 518.208 946.883 518.602C980.971 520.375 1016.42 509.343 1042.24 486.984C1073.27 460.192 1089.24 417.935 1083.92 377.452C1079.5 342.78 1061.61 310.965 1050.17 277.672C1030.35 220.443 1030.35 157.206 1049.6 100.667C1060.02 70.132 1075.99 41.6655 1097.17 16.745C1135.67 -28.762 1190.82 -62.055 1252.66 -80.4745C1287.99 -90.9155 1325.48 -96.136 1363.08 -95.348" stroke="#3EA6E6" stroke-miterlimit="10"/>
<path d="M-95.6973 680.635C-49.1515 639.166 34.427 615.92 112.796 624.982C152.32 629.415 189.693 640.841 226.046 650.888C263.305 661.132 298.866 670.194 336.125 670.391C348.129 670.489 360.134 669.603 372.365 667.436C418.344 659.26 464.211 653.744 512.455 642.614C565.456 630.4 599.431 602.229 628.423 568.345C635.105 560.563 641.787 552.782 648.355 545.099C667.721 522.739 687.2 502.054 716.872 490.825C733.746 484.423 753.451 480.68 777.007 480.581C836.01 480.384 875.648 513.086 924.345 520.966C930.801 522.05 937.369 522.542 943.938 522.542C976.667 522.739 1010.3 510.821 1034.88 488.166C1064.32 460.98 1079.38 419.216 1074.74 379.028C1070.78 344.553 1054.36 312.54 1044.16 279.247C1026.38 221.92 1027.86 159.077 1048.13 103.129C1059.11 72.7915 1075.65 44.8175 1097.05 20.1925C1136.12 -24.5265 1191.39 -57.13 1253.34 -75.3525C1288.67 -85.7935 1325.93 -91.1125 1363.42 -90.5215" stroke="#43A0E8" stroke-miterlimit="10"/>
<path d="M-90.7139 689.204C-43.4886 652.464 39.5237 631.483 117.326 639.363C156.624 643.303 193.997 653.35 229.897 661.624C266.703 670.194 301.584 677.286 338.164 676.006C349.942 675.612 361.72 674.331 373.611 671.868C418.571 662.412 463.192 655.419 511.097 643.894C563.305 631.385 597.846 604.495 627.744 573.172C634.652 565.883 641.561 558.79 648.356 551.797C668.174 531.309 688.106 512.692 717.778 502.547C734.765 496.735 754.244 493.091 777.461 492.894C835.671 492.303 875.195 520.572 922.081 525.694C928.31 526.384 934.652 526.482 940.88 526.285C972.137 525.005 1004.19 512.101 1027.4 489.151C1055.38 461.571 1069.53 420.201 1065.46 380.505C1061.94 346.227 1047 314.116 1037.94 280.725C1022.31 223.398 1025.14 160.85 1046.32 105.592C1057.87 75.451 1074.86 47.871 1096.6 23.7385C1136.24 -20.1925 1191.62 -52.008 1253.68 -70.2305C1288.9 -80.573 1326.04 -85.9905 1363.42 -85.7935" stroke="#4999E9" stroke-miterlimit="10"/>
<path d="M-85.6182 697.872C-37.7134 665.86 44.7326 647.046 121.969 653.941C161.04 657.29 198.3 665.958 233.86 672.656C270.327 679.453 304.415 684.575 340.315 681.915C351.867 681.029 363.305 679.453 374.97 676.596C418.911 665.86 462.285 657.389 509.964 645.569C561.266 632.764 596.487 607.252 627.177 578.293C634.312 571.595 641.447 565.094 648.355 558.692C668.74 540.075 688.899 523.429 718.57 514.465C735.558 509.245 755.037 505.896 777.8 505.403C835.331 504.123 874.629 528.255 919.702 530.619C925.704 530.915 931.707 530.718 937.822 530.127C967.72 527.27 998.071 513.48 1020.04 490.234C1046.43 462.26 1059.79 421.383 1056.28 382.081C1053.22 348 1039.63 315.692 1031.93 282.301C1018.34 224.974 1022.76 162.722 1044.73 108.153C1056.85 78.209 1074.29 51.023 1096.37 27.2845C1136.46 -15.8585 1191.96 -46.886 1254.13 -65.1085C1289.35 -75.451 1326.38 -80.967 1363.64 -81.0655" stroke="#4F92EA" stroke-miterlimit="10"/>
<path d="M-80.5215 706.541C-32.0505 679.256 50.0558 662.708 126.726 668.519C165.684 671.277 202.717 678.665 237.938 683.59C274.064 688.712 307.473 691.765 342.581 687.727C353.906 686.446 365.117 684.378 376.442 681.226C419.364 669.307 461.606 659.261 508.832 647.047C559.341 634.045 595.128 609.715 626.725 583.317C634.086 577.112 641.447 571.3 648.582 565.587C669.533 548.941 690.032 534.264 719.59 526.384C736.691 521.853 756.056 518.701 778.367 517.913C835.105 516.042 874.176 536.037 917.551 535.545C923.327 535.446 929.102 534.954 934.878 534.067C963.417 529.635 991.956 514.958 1012.68 491.417C1037.48 463.049 1050.05 422.664 1047.11 383.658C1044.5 349.675 1032.5 317.268 1025.82 283.778C1014.49 226.451 1020.16 164.495 1043.15 110.616C1055.83 80.8685 1073.72 54.175 1096.15 30.8305C1136.8 -11.5245 1192.41 -41.764 1254.7 -59.888C1289.8 -70.132 1326.72 -75.7465 1363.87 -76.1405" stroke="#548BEC" stroke-miterlimit="10"/>
<path d="M-75.4258 715.208C-26.2753 692.652 55.2648 678.468 131.369 682.999C170.1 685.363 207.02 691.174 241.901 694.523C277.574 697.872 310.304 698.956 344.732 693.538C355.83 691.765 366.702 689.303 377.801 685.855C419.59 672.656 460.7 661.23 507.698 648.622C557.415 635.325 593.882 612.374 626.271 588.34C633.859 582.726 641.447 577.505 648.808 572.383C670.212 557.608 691.05 545 720.608 538.204C737.822 534.264 757.075 531.407 778.932 530.422C834.878 527.96 873.836 543.72 915.398 540.469C920.948 540.075 926.497 539.189 931.933 538.007C959.113 531.998 985.953 516.435 1005.32 492.598C1028.65 463.836 1040.31 423.845 1037.82 385.332C1035.67 351.546 1025.14 319.041 1019.7 285.453C1010.42 228.126 1017.55 166.465 1041.45 113.275C1054.7 83.725 1073.16 57.4255 1095.81 34.5735C1137.03 -6.99351 1192.75 -36.445 1255.04 -54.569C1290.03 -64.813 1326.95 -70.4275 1363.87 -71.2155" stroke="#5A84ED" stroke-miterlimit="10"/>
<path d="M-70.4424 723.877C-20.6124 706.048 60.3614 694.129 136.012 697.577C174.631 699.35 211.324 703.881 245.865 705.457C281.199 707.131 313.135 706.245 346.884 699.35C357.643 697.183 368.401 694.326 379.16 690.485C419.93 676.005 459.794 663.102 506.453 650.198C555.264 636.605 592.41 615.034 625.592 593.462C633.407 588.439 641.221 583.809 648.809 579.278C670.779 566.375 691.957 555.737 721.402 550.122C738.729 546.773 757.755 544.114 779.272 542.932C834.425 539.78 873.27 551.403 913.021 545.395C918.343 544.607 923.666 543.326 928.763 541.848C954.584 534.264 979.725 517.815 997.732 493.682C1019.48 464.625 1030.35 425.028 1028.42 386.81C1026.84 353.221 1017.55 320.519 1013.47 286.93C1006.34 229.603 1014.83 168.238 1039.75 115.737C1053.56 86.3845 1072.48 60.479 1095.47 38.021C1137.26 -2.75801 1193.09 -31.4215 1255.49 -49.5455C1290.48 -59.691 1327.18 -65.5025 1364.1 -66.4875" stroke="#607DEE" stroke-miterlimit="10"/>
<path d="M-65.3457 732.544C-14.8362 719.345 65.5713 709.791 140.656 712.155C179.048 713.337 215.628 716.489 249.829 716.489C284.823 716.489 315.967 713.534 349.036 705.26C359.568 702.601 369.987 699.35 380.52 695.213C420.27 679.453 458.889 665.17 505.321 651.774C553.339 637.984 591.165 617.595 625.14 598.584C633.18 594.053 641.221 590.113 648.922 586.272C671.346 575.24 692.976 566.67 722.308 562.139C739.749 559.48 758.661 557.018 779.726 555.54C834.086 551.797 872.817 559.086 910.756 550.418C915.852 549.236 920.835 547.66 925.818 545.887C950.28 536.825 973.61 519.391 990.484 494.963C1010.76 465.511 1020.72 426.406 1019.36 388.582C1018.23 355.191 1010.42 322.39 1007.47 288.703C1002.38 231.376 1012.45 170.306 1038.16 118.495C1052.66 89.438 1071.91 63.828 1095.35 41.8625C1137.71 1.87149 1193.65 -26.004 1256.17 -44.128C1291.05 -54.2735 1327.63 -60.085 1364.44 -61.464" stroke="#6576F0" stroke-miterlimit="10"/>
<path d="M-60.249 741.114C-9.06001 732.643 70.7812 725.255 145.413 726.536C183.691 727.225 220.045 728.999 253.793 727.226C288.335 725.453 318.799 720.527 351.188 710.874C361.494 707.722 371.687 704.078 381.879 699.646C420.611 682.605 457.983 666.845 504.189 653.153C551.414 639.068 589.919 620.057 624.574 603.411C632.841 599.471 640.995 596.024 649.036 592.872C672.026 583.711 693.883 577.21 723.215 573.763C740.768 571.694 759.568 569.527 780.293 567.852C833.86 563.42 872.365 566.572 908.605 555.146C913.475 553.57 918.231 551.699 922.874 549.532C945.977 538.894 967.608 520.573 983.123 495.849C1001.81 466.004 1010.98 427.293 1010.19 389.962C1009.51 356.669 1003.17 323.77 1001.47 290.083C998.525 232.657 1009.96 171.981 1036.58 120.86C1051.64 91.999 1071.46 66.8815 1095.13 45.2115C1138.05 6.00848 1194.11 -21.079 1256.62 -39.1045C1291.5 -49.1515 1327.97 -55.16 1364.55 -56.736" stroke="#6B70F1" stroke-miterlimit="10"/>
<path d="M-55.1533 749.782C-3.39806 746.039 75.9902 740.917 150.056 741.114C188.108 741.212 224.348 741.705 257.756 738.159C291.958 734.711 321.743 727.816 353.34 716.686C363.419 713.14 373.385 709.101 383.238 704.275C420.95 685.954 457.076 668.815 502.943 654.631C549.262 640.348 588.447 622.618 624.007 608.434C632.501 605.085 640.881 602.229 649.148 599.766C672.591 592.477 694.902 588.045 724.12 585.779C741.674 584.4 760.473 582.43 780.745 580.46C833.52 575.437 871.911 574.353 906.339 560.169C910.983 558.199 915.513 556.032 919.816 553.57C941.56 541.356 961.379 522.148 975.648 497.129C992.749 466.89 1001.13 428.672 1000.9 391.636C1000.68 358.54 995.807 325.542 995.241 291.757C994.335 234.331 1007.36 173.951 1034.88 123.519C1050.51 94.8555 1070.78 70.132 1094.79 48.9545C1138.28 10.441 1194.45 -15.76 1257.07 -33.7855C1291.84 -43.8325 1328.2 -49.841 1364.78 -51.811" stroke="#7069F3" stroke-miterlimit="10"/>
<path d="M-50.1699 758.45C2.26484 759.435 81.0869 756.48 154.586 755.692C192.412 755.199 228.538 754.313 261.607 749.191C295.469 743.97 324.461 735.105 355.378 722.596C365.231 718.557 374.857 714.125 384.37 709.003C421.063 689.402 455.944 670.785 501.584 656.306C547.111 641.826 586.975 625.377 623.215 613.557C631.935 610.7 640.542 608.533 648.922 606.662C672.818 601.244 695.582 598.88 724.687 597.698C742.354 596.91 761.04 595.137 780.859 592.97C832.841 587.257 871.119 582.036 903.735 564.996C908.152 562.73 912.455 560.071 916.532 557.313C936.917 543.523 955.037 523.429 968.061 498.114C983.689 467.481 991.164 429.755 991.504 393.113C991.844 360.214 988.219 327.02 989.012 293.234C990.258 235.809 1004.64 175.724 1033.07 125.981C1049.26 97.515 1069.99 73.1855 1094.33 52.402C1138.39 14.6765 1194.67 -10.7365 1257.41 -28.762C1292.18 -38.7105 1328.31 -44.916 1364.78 -47.1815" stroke="#4D7CBF" stroke-miterlimit="10"/>
<path d="M-45.0742 767.118C8.04004 772.831 86.409 772.142 159.342 770.172C197.054 769.187 232.955 766.921 265.684 760.026C299.093 753.131 327.405 742.296 357.643 728.309C367.269 723.877 376.669 718.952 385.842 713.534C421.403 692.652 455.151 672.656 500.451 657.684C545.185 642.909 585.728 627.839 622.761 618.482C631.708 616.216 640.541 614.64 649.148 613.359C673.61 609.813 696.6 608.828 725.705 609.419C743.486 609.715 761.945 607.745 781.424 605.282C832.613 598.978 870.665 589.424 901.583 569.724C905.773 567.065 909.737 564.109 913.587 561.056C932.613 545.69 949.034 524.709 960.699 499.099C974.742 468.072 981.424 430.74 982.33 394.591C983.123 361.889 980.971 328.497 982.896 294.712C986.18 237.286 1002.15 177.497 1031.37 128.345C1048.24 100.076 1069.31 76.239 1093.99 55.8495C1138.61 18.912 1195.01 -5.71302 1257.75 -23.64C1292.41 -33.5885 1328.54 -39.794 1364.78 -42.355" stroke="#F5B195" stroke-miterlimit="10"/>
<path d="M-39.9775 775.786C13.8162 786.227 91.619 787.606 163.986 784.749C201.472 783.075 237.372 779.529 269.648 771.058C302.717 762.39 330.237 749.585 359.795 734.219C369.195 729.294 378.255 724.073 387.202 718.262C421.743 696.001 454.359 674.725 499.319 659.359C543.147 644.387 584.483 630.695 622.309 623.603C631.482 621.929 640.542 620.944 649.375 620.353C674.29 618.679 697.733 620.55 726.838 621.437C744.732 622.028 763.078 620.55 782.104 617.989C832.501 610.996 870.439 597.304 899.544 574.846C903.508 571.792 907.246 568.542 910.756 565.193C928.423 548.349 943.033 526.384 953.452 500.478C966.022 469.057 971.798 432.218 973.157 396.364C974.516 363.761 973.61 330.369 976.894 296.387C982.104 238.961 999.658 179.467 1029.9 131.005C1047.34 102.932 1068.97 79.4895 1093.88 59.5925C1139.07 23.443 1195.47 -0.492513 1258.43 -18.321C1293.09 -28.171 1328.99 -34.5735 1365.23 -37.43" stroke="#FFF9EF" stroke-miterlimit="10"/>
<path d="M-34.9941 784.454C19.4791 799.623 96.7156 803.268 168.629 799.229C206.002 797.062 241.676 792.137 273.612 781.893C306.341 771.551 333.182 756.776 361.947 739.834C371.12 734.515 379.954 728.801 388.561 722.694C422.083 699.153 453.453 676.498 498.187 660.639C541.222 645.47 583.238 633.06 621.743 628.43C631.142 627.347 640.429 627.051 649.489 626.953C674.857 626.657 698.753 631.089 727.745 633.059C745.751 634.241 763.985 633.06 782.558 630.203C832.161 622.52 869.873 604.593 897.28 579.475C901.017 576.028 904.528 572.384 907.812 568.739C924.007 550.32 937.031 527.468 946.204 501.267C957.189 469.55 962.172 433.105 964.097 397.645C965.909 365.238 966.476 331.65 970.892 297.667C978.254 240.242 997.28 181.043 1028.31 133.271C1046.32 105.494 1068.4 82.346 1093.66 62.843C1139.3 27.4815 1195.92 4.33402 1259 -13.4945C1293.54 -23.246 1329.33 -29.747 1365.46 -32.899" stroke="#F5B195" stroke-miterlimit="10"/>
<path d="M-29.8984 793.122C25.1411 812.921 101.925 818.929 173.272 813.807C210.418 811.049 245.979 804.745 277.575 792.925C309.852 780.81 336.012 764.065 364.098 745.744C373.045 739.932 381.539 733.825 389.919 727.423C422.422 702.601 452.547 678.468 496.941 662.314C539.183 646.85 581.878 635.916 621.176 633.552C630.802 632.961 640.315 633.257 649.488 633.946C675.423 635.916 699.545 642.023 728.537 645.077C746.657 646.948 764.777 645.963 782.897 642.811C831.708 634.439 869.307 612.375 894.901 584.499C898.412 580.658 901.696 576.718 904.641 572.778C919.476 552.782 930.801 529.044 938.616 502.547C948.015 470.436 952.206 434.385 954.697 399.418C956.962 367.208 959.001 333.521 964.663 299.44C974.063 242.015 994.675 183.21 1026.5 136.029C1045.18 108.449 1067.61 85.6951 1093.32 66.6846C1139.52 32.1111 1196.26 9.75153 1259.34 -8.07697C1293.88 -17.8285 1329.55 -24.4279 1365.46 -27.8755" stroke="#4D7CBF" stroke-miterlimit="10"/>
<path d="M-24.8018 801.692C30.9173 826.218 107.135 834.394 177.916 828.287C214.835 824.938 250.283 817.353 281.54 803.76C313.476 789.97 338.957 771.255 366.251 751.457C374.971 745.251 383.125 738.652 391.279 731.954C422.649 705.753 451.641 680.34 495.809 663.693C537.258 648.032 580.52 637.985 620.61 638.477C630.463 638.576 640.202 639.265 649.602 640.644C675.989 644.486 700.565 652.76 729.443 656.798C747.563 659.359 765.57 658.473 783.35 655.124C831.368 646.16 868.741 619.762 892.637 589.227C895.921 585.09 898.865 580.756 901.583 576.422C915.06 554.851 924.573 530.226 931.142 503.434C939.069 470.929 942.353 435.37 945.411 400.698C948.242 368.686 951.527 334.802 958.548 300.721C970.1 243.295 992.183 184.786 1024.91 138.294C1044.17 110.911 1067.15 88.65 1093.09 69.935C1139.86 36.1495 1196.71 14.578 1259.91 -3.152C1294.33 -12.805 1329.89 -19.503 1365.8 -23.3445" stroke="#CFE1F4" stroke-miterlimit="10"/>
<path d="M-19.7051 810.359C36.6934 839.614 112.344 850.055 182.673 842.766C219.479 838.924 254.7 829.862 285.617 814.693C317.214 799.13 341.902 778.446 368.516 757.268C376.896 750.57 384.937 743.675 392.751 736.583C423.102 709.102 450.962 682.31 494.676 665.269C535.333 649.411 579.274 641.137 620.157 643.599C630.237 644.19 640.089 645.569 649.829 647.637C676.782 653.252 701.584 663.693 730.463 668.815C748.696 672.065 766.59 671.376 783.917 667.83C831.142 658.177 868.288 627.642 890.485 594.349C893.543 589.818 896.261 585.189 898.639 580.559C910.757 557.412 918.571 531.9 923.781 504.812C930.123 471.913 932.727 436.847 936.238 402.569C939.636 370.655 944.279 336.673 952.433 302.592C966.023 245.166 989.692 187.051 1023.21 141.15C1043.15 114.063 1066.48 92.0975 1092.75 73.875C1140.09 40.8775 1197.05 20.094 1260.36 2.36399C1294.67 -7.28901 1330.12 -13.987 1365.91 -18.124" stroke="#4D7CBF" stroke-miterlimit="10"/>
<path d="M-14.7227 819.028C42.3554 853.01 117.44 865.717 187.202 857.344C223.782 852.912 258.889 842.569 289.467 825.627C320.611 808.389 344.62 785.734 370.554 763.079C378.708 755.987 386.409 748.6 393.997 741.213C423.215 712.451 449.942 684.378 493.43 666.845C533.294 650.888 577.801 643.895 619.477 648.623C629.783 649.805 639.862 651.775 649.715 654.434C677.122 661.822 702.376 674.528 731.142 680.635C749.488 684.575 767.269 683.984 784.143 680.241C830.575 669.8 867.495 635.128 887.993 599.176C890.824 594.251 893.316 589.227 895.468 584.302C906.226 559.677 912.342 533.181 916.306 505.798C921.175 472.505 922.874 437.833 926.951 404.047C930.802 372.33 936.917 338.249 946.317 304.07C962.059 246.546 987.2 188.824 1021.52 143.613C1042.01 116.722 1065.8 95.151 1092.41 77.3225C1140.31 45.113 1197.39 25.1175 1260.7 7.38751C1295.01 -2.16699 1330.35 -9.06201 1365.91 -13.4945" stroke="#4D7CBF" stroke-miterlimit="10"/>
<path d="M-9.62695 827.695C78.4816 886.697 206.001 890.538 293.43 836.56C324.234 817.55 347.45 792.925 372.705 768.891C411.55 731.855 437.937 690.879 492.184 668.322C540.881 648.031 599.205 644.387 649.828 661.23C677.8 670.489 703.282 685.264 732.047 692.455C808.491 711.465 872.024 645.273 892.409 588.242C913.247 530.127 909.17 466.693 917.664 405.721C929.329 321.307 963.53 217.291 1019.82 146.174C1079.05 71.4125 1162.51 40.0895 1261.15 12.7065C1295.35 3.15201 1330.57 -3.74299 1366.13 -8.47099" stroke="#4D7CBF" stroke-miterlimit="10"/>
</g>
</svg>
