<svg width="1478" height="788" viewBox="0 0 1478 788" fill="none" xmlns="http://www.w3.org/2000/svg">
<mask id="mask0_140_461" style="mask-type:luminance" maskUnits="userSpaceOnUse" x="0" y="0" width="1478" height="788">
<path d="M1478 0H0V788H1478V0Z" fill="white"/>
</mask>
<g mask="url(#mask0_140_461)">
<path d="M1478 0H0V788H1478V0Z" fill="#CFE1F4"/>
</g>
<mask id="mask1_140_461" style="mask-type:luminance" maskUnits="userSpaceOnUse" x="2" y="0" width="1476" height="788">
<path d="M2 788L1478 788L1478 0L2 0L2 788Z" fill="white"/>
</mask>
<g mask="url(#mask1_140_461)">
<path d="M1530.15 44.1281C1519.57 91.8021 1459.18 120.269 1401.13 125.785C1343.07 131.301 1283.78 120.466 1224.99 120.466C1067.55 120.564 919.088 207.343 867.551 329.483C851.069 368.587 843.812 410.351 827.699 449.653C811.586 488.856 784.28 527.172 739.877 545.789C676.04 572.679 596.09 551.994 531.638 521.952C467.186 491.909 406.916 452.115 335.576 438.325C241.85 420.201 144.311 451.426 72.6023 501.562C0.893321 551.699 -49.7826 619.171 -99.2286 685.56" stroke="#F5B195" stroke-miterlimit="10"/>
<path d="M1533.72 48.7576C1522.03 96.2346 1461.89 124.603 1403.71 130.316C1378.49 132.778 1353.15 132.187 1327.69 130.513C1294.24 128.346 1260.78 124.504 1227.57 123.913C1159.8 122.731 1093.62 136.62 1035.57 163.609C990.673 184.491 950.821 211.972 918.964 244.97C896.209 268.413 878.005 294.811 865.336 323.474C859.678 336.279 855.004 349.478 850.699 362.776C841.966 389.765 834.832 417.148 823.516 443.25C810.724 472.899 791.29 501.562 762.508 521.065C753.529 527.172 743.812 532.393 733.111 536.53C688.339 553.767 636.556 547.857 586.987 533.181C565.585 526.877 544.552 518.898 524.995 510.427C503.101 500.873 481.699 490.629 460.42 480.779C418.6 461.473 377.149 443.644 332.377 437.242C303.226 433.006 274.567 434.188 246.031 439.212C188.344 449.554 131.518 477.134 84.1626 512.397C71.2476 522.05 58.8246 532.294 46.7706 542.834C-6.48843 589.917 -51.0144 644.289 -94.9254 695.706" stroke="#F5B195" stroke-miterlimit="10"/>
<path d="M1537.16 53.3869C1524.37 100.568 1464.47 128.936 1406.17 134.846C1380.95 137.407 1355.49 136.816 1329.91 135.043C1296.45 132.679 1263.12 128.444 1229.79 127.262C1162.14 124.799 1096.21 136.521 1037.54 162.328C992.15 182.323 951.683 208.524 918.596 240.241C894.98 262.995 876.161 288.999 862.877 317.465C856.973 330.172 852.053 343.371 847.625 356.668C838.523 383.559 831.02 411.04 819.212 436.946C805.805 466.397 785.756 494.371 755.99 512.889C746.765 518.602 736.925 523.527 726.224 527.27C681.206 542.932 630.161 535.544 580.715 520.868C559.19 514.465 538.034 506.881 518.354 498.902C496.214 490.037 474.566 480.581 453.41 472.012C411.713 454.971 371.492 439.901 329.303 436.158C301.997 433.695 275.798 436.552 249.599 443.053C196.463 456.35 142.466 486.491 95.9718 523.232C83.1798 533.377 70.8799 543.917 58.8259 554.752C5.07488 603.214 -42.7722 657.192 -90.1273 705.752" stroke="#FDF3D6" stroke-miterlimit="10"/>
<path d="M1540.73 58.115C1526.83 105.001 1467.3 133.468 1408.87 139.476C1383.66 142.037 1358.07 141.545 1332.49 139.673C1299.03 137.211 1265.7 132.581 1232.49 130.808C1164.96 127.164 1099.16 136.521 1039.87 161.245C994.117 180.354 952.79 205.176 918.596 235.711C893.996 257.676 874.562 283.286 860.786 311.556C854.636 324.164 849.593 337.264 844.796 350.562C835.325 377.452 827.329 404.934 815.152 430.642C801.253 459.897 780.466 487.181 749.839 504.813C740.368 510.23 730.528 514.761 719.704 518.11C674.563 532.196 624.133 523.331 574.687 508.654C553.162 502.252 531.883 494.864 511.834 487.477C489.448 479.203 467.677 470.83 446.521 463.246C404.947 448.471 365.71 436.158 326.227 435.173C300.643 434.484 277.15 439.015 253.288 446.895C204.703 462.95 153.535 495.751 107.902 534.166C95.3563 544.705 83.0563 555.737 70.8793 566.868C16.6363 616.807 -34.6545 670.293 -85.3305 715.997" stroke="#F5B195" stroke-miterlimit="10"/>
<path d="M1544.3 62.7445C1529.29 109.434 1470 137.802 1411.46 144.007C1386.12 146.667 1360.53 146.174 1334.95 144.106C1301.49 141.446 1268.16 136.521 1235.07 134.059C1167.67 129.232 1101.99 136.324 1042.21 159.866C995.963 178.088 953.897 201.531 918.596 230.884C893.012 252.062 872.963 277.278 858.695 305.35C852.299 317.958 847.01 330.96 842.09 344.258C832.25 371.05 823.886 398.63 811.094 424.141C796.58 453.1 775.301 479.892 743.567 496.44C733.973 501.464 723.887 505.699 713.186 508.654C667.799 521.164 618.107 510.821 568.784 496.046C547.259 489.545 525.734 482.552 505.562 475.657C483.053 467.974 460.913 460.488 439.88 454.184C398.429 441.773 360.176 432.12 323.399 433.794C299.537 434.878 278.75 441.083 257.102 450.441C213.068 469.451 164.852 504.714 119.834 544.705C107.534 555.737 95.2339 567.065 82.9339 578.491C28.1989 629.809 -26.4131 682.802 -80.5332 725.748" stroke="#F5B195" stroke-miterlimit="10"/>
<path d="M1547.74 67.3739C1531.75 113.767 1472.59 142.135 1413.92 148.538C1388.58 151.296 1362.87 150.803 1337.29 148.636C1303.83 145.878 1270.5 140.461 1237.53 137.506C1170.25 131.399 1104.69 136.324 1044.3 158.683C997.561 176.019 954.88 198.182 918.349 226.254C891.781 246.742 871.24 271.466 856.357 299.44C849.715 311.949 844.18 324.951 839.137 338.249C828.805 365.041 820.072 392.621 806.911 417.935C791.905 446.697 769.888 472.8 737.17 488.461C727.33 493.189 717.244 497.031 706.42 499.592C660.91 510.525 611.833 498.804 562.51 483.93C540.862 477.429 519.214 470.633 498.796 464.329C476.041 457.237 453.778 450.736 432.745 445.515C391.417 435.37 354.148 428.475 320.077 432.907C297.814 435.764 279.856 443.644 260.422 454.479C220.939 476.346 175.552 514.268 131.395 555.835C119.218 567.36 107.041 579.081 94.741 590.803C39.514 643.599 -18.4189 696.099 -76.1059 736.189" stroke="#F5B195" stroke-miterlimit="10"/>
<path d="M1551.31 72.1019C1534.21 118.2 1475.29 146.666 1416.5 153.069C1391.16 155.827 1365.33 155.433 1339.75 153.167C1306.17 150.212 1272.96 144.499 1239.99 140.953C1172.84 133.664 1107.4 136.225 1046.52 157.501C999.284 173.951 955.865 194.734 918.227 221.625C890.675 241.325 869.519 265.654 854.144 293.431C847.379 305.842 841.598 318.746 836.186 332.043C825.485 358.835 816.383 386.415 802.73 411.533C787.232 440.098 764.6 465.609 730.775 480.187C720.689 484.521 710.48 488.067 699.656 490.234C653.9 499.592 605.561 486.393 556.238 471.519C534.59 465.018 512.696 458.517 492.155 452.706C469.154 446.205 446.768 440.689 425.612 436.65C384.53 428.77 347.876 424.633 316.757 431.725C296.093 436.453 280.841 446.008 263.744 458.123C228.812 482.847 186.253 523.33 142.834 566.473C130.903 578.392 118.727 590.507 106.304 602.524C50.5845 656.699 -10.7922 708.806 -71.8002 746.137" stroke="#F5B195" stroke-miterlimit="10"/>
<path d="M1554.75 76.7316C1536.55 122.534 1477.88 151.001 1419.08 157.6C1393.62 160.457 1367.79 160.063 1342.08 157.699C1308.51 154.645 1275.42 148.538 1242.45 144.303C1175.42 135.733 1110.11 136.127 1048.73 156.221C1001.01 171.784 956.849 191.189 918.227 216.897C889.691 235.809 867.92 259.745 852.053 287.325C845.042 299.637 839.015 312.541 833.48 325.838C822.41 352.532 812.939 380.21 798.794 405.131C782.681 433.499 759.557 458.321 724.625 472.012C714.416 476.051 704.084 479.203 693.137 481.074C647.258 488.856 599.534 474.179 550.334 459.306C528.563 452.706 506.546 446.501 485.882 441.28C462.635 435.37 440.003 430.839 418.97 427.884C378.011 422.27 342.218 421.088 314.051 430.642C294.863 437.143 282.563 448.372 267.68 461.965C237.299 489.644 197.693 532.59 155.012 577.407C143.204 589.818 131.15 602.328 118.604 614.64C62.3927 670.293 -2.30543 721.808 -66.7574 756.382" stroke="#F5B195" stroke-miterlimit="10"/>
<path d="M1558.32 81.361C1539.01 126.966 1480.58 155.334 1421.67 162.131C1396.2 165.086 1370.25 164.692 1344.54 162.229C1310.97 158.979 1277.88 152.576 1245.04 147.75C1178.13 137.998 1112.94 136.127 1050.94 155.039C1002.73 169.716 957.832 187.741 918.103 212.267C888.583 230.49 866.32 253.933 849.838 281.415C842.581 293.629 836.431 306.532 830.65 319.83C819.211 346.523 809.248 374.201 794.734 398.925C778.129 427.096 754.267 451.327 718.474 463.935C708.019 467.579 697.564 470.436 686.617 471.913C640.492 478.119 593.629 461.965 544.306 447.092C522.535 440.492 500.395 434.582 479.362 429.854C455.869 424.535 433.114 420.89 412.081 419.216C371.245 415.867 336.19 417.64 310.975 429.755C293.263 438.226 283.915 451.031 271.246 465.905C245.416 496.538 208.639 541.947 166.696 588.34C155.134 601.145 143.08 614.049 130.534 626.755C73.8313 683.787 5.81231 734.908 -62.0837 766.625" stroke="#F5B195" stroke-miterlimit="10"/>
<path d="M1561.76 86.0891C1541.34 131.399 1483.17 159.866 1424.13 166.761C1398.66 169.716 1372.71 169.42 1346.88 166.859C1313.3 163.51 1280.22 156.615 1247.5 151.198C1180.71 140.166 1115.76 136.029 1053.16 153.857C1004.45 167.647 958.817 184.294 917.981 207.638C887.477 225.073 864.599 248.122 847.625 275.406C840.121 287.522 833.726 300.327 827.699 313.624C815.768 340.219 805.558 367.996 790.429 392.523C773.209 420.497 748.856 444.137 711.956 455.661C701.378 459.01 690.799 461.374 679.729 462.556C633.481 467.186 587.234 449.554 537.911 434.681C516.017 428.081 493.753 422.368 472.597 418.231C448.858 413.602 425.98 410.844 404.947 410.253C364.357 409.169 329.917 414.094 307.654 428.475C291.418 438.916 285.022 453.199 274.567 469.55C253.288 503.04 219.34 551.108 178.258 598.979C166.942 612.276 154.888 625.574 142.219 638.477C85.0243 696.888 13.6846 747.615 -57.6555 776.476" stroke="#FDF3D6" stroke-miterlimit="10"/>
<path d="M1565.33 90.7186C1543.93 135.733 1485.87 164.2 1426.71 171.292C1401.25 174.345 1375.17 174.05 1349.34 171.292C1315.76 167.746 1282.68 160.555 1249.96 154.547C1183.29 142.333 1118.47 135.93 1055.25 152.577C1006.05 165.48 959.555 180.748 917.735 202.91C886.247 219.557 862.754 242.212 845.288 269.299C837.539 281.316 830.897 294.121 824.747 307.419C812.447 334.014 801.746 361.791 786.248 386.12C768.536 413.799 743.567 436.946 705.56 447.486C694.736 450.441 684.035 452.509 672.965 453.297C626.471 456.351 580.961 437.34 531.761 422.368C509.867 415.67 487.358 410.351 466.079 406.707C442.217 402.668 418.97 400.895 398.06 401.486C357.593 402.668 323.891 410.844 304.58 427.49C289.943 440.098 286.253 455.76 278.135 473.49C261.407 509.935 230.288 560.465 190.067 610.011C178.874 623.801 166.943 637.394 154.151 650.691C96.464 710.579 21.68 760.716 -53.104 786.818" stroke="#4D7CBF" stroke-miterlimit="10"/>
<path d="M1568.9 95.3482C1546.39 140.166 1488.58 168.534 1429.42 175.823C1403.83 178.975 1377.76 178.679 1351.8 175.823C1318.22 172.178 1285.26 164.594 1252.54 157.994C1186 144.5 1121.3 135.93 1057.59 151.395C1007.89 163.412 960.662 177.3 917.735 198.281C885.263 214.139 861.155 236.4 843.197 263.389C835.202 275.308 828.438 288.113 822.042 301.41C809.373 328.005 798.302 355.684 782.312 379.915C764.108 407.396 738.524 429.953 699.41 439.409C688.463 442.068 677.516 443.743 666.569 444.137C619.952 445.614 575.057 425.126 525.857 410.154C503.84 403.456 481.208 398.334 459.683 395.281C435.575 391.833 412.205 390.947 391.295 392.72C351.074 396.167 318.233 407.692 301.628 426.407C288.59 441.083 287.729 458.124 281.825 477.233C269.648 516.633 241.481 569.626 201.875 620.747C190.928 634.931 178.997 649.017 166.205 662.511C108.026 723.778 29.9214 773.521 -48.3066 796.767" stroke="#4D7CBF" stroke-miterlimit="10"/>
<path d="M1572.34 100.076C1548.72 144.598 1491.16 173.064 1431.87 180.452C1406.29 183.604 1380.09 183.407 1354.14 180.452C1320.44 176.61 1287.6 168.632 1255 161.442C1188.58 146.765 1124.01 135.93 1059.68 150.213C1009.49 161.343 961.523 173.852 917.489 193.651C884.033 208.721 859.433 230.588 840.86 257.38C832.742 269.2 825.608 281.907 819.089 295.205C806.051 321.701 794.612 349.478 778.13 373.413C759.311 400.698 733.235 422.762 693.014 431.135C681.821 433.499 670.874 434.779 659.804 434.779C612.941 434.681 568.784 412.715 519.584 397.645C497.567 390.947 474.812 386.12 453.041 383.559C428.687 380.703 405.194 380.801 384.284 383.756C344.186 389.37 312.452 404.343 298.553 425.225C287.237 442.068 289.082 460.487 285.515 480.975C278.012 523.33 252.551 578.885 213.806 631.582C203.105 646.259 191.297 660.639 178.259 674.528C119.588 737.272 38.1619 786.522 -43.5101 807.01" stroke="#F5B195" stroke-miterlimit="10"/>
<path d="M1575.91 104.706C1551.19 148.932 1493.87 177.399 1434.46 184.885C1408.87 188.135 1382.55 187.938 1356.6 184.885C1322.9 180.945 1290.06 172.572 1257.58 164.791C1191.29 148.932 1126.84 135.733 1062.01 148.932C1011.46 159.176 962.63 170.307 917.489 188.923C882.926 203.206 857.834 224.679 838.769 251.274C830.405 262.995 823.025 275.702 816.26 288.999C802.73 315.496 790.922 343.273 773.948 367.011C754.637 394.099 727.946 415.572 686.741 422.861C675.425 424.831 664.232 425.816 653.162 425.422C606.176 423.747 562.634 400.304 513.557 385.234C491.54 378.437 468.539 374.005 446.645 371.936C422.045 369.671 398.429 370.656 377.519 374.793C337.667 382.673 307.04 400.994 295.601 423.944C286.13 442.955 290.558 462.655 289.205 484.62C286.253 529.832 263.621 587.947 225.614 642.22C215.036 657.389 203.351 672.164 190.313 686.25C131.15 750.373 46.4031 799.131 -38.7129 816.861" stroke="#7D91D7" stroke-miterlimit="10"/>
<path d="M1579.35 109.335C1553.52 153.364 1496.45 181.732 1436.92 189.415C1411.21 192.764 1384.89 192.567 1358.94 189.415C1325.23 185.278 1292.39 176.61 1259.92 168.139C1193.75 151 1129.42 135.634 1063.98 147.651C1012.94 157.009 963.244 166.662 917.119 184.195C881.572 197.689 855.865 218.768 836.308 245.265C827.698 256.986 820.195 269.594 813.184 282.892C799.285 309.29 787.108 337.165 769.642 360.707C749.716 387.597 722.533 408.578 680.221 414.783C668.659 416.458 657.466 417.049 646.273 416.261C599.041 413.109 556.237 388.09 507.16 373.019C485.02 366.223 461.896 361.987 439.756 360.51C414.91 358.835 391.048 360.805 370.261 366.124C330.532 376.27 301.135 397.841 292.156 422.959C284.653 444.136 291.541 465.215 292.402 488.461C294.124 536.628 274.198 597.205 237.052 653.153C226.72 668.716 215.035 683.885 201.874 698.365C142.219 763.966 54.0281 812.231 -34.5319 827.104" stroke="#7396D8" stroke-miterlimit="10"/>
<path d="M1582.92 114.063C1556.1 157.797 1499.16 186.263 1439.62 194.045C1413.92 197.394 1387.47 197.295 1361.4 193.946C1327.69 189.711 1294.85 180.55 1262.5 171.587C1196.45 153.266 1132.37 135.634 1066.32 146.469C1014.78 154.94 964.352 163.214 917.12 179.565C880.589 192.272 854.39 212.957 834.218 239.256C825.362 250.879 817.613 263.389 810.479 276.686C796.211 303.084 783.542 330.96 765.707 354.304C745.289 380.998 717.614 401.387 674.072 406.509C662.264 407.888 650.948 408.085 639.755 406.903C592.4 402.175 550.211 375.777 501.257 360.608C479.117 353.713 455.747 349.872 433.484 348.887C408.515 347.902 384.407 350.66 363.62 357.161C324.014 369.473 295.97 394.295 289.328 421.777C283.793 445.023 293.141 467.481 296.216 492.204C302.489 543.326 285.515 606.366 248.984 663.89C238.898 679.945 227.213 695.508 213.929 710.185C153.782 777.165 62.2698 825.036 -29.7342 837.053" stroke="#699CD9" stroke-miterlimit="10"/>
<path d="M1586.36 118.693C1558.44 162.131 1501.74 190.598 1442.08 198.576C1416.38 202.024 1389.81 201.925 1363.73 198.478C1330.03 194.045 1297.31 184.589 1264.96 175.035C1199.04 155.433 1135.08 135.536 1068.53 145.288C1016.5 152.872 965.213 159.767 916.997 174.936C879.482 186.756 852.668 207.146 832.004 233.248C822.902 244.773 815.03 257.282 807.527 270.58C792.89 296.879 779.852 324.853 761.525 348.001C740.615 374.399 712.325 394.394 667.676 398.334C655.745 399.418 644.306 399.221 632.99 397.645C585.389 391.341 543.938 363.465 494.984 348.296C472.721 341.401 449.228 337.757 426.719 337.363C401.504 336.969 377.273 340.712 356.486 348.395C317.126 362.973 290.312 391.045 286.007 420.694C282.44 446.008 294.371 469.845 299.537 495.948C310.607 549.926 296.216 615.625 260.546 674.627C250.583 691.076 239.021 707.033 225.737 722.104C165.098 790.561 70.2652 837.94 -25.1828 847.1" stroke="#5FA1DB" stroke-miterlimit="10"/>
<path d="M1589.93 123.322C1560.9 166.465 1504.45 194.932 1444.67 203.107C1418.84 206.653 1392.27 206.555 1366.19 203.009C1332.37 198.379 1299.77 188.628 1267.42 178.384C1201.62 157.6 1137.78 135.438 1070.62 144.007C1018.1 150.705 966.075 156.123 916.752 170.208C878.13 181.24 850.824 201.236 829.668 227.141C820.32 238.567 812.202 251.077 804.576 264.374C789.57 290.674 776.163 318.648 757.344 341.598C735.819 367.799 706.914 387.302 661.404 390.159C649.227 390.947 637.665 390.356 626.349 388.484C578.625 380.604 537.789 351.251 488.835 336.082C466.572 329.187 442.956 325.838 420.201 325.937C394.74 326.134 370.262 330.763 349.598 339.628C310.361 356.472 284.901 387.598 283.056 419.709C281.457 446.993 295.848 472.406 303.228 499.888C318.849 556.722 307.287 624.983 272.478 685.659C262.761 702.601 251.199 718.952 237.792 734.219C176.661 804.056 78.5064 850.942 -20.3856 857.443" stroke="#55A6DC" stroke-miterlimit="10"/>
<path d="M1593.5 128.05C1563.36 170.996 1507.27 199.463 1447.25 207.737C1421.42 211.283 1394.85 211.283 1368.65 207.638C1334.83 202.91 1302.23 192.666 1270.01 181.929C1204.32 159.865 1140.61 135.536 1072.96 142.923C1019.95 148.735 967.181 152.675 916.751 165.677C877.145 175.921 849.347 195.523 827.576 221.33C817.982 232.657 809.618 245.068 801.869 258.366C786.371 284.665 772.595 312.639 753.284 335.392C731.267 361.396 701.747 380.407 655.13 382.082C642.83 382.476 631.145 381.49 619.706 379.323C571.736 369.867 531.761 339.037 482.807 323.868C460.421 316.875 436.682 313.821 413.804 314.511C388.097 315.299 363.497 320.913 342.833 330.96C303.719 349.97 279.611 384.347 280.103 418.723C280.472 447.978 297.2 474.869 306.917 503.828C327.089 563.617 318.479 634.34 284.285 696.592C274.814 714.027 263.252 730.673 249.722 746.335C188.099 817.649 86.5007 864.042 -15.7123 867.687" stroke="#4BABDE" stroke-miterlimit="10"/>
<path d="M1596.94 132.679C1565.82 175.33 1509.86 203.796 1449.83 212.268C1424 215.912 1397.31 215.912 1370.99 212.169C1337.16 207.244 1304.57 196.704 1272.47 185.278C1206.91 162.032 1143.32 135.339 1075.05 141.643C1021.55 146.568 967.918 149.129 916.627 160.949C876.037 170.307 847.624 189.612 825.238 215.223C815.521 226.451 806.911 238.863 798.793 252.16C782.926 278.361 768.781 306.434 748.978 328.99C726.346 354.797 696.334 373.315 648.61 373.906C636.064 374.004 624.256 372.626 612.94 370.065C564.847 359.033 525.487 326.725 476.533 311.457C454.147 304.464 430.162 301.706 407.038 302.888C381.085 304.267 356.239 310.768 335.698 321.997C296.707 343.174 273.952 380.703 276.781 417.542C279.241 448.766 298.306 477.134 310.237 507.472C334.96 570.217 329.179 643.402 295.846 707.329C286.498 725.157 275.059 742.296 261.529 758.155C199.414 830.848 94.4953 876.847 -11.2848 877.635" stroke="#41B1DF" stroke-miterlimit="10"/>
<path d="M1600.51 137.309C1568.28 179.664 1512.56 208.131 1452.42 216.7C1426.46 220.443 1399.77 220.443 1373.45 216.602C1339.62 211.578 1307.03 200.645 1275.05 188.628C1209.61 164.101 1146.15 135.241 1077.39 140.363C1023.39 144.401 969.026 145.386 916.628 156.221C875.054 164.692 846.026 183.702 823.148 209.115C813.185 220.246 804.329 232.657 796.088 245.955C779.852 272.156 765.215 300.228 745.043 322.588C721.919 348.198 691.292 366.322 642.461 365.632C629.792 365.435 617.861 363.662 606.422 360.707C558.083 348.099 519.461 314.412 470.507 299.046C447.998 292.052 423.89 289.492 400.643 291.265C374.567 293.235 349.475 300.721 328.934 313.132C290.066 336.575 268.664 377.157 273.83 416.36C278.258 449.554 299.783 479.498 313.928 511.215C343.325 576.816 340.25 652.661 307.655 718.065C298.553 736.386 287.114 753.821 273.461 770.073C210.854 844.244 102.614 889.652 -6.61019 887.682" stroke="#37B6E1" stroke-miterlimit="10"/>
<path d="M1603.95 142.037C1556.23 202.319 1463.12 234.627 1375.79 221.231C1272.84 205.471 1182.92 133.271 1079.48 139.279C1024.99 142.431 969.887 142.037 916.382 151.69C855.128 162.722 820.934 196.311 793.136 239.946C757.466 295.993 729.545 361.003 636.065 357.555C568.538 355.093 524.75 305.843 464.357 286.832C416.633 271.86 360.668 278.755 321.923 304.464C283.178 330.172 263.129 373.709 270.632 415.375C277.028 450.539 301.013 481.961 317.372 515.155C360.791 602.82 348.368 706.639 285.269 782.189C222.17 857.738 110.486 902.753 -2.05913 897.926" stroke="#2DBBE2" stroke-miterlimit="10"/>
<path d="M1598.54 133.369C1550.08 188.923 1457.58 218.965 1370.87 206.653C1327.45 200.546 1286.24 184.983 1245.53 170.011C1203.83 154.546 1162.87 139.574 1120.07 135.142C1106.29 133.763 1092.27 133.369 1078.13 134.551C1024.87 138.983 970.994 140.067 917.735 150.114C857.342 161.442 822.533 193.651 793.751 234.824C787.109 244.28 780.713 253.933 774.194 263.487C755.006 291.56 734.588 318.155 702.362 332.832C684.281 341.106 662.633 345.735 635.573 344.947C568.907 343.174 525.242 298.061 466.817 281.808C459.068 279.641 451.073 278.065 443.078 277.08C403.103 272.155 360.914 281.414 330.041 303.183C293.018 329.285 273.83 372.428 280.841 413.7C286.745 448.667 309.131 480.286 324.26 513.48C350.336 570.709 353.288 634.537 334.469 692.455C324.383 723.384 308.024 752.638 285.884 778.445C245.294 825.528 185.639 860.397 118.604 878.817C80.1049 889.356 39.1458 894.38 -1.93623 893.001" stroke="#33B4E3" stroke-miterlimit="10"/>
<path d="M1593 124.701C1543.93 175.527 1451.92 203.304 1365.7 192.075C1322.4 186.461 1281.45 172.375 1241.22 158.979C1200.02 145.288 1159.8 132.187 1117.73 129.232C1104.2 128.247 1090.55 128.346 1076.65 129.823C1024.5 135.536 971.978 137.999 919.088 148.44C859.679 159.964 824.132 190.992 794.489 229.702C787.601 238.666 780.959 247.629 774.194 256.593C754.391 282.794 733.727 307.32 701.501 320.913C683.297 328.498 661.772 332.93 635.204 332.438C569.399 331.256 525.857 290.378 469.4 276.884C461.897 275.111 454.271 273.929 446.522 273.239C408.023 269.89 367.679 280.036 338.282 302.1C302.981 328.596 284.654 371.247 291.05 412.124C296.339 446.895 317.372 478.612 331.025 511.905C354.887 569.133 356.24 632.666 336.437 689.894C325.736 720.626 308.885 749.487 286.253 774.9C245.048 821.195 185.27 855.276 118.112 873.695C79.6127 884.235 38.8998 889.357 -2.05921 888.175" stroke="#38ADE5" stroke-miterlimit="10"/>
<path d="M1587.47 116.033C1537.65 162.131 1446.27 187.741 1360.66 177.596C1317.61 172.572 1276.77 159.767 1236.92 148.144C1196.08 136.127 1156.6 125.095 1115.4 123.519C1102.11 123.027 1088.7 123.519 1075.17 125.292C1024.13 132.286 972.962 136.324 920.318 147.061C861.77 158.979 825.608 188.529 794.981 224.777C787.97 233.15 780.959 241.522 774.071 249.796C753.653 274.027 732.743 296.682 700.517 309.093C682.313 316.087 660.788 320.322 634.712 320.027C569.768 319.534 526.472 282.695 471.737 272.057C464.48 270.678 457.1 269.792 449.597 269.398C412.574 267.625 374.075 278.657 346.031 301.016C312.329 327.808 294.986 370.065 300.767 410.548C305.564 445.22 324.998 477.036 337.421 510.329C358.946 567.557 358.946 630.794 338.036 687.333C326.72 717.868 309.377 746.335 286.376 771.255C244.556 816.762 184.655 850.055 117.497 868.475C79.1206 878.916 38.4076 884.136 -2.42842 883.348" stroke="#3EA6E6" stroke-miterlimit="10"/>
<path d="M1581.94 107.365C1531.38 148.834 1440.61 172.08 1355.49 163.018C1312.57 158.585 1271.98 147.159 1232.49 137.112C1192.03 126.868 1153.4 117.806 1112.94 117.609C1099.9 117.511 1086.86 118.397 1073.58 120.564C1023.64 128.74 973.824 134.256 921.426 145.386C863.862 157.6 826.962 185.771 795.474 219.655C788.217 227.437 780.96 235.218 773.826 242.901C752.793 265.261 731.637 285.946 699.411 297.175C681.084 303.577 659.682 307.32 634.098 307.419C570.015 307.616 526.965 274.914 474.075 267.034C467.064 265.95 459.93 265.458 452.796 265.458C417.249 265.261 380.718 277.179 354.027 299.834C322.047 327.02 305.688 368.784 310.731 408.972C315.036 443.447 332.871 475.46 343.941 508.753C363.252 566.08 361.653 628.922 339.636 684.87C327.705 715.208 309.747 743.183 286.5 767.808C244.065 812.527 184.041 845.13 116.76 863.353C78.3836 873.794 37.9165 879.112 -2.79651 878.521" stroke="#43A0E8" stroke-miterlimit="10"/>
<path d="M1576.52 98.7957C1525.23 135.536 1435.07 156.517 1350.57 148.637C1307.89 144.697 1267.3 134.65 1228.31 126.376C1188.34 117.806 1150.45 110.714 1110.72 111.995C1097.93 112.389 1085.14 113.669 1072.22 116.132C1023.39 125.588 974.93 132.581 922.901 144.106C866.198 156.615 828.683 183.506 796.211 214.829C788.708 222.118 781.205 229.21 773.825 236.203C752.3 256.691 730.652 275.308 698.426 285.453C679.976 291.265 658.82 294.909 633.605 295.106C570.383 295.697 527.456 267.428 476.534 262.306C469.769 261.616 462.881 261.518 456.116 261.715C422.168 262.995 387.359 275.899 362.144 298.849C331.763 326.429 316.388 367.799 320.816 407.495C324.629 441.773 340.865 473.884 350.705 507.275C367.679 564.602 364.604 627.15 341.603 682.408C329.057 712.549 310.607 740.129 286.991 764.262C243.941 808.193 183.794 840.008 116.39 858.231C78.1371 868.573 37.7933 873.991 -2.79674 873.794" stroke="#4999E9" stroke-miterlimit="10"/>
<path d="M1570.99 90.1278C1518.96 122.14 1429.42 140.954 1345.53 134.059C1303.09 130.71 1262.63 122.042 1224.01 115.344C1184.4 108.547 1147.38 103.425 1108.39 106.085C1095.84 106.971 1083.42 108.547 1070.75 111.404C1023.02 122.14 975.914 130.611 924.131 142.431C868.412 155.236 830.159 180.748 796.826 209.707C789.077 216.405 781.328 222.906 773.825 229.308C751.685 247.925 729.791 264.571 697.565 273.535C679.115 278.755 657.959 282.104 633.236 282.597C570.752 283.877 528.071 259.745 479.117 257.381C472.598 257.085 466.079 257.282 459.437 257.873C426.965 260.73 394.001 274.52 370.139 297.766C341.48 325.74 326.966 366.617 330.779 405.919C334.1 440 348.86 472.308 357.224 505.699C371.984 563.026 367.187 625.278 343.325 679.847C330.164 709.791 311.222 736.977 287.237 760.716C243.695 803.859 183.425 834.886 115.898 853.109C77.6453 863.451 37.4243 868.967 -3.04268 869.066" stroke="#4F92EA" stroke-miterlimit="10"/>
<path d="M1565.45 81.4596C1512.81 108.744 1423.63 125.292 1340.36 119.481C1298.05 116.723 1257.83 109.335 1219.58 104.41C1180.34 99.2881 1144.05 96.2347 1105.92 100.273C1093.62 101.554 1081.45 103.622 1069.15 106.774C1022.53 118.693 976.652 128.74 925.361 140.954C870.503 153.956 831.635 178.285 797.318 204.683C789.323 210.889 781.328 216.7 773.579 222.413C750.824 239.06 728.561 253.736 696.458 261.616C677.885 266.147 656.852 269.299 632.621 270.087C570.998 271.959 528.563 251.963 481.454 252.456C475.181 252.554 468.908 253.047 462.635 253.933C431.639 258.366 400.643 273.042 378.134 296.584C351.197 324.952 337.544 365.337 340.742 404.343C343.571 438.325 356.609 470.732 363.866 504.222C376.166 561.549 370.016 623.505 345.047 677.385C331.271 707.132 311.837 733.825 287.483 757.17C243.326 799.525 182.933 829.764 115.283 847.888C77.1528 858.132 37.0549 863.747 -3.28908 864.141" stroke="#548BEC" stroke-miterlimit="10"/>
<path d="M1559.92 72.7916C1506.54 95.3481 1417.98 109.532 1335.32 105.001C1293.25 102.637 1253.16 96.8256 1215.27 93.4766C1176.53 90.1276 1140.98 89.0441 1103.59 94.4616C1091.53 96.2346 1079.73 98.6971 1067.67 102.145C1022.29 115.344 977.637 126.77 926.592 139.378C872.595 152.675 832.989 175.626 797.811 199.66C789.57 205.274 781.329 210.495 773.334 215.617C750.087 230.392 727.455 243 695.352 249.796C676.656 253.736 655.746 256.593 632.007 257.578C571.245 260.04 528.933 244.28 483.792 247.531C477.765 247.925 471.738 248.811 465.834 249.993C436.314 256.002 407.163 271.565 386.13 295.402C360.792 324.164 348.123 364.155 350.829 402.668C353.166 436.454 364.605 468.959 370.509 502.547C380.595 559.874 372.846 621.535 346.893 674.725C332.502 704.275 312.453 730.575 287.853 753.427C243.081 794.994 182.565 824.445 114.915 842.569C76.9079 852.813 36.81 858.428 -3.28796 859.216" stroke="#5A84ED" stroke-miterlimit="10"/>
<path d="M1554.51 64.1235C1500.39 81.952 1412.44 93.8706 1330.28 90.4231C1288.33 88.6501 1248.48 84.1191 1210.97 82.5431C1172.59 80.8686 1137.9 81.755 1101.25 88.65C1089.57 90.817 1077.88 93.6735 1066.2 97.515C1021.92 111.995 978.62 124.898 927.944 137.802C874.931 151.395 834.587 172.966 798.548 194.538C790.061 199.561 781.574 204.191 773.333 208.722C749.471 221.625 726.47 232.263 694.49 237.878C675.671 241.227 655.007 243.886 631.637 245.068C571.736 248.22 529.547 236.597 486.374 242.606C480.593 243.394 474.812 244.674 469.277 246.152C441.233 253.736 413.927 270.186 394.37 294.318C370.754 323.376 358.946 362.973 361.037 401.191C362.759 434.779 372.845 467.481 377.273 501.07C385.022 558.397 375.797 619.762 348.737 672.263C333.731 701.616 313.19 727.521 288.221 749.979C242.834 790.758 182.195 819.422 114.422 837.546C76.4146 847.691 36.5627 853.503 -3.53526 854.488" stroke="#607DEE" stroke-miterlimit="10"/>
<path d="M1548.97 55.4556C1494.11 68.6546 1406.78 78.2091 1325.23 75.8451C1283.54 74.6631 1243.81 71.5111 1206.66 71.5111C1168.65 71.5111 1134.83 74.4661 1098.91 82.7401C1087.47 85.3996 1076.16 88.65 1064.72 92.787C1021.55 108.547 979.604 122.83 929.174 136.226C877.022 150.016 835.94 170.405 799.04 189.416C790.307 193.947 781.574 197.887 773.21 201.728C748.856 212.76 725.363 221.33 693.506 225.861C674.564 228.52 654.023 230.983 631.145 232.46C572.105 236.203 530.039 228.914 488.834 237.582C483.299 238.764 477.887 240.34 472.475 242.113C445.907 251.175 420.569 268.61 402.242 293.038C380.225 322.489 369.401 361.594 370.877 399.418C372.107 432.809 380.594 465.61 383.792 499.297C389.327 556.624 378.38 617.694 350.459 669.505C334.715 698.562 313.805 724.172 288.344 746.138C242.342 786.129 181.58 814.004 113.684 832.128C75.7997 842.274 36.0705 848.085 -3.90447 849.464" stroke="#6576F0" stroke-miterlimit="10"/>
<path d="M1543.44 46.886C1487.84 55.357 1401.12 62.7446 1320.07 61.4641C1278.49 60.7746 1239.01 59.0015 1202.36 60.7745C1164.84 62.5475 1131.75 67.4726 1096.58 77.1256C1085.38 80.2776 1074.31 83.922 1063.24 88.3545C1021.18 105.395 980.587 121.155 930.403 134.847C879.112 148.932 837.292 167.943 799.654 184.589C790.675 188.529 781.819 191.977 773.086 195.129C748.117 204.289 724.378 210.79 692.521 214.238C673.456 216.306 653.038 218.473 630.529 220.148C572.35 224.58 530.53 221.428 491.17 232.854C485.881 234.43 480.715 236.302 475.672 238.469C450.58 249.107 427.087 267.428 410.236 292.151C389.941 321.997 379.978 360.707 380.839 398.039C381.577 431.332 388.465 464.231 390.31 497.918C393.508 555.343 381.085 616.019 352.18 667.141C335.821 696.001 314.296 721.119 288.589 742.789C241.972 781.992 181.087 809.079 113.191 827.105C75.3072 837.152 35.7011 843.16 -4.0279 844.736" stroke="#6B70F1" stroke-miterlimit="10"/>
<path d="M1537.9 38.2182C1481.69 41.9612 1395.47 47.0831 1315.03 46.8861C1273.7 46.7876 1234.34 46.2951 1198.05 49.8411C1160.91 53.2886 1128.56 60.1837 1094.24 71.3142C1083.29 74.8602 1072.47 78.8986 1061.77 83.7251C1020.81 102.046 981.572 119.185 931.757 133.369C881.45 147.652 838.892 165.382 800.27 179.566C791.045 182.915 781.943 185.771 772.964 188.234C747.503 195.523 723.272 199.955 691.538 202.221C672.473 203.6 652.055 205.57 630.038 207.54C572.72 212.563 531.023 213.647 493.631 227.831C488.588 229.801 483.668 231.968 478.994 234.43C455.378 246.644 433.853 265.852 418.355 290.871C399.782 321.11 390.68 359.328 390.926 396.364C391.172 429.46 396.461 462.458 397.076 496.243C398.06 553.669 383.915 614.049 354.026 664.481C337.052 693.145 315.035 717.868 288.959 739.046C241.727 777.559 180.719 803.76 112.7 821.786C74.9393 831.833 35.4561 837.841 -4.27287 839.811" stroke="#7069F3" stroke-miterlimit="10"/>
<path d="M1532.49 29.5502C1475.54 28.5652 1389.93 31.5202 1310.1 32.3082C1269.02 32.8007 1229.79 33.6872 1193.87 38.8092C1157.09 44.0297 1125.6 52.8947 1092.03 65.4042C1081.32 69.4427 1070.87 73.8751 1060.54 78.9971C1020.69 98.5986 982.801 117.215 933.232 131.695C883.786 146.174 840.49 162.624 801.13 174.444C791.659 177.3 782.311 179.467 773.209 181.339C747.256 186.756 722.533 189.12 690.922 190.302C671.734 191.09 651.439 192.863 629.914 195.03C573.457 200.743 531.883 205.964 496.459 223.004C491.662 225.27 486.988 227.929 482.56 230.687C460.42 244.477 440.74 264.571 426.595 289.886C409.621 320.519 401.503 358.245 401.134 394.887C400.765 427.786 404.701 460.98 403.84 494.766C402.487 552.191 386.866 612.276 355.993 662.019C338.404 690.485 315.895 714.815 289.45 735.598C241.603 773.324 180.472 798.737 112.33 816.762C74.569 826.711 35.3319 832.916 -4.27407 835.182" stroke="#4D7CBF" stroke-miterlimit="10"/>
<path d="M1526.95 20.8819C1469.27 15.1689 1384.15 15.8584 1304.94 17.8284C1263.98 18.8134 1224.99 21.079 1189.44 27.974C1153.16 34.869 1122.41 45.7039 1089.57 59.6909C1079.11 64.1234 1068.9 69.0484 1058.94 74.4659C1020.32 95.3479 983.663 115.344 934.463 130.316C885.878 145.091 841.844 160.161 801.623 169.518C791.906 171.784 782.312 173.36 772.964 174.641C746.396 178.187 721.427 179.172 689.816 178.581C670.505 178.285 650.456 180.255 629.3 182.717C573.704 189.021 532.376 198.576 498.797 218.276C494.246 220.935 489.941 223.89 485.759 226.944C465.095 242.31 447.26 263.29 434.591 288.9C419.339 319.928 412.082 357.259 411.098 393.409C410.237 426.111 412.574 459.502 410.483 493.288C406.916 550.713 389.573 610.503 357.839 659.654C339.512 687.924 316.634 711.761 289.82 732.15C241.358 769.088 180.104 793.713 111.962 811.64C74.3239 821.588 35.0869 827.794 -4.2731 830.355" stroke="#F5B195" stroke-miterlimit="10"/>
<path d="M1521.42 12.2142C1462.99 1.77319 1378.49 0.394212 1299.9 3.25071C1259.18 4.92521 1220.19 8.47112 1185.14 16.9421C1149.22 25.6101 1119.33 38.4151 1087.23 53.7811C1077.02 58.7061 1067.18 63.9267 1057.46 69.7382C1019.95 91.9992 984.524 113.275 935.693 128.641C888.092 143.613 843.197 157.305 802.115 164.397C792.152 166.071 782.312 167.056 772.718 167.647C745.658 169.322 720.197 167.45 688.586 166.564C669.152 165.973 649.226 167.45 628.562 170.011C573.827 177.005 532.622 190.696 501.011 213.154C496.706 216.208 492.647 219.458 488.834 222.807C469.646 239.651 453.779 261.616 442.463 287.522C428.81 318.943 422.537 355.782 421.061 391.636C419.585 424.24 420.569 457.631 417.002 491.614C411.344 549.039 392.279 608.533 359.438 656.995C340.496 685.068 317.003 708.511 289.943 728.408C240.866 764.557 179.612 788.493 111.224 806.321C73.5859 816.171 34.595 822.574 -4.76499 825.43" stroke="#FFF9EF" stroke-miterlimit="10"/>
<path d="M1516.01 3.54592C1456.84 -11.6231 1372.96 -15.2676 1294.85 -11.2291C1254.26 -9.06208 1215.52 -4.13711 1180.83 6.10689C1145.28 16.4494 1116.13 31.2245 1084.89 48.1665C1074.93 53.4855 1065.33 59.1985 1055.99 65.3055C1019.58 88.847 985.507 111.502 936.922 127.36C890.182 142.529 844.549 154.94 802.729 159.57C792.52 160.653 782.434 160.949 772.594 161.047C745.042 161.343 719.089 156.91 687.601 154.94C668.044 153.758 648.241 154.94 628.069 157.797C574.195 165.48 533.236 183.407 503.47 208.525C499.411 211.972 495.598 215.616 492.031 219.261C474.442 237.68 460.297 260.532 450.334 286.733C438.403 318.45 432.991 354.895 430.9 390.355C428.932 422.762 428.317 456.35 423.52 490.333C415.525 547.758 394.861 606.957 361.159 654.729C341.602 682.506 317.617 705.654 290.188 725.157C240.619 760.518 179.119 783.666 110.608 801.494C73.0927 811.246 34.2246 817.747 -5.01243 820.899" stroke="#F5B195" stroke-miterlimit="10"/>
<path d="M1510.47 -5.12201C1450.69 -24.9205 1367.3 -30.929 1289.81 -25.807C1249.47 -23.049 1210.84 -16.7451 1176.53 -4.92506C1141.47 7.19044 1113.06 23.9355 1082.55 42.2565C1072.84 48.068 1063.61 54.1749 1054.51 60.5774C1019.21 85.3994 986.492 109.532 938.276 125.686C892.397 141.15 846.026 152.084 803.345 154.448C792.889 155.039 782.557 154.743 772.594 154.054C744.427 152.084 718.229 145.977 686.741 142.923C667.061 141.052 647.381 142.037 627.701 145.189C574.688 153.561 533.852 175.625 506.053 203.501C502.24 207.342 498.674 211.282 495.476 215.222C479.363 235.218 467.063 258.956 458.576 285.453C448.367 317.564 443.815 353.615 441.109 388.582C438.649 420.792 436.436 454.479 430.286 488.56C420.077 545.985 397.69 604.79 363.127 651.972C342.832 679.552 318.478 702.305 290.557 721.315C240.373 755.889 178.75 778.249 110.239 796.077C72.7243 805.829 33.9793 812.428 -5.01176 815.875" stroke="#4D7CBF" stroke-miterlimit="10"/>
<path d="M1504.94 -13.6916C1444.42 -38.2181 1361.64 -46.3936 1284.77 -40.2866C1244.67 -36.9376 1206.17 -29.3531 1172.22 -15.7601C1137.54 -1.97009 1109.86 16.7449 1080.22 36.5434C1070.75 42.7489 1061.89 49.3484 1053.03 56.0464C1018.96 82.2474 987.476 107.66 939.506 124.307C894.488 139.968 847.501 150.015 803.959 149.523C793.258 149.424 782.68 148.735 772.471 147.356C743.812 143.514 717.121 135.24 685.756 131.202C666.076 128.641 646.519 129.527 627.208 132.876C575.056 141.84 534.466 168.238 508.513 198.773C504.946 202.91 501.748 207.244 498.796 211.578C484.159 233.149 473.827 257.774 466.693 284.566C458.083 317.071 454.516 352.63 451.195 387.302C448.12 419.314 444.553 453.198 436.927 487.279C424.381 544.705 400.396 603.214 364.849 649.706C343.939 677.089 318.97 699.35 290.803 718.065C240.004 751.85 178.258 773.422 109.624 791.152C72.2323 800.805 33.6105 807.503 -5.38053 811.344" stroke="#CFE1F4" stroke-miterlimit="10"/>
<path d="M1499.4 -22.3594C1438.15 -51.6139 1355.98 -62.0549 1279.6 -54.7659C1239.62 -50.9244 1201.37 -41.8624 1167.79 -26.6934C1133.48 -11.1304 1106.66 9.55449 1077.76 30.732C1068.65 37.43 1059.92 44.325 1051.43 51.417C1018.47 78.8985 988.212 105.691 940.734 122.731C896.577 138.59 848.853 146.864 804.45 144.401C793.503 143.81 782.802 142.431 772.224 140.363C742.95 134.748 716.013 124.307 684.648 119.185C664.845 115.935 645.411 116.624 626.592 120.17C575.301 129.823 534.957 160.358 510.849 193.651C507.528 198.182 504.576 202.812 501.993 207.441C488.832 230.589 480.345 256.1 474.687 283.188C467.799 316.087 464.97 351.153 461.157 385.431C457.467 417.345 452.424 451.327 443.568 485.408C428.808 542.834 403.101 600.949 366.693 646.85C345.045 673.937 319.707 695.903 291.171 714.125C239.757 747.123 177.888 767.906 109.131 785.636C71.8623 795.289 33.3634 801.987 -5.50463 806.124" stroke="#4D7CBF" stroke-miterlimit="10"/>
<path d="M1493.99 -31.0274C1432 -65.0099 1350.45 -77.7164 1274.68 -69.3439C1234.95 -64.9114 1196.82 -54.5688 1163.61 -37.6268C1129.79 -20.3893 1103.71 2.26565 1075.54 24.9207C1066.69 32.0127 1058.32 39.4001 1050.08 46.7876C1018.35 75.5496 989.32 103.622 942.088 121.155C898.792 137.112 850.453 144.106 805.189 139.378C793.996 138.196 783.049 136.226 772.348 133.566C742.582 126.179 715.153 113.472 683.911 107.365C663.985 103.425 644.674 104.016 626.347 107.759C575.917 118.2 535.819 152.872 513.556 188.825C510.481 193.75 507.775 198.773 505.438 203.698C493.753 228.323 487.111 254.82 482.806 282.203C477.517 315.496 475.672 350.168 471.244 383.953C467.062 415.67 460.42 449.751 450.211 483.931C433.114 541.455 405.808 599.176 368.539 644.387C346.276 671.278 320.446 692.849 291.541 710.678C239.512 742.887 177.52 762.883 108.763 780.613C71.4942 790.167 33.1181 797.062 -5.50388 801.495" stroke="#4D7CBF" stroke-miterlimit="10"/>
<path d="M1488.46 -39.6955C1392.76 -98.697 1254.26 -102.538 1159.31 -48.5605C1125.85 -29.55 1100.64 -4.92492 1073.21 19.1091C1031.02 56.1451 1002.36 97.121 943.442 119.678C890.552 139.969 827.207 143.613 772.226 126.769C741.845 117.51 714.17 102.736 682.928 95.545C599.903 76.5345 530.9 142.726 508.76 199.758C486.128 257.873 490.556 321.307 481.331 382.278C468.662 466.693 431.516 570.709 370.385 641.826C306.056 716.587 215.405 747.91 108.272 775.293C71.1261 784.848 32.8731 791.743 -5.74885 796.471" stroke="#4D7CBF" stroke-miterlimit="10"/>
</g>
<path d="M125.706 598.021L120.251 602.533L124.802 606.924L134.15 604.288V599.339L125.706 598.021Z" fill="#FDF3D6"/>
<path d="M125.706 598.021L134.15 599.339V591.036L125.706 598.021Z" fill="#FDF3D6"/>
<path d="M120.251 602.533L125.706 598.021L113.617 596.135L120.251 602.533Z" fill="#FDF3D6"/>
<path d="M124.802 606.924L120.251 602.533L109.846 611.14L124.802 606.924Z" fill="#FDF3D6"/>
<path d="M134.15 604.288L124.802 606.924L134.15 615.94V604.288Z" fill="#FDF3D6"/>
<path d="M134.15 599.339V604.288L145.449 601.103L134.15 599.339Z" fill="#FDF3D6"/>
<path d="M232.561 674.84C237.129 675.998 240.715 679.317 243.429 684.356C246.602 690.246 245.875 698.705 242.765 705.471H255.236C244.328 691.173 224.48 624.274 215.92 592.612C211.38 596.051 205.151 596.826 198.492 596.135C201.187 614.345 209.639 652.461 221.896 659.243C229.391 657.555 232.139 668.268 232.561 674.84Z" fill="#FDF3D6"/>
<path d="M232.561 575.281C227.72 565.197 205.812 551.122 195.464 545.345L194.74 520.314C180.574 522.028 153.186 530.756 151.591 536.694C147.346 541.797 145.62 547.063 145.449 552.119C145.442 552.328 145.438 552.537 145.436 552.746C145.298 568.486 159.943 582.033 159.943 582.033C159.943 582.033 180.744 594.293 198.492 596.135C205.151 596.826 211.38 596.051 215.92 592.612L232.561 575.281Z" fill="#FDF3D6"/>
<path fill-rule="evenodd" clip-rule="evenodd" d="M159.943 582.033C159.943 582.033 145.298 568.486 145.436 552.746C145.438 552.537 145.442 552.328 145.449 552.119C132.187 565.034 98.4758 596.998 87.3255 618.292C71.7239 648.086 66.7577 680.744 96.4029 701.326C118.876 716.929 176.606 720.179 207.987 710.514C200.508 707.291 197.633 696.434 198.492 686.235C199.528 673.946 206.356 669.429 217.337 661.482C219.022 660.262 220.537 659.549 221.896 659.243C209.639 652.461 201.187 614.345 198.492 596.135C180.744 594.293 159.943 582.033 159.943 582.033ZM134.15 591.036V599.339L145.449 601.103L134.15 604.288V615.94L124.802 606.924L109.846 611.14L120.251 602.533L113.617 596.135L125.706 598.021L134.15 591.036Z" fill="#FDF3D6"/>
<path d="M301.752 632.605C296.204 605.999 293.169 575.614 275.678 557.95C274.725 564.219 266.822 571.226 259.2 577.453C259.145 598.847 260.699 644.537 267.356 656.151C262.517 627.464 288.271 628.501 301.752 632.605Z" fill="#FDF3D6"/>
<path d="M267.356 656.151C260.699 644.537 259.145 598.847 259.2 577.453C258.228 578.247 257.261 579.029 256.314 579.794L256.308 579.799L256.304 579.802C250.721 584.311 245.82 588.27 244.664 591.036C246.103 626.597 253.441 699.268 271.285 705.471H305.13C285.13 705.471 271.614 672.591 267.356 656.151Z" fill="#FDF3D6"/>
<path d="M282.711 667.72C279.361 654.412 297 650.58 306.238 650.327C304.466 644.762 303.041 638.785 301.752 632.605C288.271 628.501 262.517 627.464 267.356 656.151C271.614 672.591 285.13 705.471 305.13 705.471C300.394 702.187 295.89 694.136 293.589 686.235C291.359 685.609 286.061 681.029 282.711 667.72Z" fill="#FDF3D6"/>
<path d="M232.561 575.281L244.664 591.036C245.82 588.27 250.721 584.311 256.304 579.802L256.308 579.799L256.314 579.794C257.261 579.029 258.228 578.247 259.2 577.453C266.822 571.226 274.725 564.219 275.678 557.95C283.414 539.199 265.647 531.768 259.2 525.571C257.246 529.766 254.938 533.556 252.228 536.694C248.597 558.764 237.604 571.614 232.561 575.281Z" fill="#FDF3D6"/>
<path fill-rule="evenodd" clip-rule="evenodd" d="M195.956 518.847C196.351 519.202 196.584 519.713 196.6 520.255L197.292 544.171C202.524 547.145 210.145 551.888 217.161 557.122C220.888 559.902 224.474 562.842 227.451 565.747C229.702 567.945 231.672 570.188 233.082 572.385C238.222 567.718 247.204 555.754 250.394 536.367C250.453 536.006 250.609 535.67 250.844 535.398C253.411 532.426 255.628 528.799 257.526 524.725C257.783 524.173 258.276 523.78 258.854 523.666C259.433 523.552 260.03 523.731 260.462 524.147C261.608 525.248 263.13 526.384 264.915 527.717C265.478 528.137 266.067 528.577 266.679 529.041C269.15 530.917 271.866 533.112 274.144 535.759C276.432 538.419 278.333 541.599 279.096 545.46C279.8 549.017 279.508 552.998 277.867 557.484C286.407 566.559 291.429 578.566 294.982 591.386C297.474 600.378 299.283 609.949 301.05 619.29C301.878 623.67 302.696 627.999 303.571 632.193C304.853 638.343 306.262 644.244 308.005 649.717C309.36 653.974 310.913 657.951 312.753 661.568C312.968 661.607 313.182 661.651 313.395 661.699C318.8 662.921 322.889 666.746 325.852 672.247C327.253 674.848 327.589 677.975 327.31 681.136C327.029 684.312 326.114 687.678 324.843 690.904C322.317 697.318 318.243 703.535 314.357 706.952C312.786 708.333 311.022 708.994 309.174 708.941C307.558 708.895 306.011 708.306 304.589 707.409H243.911C242.474 710.231 240.617 712.77 238.417 714.705C234.699 717.973 230.218 717.055 226.399 714.595C223.931 713.005 221.524 710.664 219.353 707.952C216.219 709.659 212.557 711.128 208.515 712.373C192.54 717.293 170.022 718.893 148.724 717.329C127.491 715.769 107.028 711.033 95.3703 702.939C80.0534 692.304 73.5727 678.423 73.0366 663.335C72.5051 648.377 77.8156 632.404 85.6914 617.364C91.4019 606.458 102.784 592.976 114.262 580.71C124.274 570.012 134.486 560.106 141.331 553.468C142.147 552.676 142.915 551.931 143.629 551.237C143.961 546.082 145.817 540.788 149.95 535.709C150.382 534.597 151.231 533.651 152.127 532.87C153.192 531.941 154.57 531.035 156.135 530.162C159.273 528.412 163.394 526.672 167.849 525.086C176.756 521.915 187.277 519.265 194.525 518.388C195.042 518.326 195.562 518.492 195.956 518.847ZM217.058 704.821C216.704 704.295 216.359 703.76 216.023 703.218C215.941 703.085 215.859 702.951 215.778 702.817C213.357 698.823 211.455 694.452 210.519 690.449C210.379 689.849 210.258 689.251 210.161 688.657C209.827 686.617 209.766 684.634 210.103 682.851C210.148 682.612 210.201 682.375 210.261 682.142C210.784 680.084 211.893 678.31 213.854 677.183C220.061 673.617 225.597 672.07 230.451 672.52C230.084 669.914 229.373 667.081 228.237 664.853C227.488 663.385 226.621 662.309 225.669 661.681C224.77 661.088 223.693 660.821 222.289 661.137C221.232 661.375 219.941 661.957 218.399 663.073C218.04 663.333 217.688 663.588 217.34 663.839C212.289 667.489 208.398 670.301 205.559 673.537C202.627 676.88 200.829 680.681 200.346 686.404C199.935 691.281 200.426 696.25 201.86 700.323C203.205 704.144 205.311 707.004 208.119 708.449C211.48 707.381 214.482 706.169 217.058 704.821ZM203.427 709.788C201.134 707.675 199.476 704.812 198.365 701.657C196.706 696.946 196.189 691.388 196.638 686.065C197.191 679.5 199.324 674.898 202.811 670.923C205.945 667.349 210.181 664.29 215.089 660.747C215.215 660.656 215.341 660.565 215.468 660.473L152.927 653.475C151.905 653.361 151.165 652.405 151.275 651.341C151.385 650.276 152.302 649.506 153.324 649.621L216.113 656.646C214.563 654.758 213.135 652.495 211.819 650.02C209.182 645.061 206.85 638.965 204.84 632.578C201.026 620.46 198.305 607.074 196.875 597.894C188.135 596.738 178.919 593.324 171.832 590.176C168.077 588.508 164.884 586.899 162.628 585.705C161.499 585.108 160.604 584.615 159.988 584.269C159.68 584.096 159.442 583.961 159.28 583.867C159.233 583.84 159.193 583.817 159.159 583.797C159.134 583.782 159.112 583.77 159.094 583.759L159.045 583.731L159.032 583.723L159.028 583.721C159.028 583.721 159.026 583.72 159.943 582.033C158.707 583.482 158.707 583.482 158.706 583.481L158.69 583.466L158.652 583.431C158.62 583.4 158.575 583.357 158.516 583.301C158.4 583.189 158.233 583.027 158.023 582.816C157.604 582.396 157.01 581.782 156.302 580.999C154.887 579.434 153.002 577.179 151.119 574.413C147.931 569.728 144.632 563.408 143.783 556.387C136.936 563.028 126.834 572.831 116.928 583.416C105.874 595.229 95.2212 607.855 89.589 618.05C93.8967 622.981 101.712 628.732 110.888 632.668C120.685 636.87 131.711 638.867 141.395 635.889C142.381 635.585 143.416 636.172 143.707 637.199C143.998 638.225 143.435 639.303 142.449 639.607C131.64 642.931 119.688 640.635 109.47 636.252C100.488 632.399 92.5957 626.826 87.7214 621.636C80.7078 635.632 76.2872 649.987 76.7564 663.192C77.2481 677.027 83.1068 689.765 97.4351 699.713C108.25 707.222 127.89 711.912 148.985 713.462C168.243 714.876 188.346 713.648 203.427 709.788ZM159.943 582.033L158.706 583.481C158.804 583.572 158.912 583.652 159.026 583.72L159.943 582.033ZM161.038 580.449C161.052 580.457 161.066 580.466 161.082 580.475C161.233 580.562 161.459 580.691 161.755 580.857C162.346 581.189 163.214 581.668 164.313 582.249C166.512 583.412 169.628 584.983 173.292 586.61C180.653 589.88 190.084 593.314 198.677 594.206C205.091 594.871 210.72 594.087 214.71 591.13L230.245 574.951C229.08 573.024 227.25 570.865 224.905 568.576C222.088 565.826 218.643 562.995 214.994 560.274C207.696 554.831 199.703 549.911 194.584 547.053C193.997 546.726 193.623 546.096 193.603 545.403L192.941 522.517C186.142 523.559 176.969 525.936 169.053 528.754C164.691 530.307 160.781 531.969 157.892 533.579C156.445 534.386 155.311 535.15 154.517 535.842C153.676 536.575 153.429 537.047 153.383 537.216C153.309 537.492 153.178 537.747 152.998 537.963C149.027 542.737 147.465 547.58 147.309 552.187C147.309 552.192 147.309 552.196 147.309 552.201C147.302 552.389 147.299 552.576 147.297 552.763C147.233 560.034 150.602 566.948 154.156 572.171C155.917 574.758 157.685 576.874 159.012 578.341C159.674 579.074 160.224 579.642 160.605 580.023C160.793 580.212 160.94 580.355 161.038 580.449ZM232.407 578.183L242.83 591.752C243.578 609.596 245.777 636.39 249.993 659.623C252.125 671.368 254.788 682.289 258.076 690.705C259.719 694.912 261.546 698.564 263.588 701.395C264.14 702.161 264.716 702.876 265.315 703.532H256.16C253.706 700.007 250.703 693.696 247.412 685.509C243.906 676.787 240.15 666.14 236.458 654.924C229.245 633.008 222.308 609.012 218.007 593.179L232.407 578.183ZM214.8 595.61C210.69 597.855 205.766 598.508 200.704 598.25C202.148 607.24 204.77 619.91 208.377 631.37C210.349 637.636 212.596 643.479 215.075 648.143C217.416 652.545 219.839 655.656 222.239 657.212C224.283 656.922 226.107 657.381 227.661 658.406C229.345 659.517 230.596 661.214 231.524 663.035C233.136 666.196 233.971 670.119 234.304 673.347C236.454 674.092 238.376 675.277 240.082 676.834C237.723 670.407 235.313 663.401 232.937 656.181C225.902 634.808 219.135 611.484 214.8 595.61ZM247.303 694.854C247.145 697.795 246.53 700.763 245.562 703.532H251.695C250.301 701.178 248.828 698.236 247.303 694.854ZM271.607 703.532H292.893C287.368 699.94 282.646 694.23 278.779 688.032C272.299 677.647 267.813 665.262 265.624 656.907C263.838 653.652 262.49 648.414 261.434 642.307C260.338 635.97 259.515 628.433 258.906 620.627C257.828 606.82 257.41 592.066 257.346 581.413C254.579 583.648 252.046 585.698 250.055 587.526C248.212 589.219 247.06 590.527 246.544 591.456C247.281 609.182 249.468 635.854 253.651 658.903C255.764 670.546 258.372 681.177 261.523 689.244C263.1 693.278 264.784 696.598 266.565 699.067C268.263 701.422 269.955 702.874 271.607 703.532ZM244.537 587.768C245.392 586.72 246.459 585.66 247.593 584.619C249.705 582.679 252.364 580.531 255.127 578.299L255.163 578.27L255.167 578.267L255.171 578.264L255.173 578.262L255.178 578.258C256.125 577.493 257.086 576.717 258.051 575.928C261.858 572.818 265.647 569.583 268.596 566.377C271.598 563.112 273.457 560.16 273.839 557.646C273.864 557.487 273.907 557.332 273.968 557.184C275.776 552.801 276.04 549.225 275.45 546.242C274.857 543.243 273.364 540.662 271.371 538.346C269.368 536.017 266.917 534.02 264.486 532.174C263.958 531.773 263.423 531.374 262.892 530.978C261.819 530.177 260.761 529.388 259.8 528.614C258.115 531.899 256.182 534.93 253.971 537.569C250.507 557.822 240.966 570.525 235.194 575.605L244.537 587.768ZM261.06 578.396C261.056 589.08 261.442 605.278 262.616 620.313C263.22 628.055 264.031 635.455 265.097 641.62C265.221 642.336 265.348 643.032 265.477 643.708C265.857 641.942 266.418 640.341 267.144 638.894C269.35 634.501 272.957 631.791 277.054 630.257C284.027 627.648 292.646 628.347 299.305 629.94C298.633 626.588 297.995 623.208 297.355 619.823C295.607 610.574 293.853 601.292 291.405 592.461C288.116 580.591 283.648 569.86 276.496 561.622C275.35 564.201 273.445 566.708 271.284 569.058C268.332 572.268 264.653 575.442 261.06 578.396ZM300.174 634.157C293.666 632.347 284.922 631.432 278.313 633.905C274.893 635.186 272.126 637.339 270.442 640.691C268.753 644.056 268.031 648.876 269.175 655.731C271.277 663.814 275.645 675.894 281.9 685.92C286.893 693.921 292.839 700.227 299.519 702.558C298.577 701.34 297.686 700.003 296.859 698.597C294.92 695.299 293.262 691.501 292.079 687.698C290.567 686.93 288.797 685.346 287.066 682.875C284.881 679.755 282.632 675.05 280.911 668.212C279.953 664.409 280.477 661.123 282.092 658.404C283.667 655.751 286.177 653.809 288.928 652.391C293.528 650.019 299.21 648.902 303.732 648.527C302.371 643.927 301.222 639.097 300.174 634.157ZM304.924 652.326C300.571 652.596 294.92 653.627 290.58 655.865C288.184 657.1 286.336 658.627 285.258 660.443C284.218 662.194 283.793 664.377 284.511 667.229C286.14 673.699 288.215 677.938 290.074 680.591C290.235 680.821 290.393 681.037 290.549 681.242C290.189 678.962 290.05 676.755 290.196 674.742C290.455 671.164 291.665 667.741 294.654 666.023C299.702 663.123 304.305 661.558 308.458 661.317C307.131 658.467 305.967 655.456 304.924 652.326ZM296.453 669.417C295.077 670.208 294.128 672.002 293.908 675.034C293.692 678.018 294.233 681.766 295.37 685.672C296.477 689.473 298.115 693.309 300.034 696.572C301.969 699.864 304.109 702.434 306.161 703.857C307.33 704.668 308.375 705.04 309.277 705.066C310.136 705.091 311.024 704.808 311.955 703.989C315.269 701.077 319.036 695.435 321.399 689.433C322.573 686.452 323.365 683.47 323.603 680.781C323.842 678.077 323.51 675.822 322.606 674.144C319.999 669.304 316.68 666.409 312.605 665.488C310.798 665.079 308.766 665.041 306.49 665.451C306.023 665.535 305.545 665.638 305.057 665.761C303.507 666.15 301.852 666.736 300.084 667.541C298.923 668.07 297.713 668.693 296.453 669.417ZM213.855 683.149C214.184 681.903 214.812 681.06 215.653 680.577C222.544 676.618 227.943 675.665 232.121 676.724C236.047 677.719 239.265 680.586 241.806 685.304C244.58 690.454 244.04 698.207 241.087 704.634C239.769 707.501 238.02 709.98 236.016 711.743C234.081 713.443 231.542 713.35 228.357 711.298C225.977 709.764 223.523 707.279 221.305 704.293C221.303 704.29 221.301 704.287 221.299 704.285C220.562 703.293 219.858 702.254 219.195 701.187C219.181 701.164 219.166 701.141 219.152 701.118C216.806 697.327 214.991 693.188 214.136 689.532C214.015 689.016 213.915 688.515 213.835 688.033C213.834 688.024 213.832 688.015 213.831 688.006C213.498 685.973 213.533 684.368 213.855 683.149ZM134.959 589.291C135.602 589.614 136.011 590.292 136.011 591.036V597.67L145.725 599.186C146.596 599.322 147.256 600.075 147.307 600.991C147.358 601.906 146.786 602.734 145.935 602.974L136.011 605.771V615.94C136.011 616.711 135.573 617.408 134.895 617.716C134.217 618.025 133.428 617.886 132.885 617.362L124.293 609.075L110.332 613.011C109.48 613.251 108.583 612.835 108.185 612.014C107.786 611.193 107.997 610.194 108.688 609.622L117.395 602.42L112.352 597.557C111.753 596.979 111.586 596.062 111.94 595.295C112.293 594.528 113.085 594.092 113.893 594.218L125.181 595.979L132.992 589.518C133.552 589.056 134.316 588.967 134.959 589.291ZM121.195 599.277L119.309 598.983L120.344 599.981L121.195 599.277ZM123.107 602.646L126.23 600.063L132.289 601.009V602.805L125.311 604.772L123.107 602.646ZM120.158 605.085L118.069 606.814L121.072 605.967L120.158 605.085ZM128.533 607.88L132.289 611.503V606.821L128.533 607.88ZM136.011 601.755L136.389 601.649L136.011 601.59V601.755ZM132.289 597.089L130.216 596.765L132.289 595.051V597.089Z" fill="#14346A"/>
<path d="M268.87 474.445C259.793 475.495 238.915 474.445 228.023 461.84C226.51 472.344 217.735 491.461 194.74 483.898C193.808 490.496 193.647 499.747 195.464 509.107C198.563 525.08 207.419 544.523 228.023 548.496C238.38 550.494 246.275 543.59 252.228 536.695C254.938 533.556 257.246 529.766 259.2 525.571C266.499 509.906 268.87 488.593 268.87 474.445Z" fill="#FFF9EF"/>
<path d="M194.74 483.898C190.201 484.423 181.124 484.528 181.124 493.352C181.124 502.175 190.684 508.582 195.464 509.107C193.647 499.747 193.808 490.496 194.74 483.898Z" fill="#FFF9EF"/>
<path d="M228.023 548.496C207.419 544.523 198.563 525.08 195.464 509.107L194.74 520.314L195.464 545.345C205.812 551.122 227.72 565.197 232.561 575.281C237.604 571.615 248.597 558.765 252.228 536.695C246.275 543.59 238.38 550.494 228.023 548.496Z" fill="#FFF9EF"/>
<path d="M219.827 705.471C225.25 712.775 232.278 717.566 237.216 713.224C239.461 711.251 241.357 708.535 242.765 705.471C245.875 698.706 246.602 690.246 243.429 684.356C240.715 679.317 237.129 675.999 232.561 674.841C227.754 673.622 221.861 674.797 214.754 678.881C208.51 682.468 212.836 696.057 219.827 705.471Z" fill="#FFF9EF"/>
<path d="M311.174 663.3C306.798 662.87 301.617 664.237 295.554 667.721C291.188 670.229 291.237 678.154 293.589 686.235C295.89 694.137 300.394 702.188 305.13 705.471C307.853 707.359 310.654 707.671 313.156 705.471C320.356 699.142 328.839 681.754 324.229 673.196C321.096 667.379 316.8 663.854 311.174 663.3Z" fill="#FFF9EF"/>
<path d="M295.554 667.721C301.796 664.134 307.103 662.791 311.559 663.343C309.457 659.375 307.725 654.996 306.238 650.328C297 650.58 279.361 654.412 282.711 667.721C286.061 681.029 291.359 685.609 293.589 686.235C291.237 678.154 291.188 670.229 295.554 667.721Z" fill="#14346A"/>
<path d="M219.827 705.471C212.836 696.057 208.51 682.468 214.754 678.881C221.861 674.797 227.754 673.622 232.561 674.841C232.139 668.268 229.391 657.556 221.896 659.243C220.537 659.549 219.022 660.262 217.337 661.482C206.356 669.429 199.528 673.946 198.492 686.235C197.633 696.434 200.508 707.291 207.987 710.514C212.556 709.107 216.565 707.427 219.827 705.471Z" fill="#14346A"/>
<path d="M228.023 461.84C238.915 474.445 259.793 475.495 268.87 474.445C305.179 463.101 305.692 450.368 293.589 435.662C283.489 423.39 268.87 418.777 268.87 418.777C268.87 418.777 217.337 407.299 207.987 441.703L207.979 441.706C204.94 442.761 193.525 446.723 188.688 455.538C183.847 464.361 190.705 478.121 194.74 483.898C217.735 491.461 226.51 472.344 228.023 461.84Z" fill="#14346A"/>
<path fill-rule="evenodd" clip-rule="evenodd" d="M232.561 575.281L215.92 592.612C224.48 624.275 244.328 691.173 255.236 705.471H271.285C253.441 699.268 246.103 626.597 244.664 591.037L232.561 575.281Z" fill="#14346A"/>
<path d="M125.706 598.022L120.251 602.534L124.802 606.924L134.15 604.289V599.34L125.706 598.022Z" fill="#14346A"/>
<path d="M125.706 598.022L134.15 599.34V591.037L125.706 598.022Z" fill="#14346A"/>
<path d="M120.251 602.534L125.706 598.022L113.617 596.135L120.251 602.534Z" fill="#14346A"/>
<path d="M124.802 606.924L120.251 602.534L109.846 611.14L124.802 606.924Z" fill="#14346A"/>
<path d="M134.15 604.289L124.802 606.924L134.15 615.941V604.289Z" fill="#14346A"/>
<path d="M134.15 599.34V604.289L145.449 601.103L134.15 599.34Z" fill="#14346A"/>
<path fill-rule="evenodd" clip-rule="evenodd" d="M242.116 419.267C228.276 420.677 214.126 426.23 209.778 442.23C209.61 442.848 209.16 443.339 208.576 443.541L208.567 443.544C207.065 444.066 203.59 445.274 199.912 447.405C196.21 449.551 192.481 452.531 190.304 456.499C188.276 460.195 188.596 465.174 190.159 470.271C191.607 474.996 194.007 479.432 195.889 482.238C206.464 485.534 213.517 482.779 218.162 478.232C223.025 473.471 225.466 466.521 226.182 461.553C226.289 460.811 226.797 460.2 227.487 459.984C228.177 459.768 228.924 459.986 229.406 460.543C234.483 466.419 241.992 469.703 249.514 471.367C256.922 473.006 264.12 473.023 268.499 472.537C277.418 469.741 284.053 466.888 288.814 463.993C293.615 461.074 296.373 458.195 297.726 455.433C300.309 450.16 298.179 444.217 292.176 436.924C287.33 431.036 281.368 426.952 276.577 424.334C274.188 423.028 272.109 422.097 270.633 421.494C269.895 421.192 269.309 420.974 268.913 420.832C268.715 420.761 268.564 420.709 268.466 420.676C268.441 420.668 268.42 420.661 268.402 420.655L268.352 420.644C268.261 420.625 268.122 420.596 267.939 420.56C267.574 420.487 267.031 420.383 266.333 420.263C264.937 420.022 262.925 419.713 260.48 419.449C255.579 418.919 248.978 418.569 242.116 419.267ZM268.87 418.777C269.41 416.922 269.41 416.922 269.411 416.922L269.416 416.924L269.428 416.927L269.468 416.94C269.501 416.951 269.548 416.966 269.608 416.987C269.728 417.027 269.901 417.086 270.123 417.166C270.565 417.324 271.201 417.562 271.992 417.885C273.572 418.53 275.778 419.519 278.307 420.901C283.35 423.657 289.748 428.016 295.002 434.401C301.102 441.812 304.768 449.588 301.042 457.195C299.241 460.872 295.819 464.223 290.691 467.341C285.8 470.314 279.232 473.152 270.723 475.884C270.573 489.738 268.242 509.714 261.487 525.064C262.462 525.886 263.62 526.75 264.915 527.717C265.478 528.137 266.067 528.577 266.679 529.041C269.15 530.918 271.866 533.112 274.144 535.759C276.432 538.419 278.333 541.6 279.096 545.461C279.8 549.017 279.508 552.999 277.867 557.484C286.407 566.559 291.429 578.567 294.982 591.387C297.474 600.378 299.283 609.949 301.05 619.291C301.878 623.67 302.696 627.999 303.571 632.194C304.853 638.343 306.262 644.245 308.005 649.717C309.36 653.974 310.913 657.951 312.753 661.568C312.968 661.608 313.182 661.652 313.395 661.7C318.8 662.922 322.889 666.746 325.852 672.247C327.253 674.848 327.589 677.976 327.31 681.137C327.029 684.313 326.114 687.678 324.843 690.904C322.317 697.318 318.243 703.536 314.357 706.952C312.786 708.333 311.022 708.995 309.174 708.941C307.558 708.895 306.011 708.306 304.589 707.409H243.911C242.474 710.231 240.617 712.771 238.417 714.705C234.699 717.974 230.218 717.055 226.399 714.595C223.931 713.005 221.524 710.665 219.353 707.952C216.219 709.659 212.557 711.128 208.515 712.373C192.54 717.293 170.022 718.894 148.724 717.329C127.491 715.77 107.028 711.033 95.3703 702.939C80.0534 692.305 73.5727 678.423 73.0366 663.335C72.5051 648.378 77.8156 632.404 85.6914 617.364C91.4019 606.458 102.784 592.976 114.262 580.711C124.274 570.012 134.486 560.107 141.331 553.468C142.147 552.677 142.915 551.932 143.629 551.237C143.961 546.087 145.814 540.792 149.95 535.71C150.382 534.597 151.231 533.651 152.127 532.87C153.192 531.941 154.57 531.035 156.135 530.162C159.273 528.412 163.394 526.672 167.849 525.086C176.144 522.133 185.838 519.632 192.985 518.594L193.497 510.672C190.895 509.92 187.834 508.173 185.263 505.789C182.053 502.811 179.263 498.519 179.263 493.351C179.263 490.777 179.933 488.689 181.133 487.05C182.316 485.435 183.908 484.4 185.532 483.716C187.454 482.907 189.613 482.525 191.476 482.295C189.732 479.354 187.86 475.52 186.612 471.45C184.947 466.017 184.259 459.704 187.072 454.576C189.731 449.73 194.128 446.321 198.102 444.018C201.454 442.075 204.634 440.847 206.479 440.187C211.787 422.558 227.748 416.835 241.754 415.409C248.943 414.677 255.81 415.046 260.864 415.593C263.396 415.867 265.483 416.186 266.942 416.438C267.672 416.564 268.245 416.674 268.639 416.752C268.836 416.791 268.988 416.823 269.092 416.845L269.213 416.871L269.245 416.878L269.258 416.881C269.259 416.881 269.259 416.881 268.87 418.777ZM192.6 486.07C190.707 486.275 188.696 486.565 186.927 487.31C185.714 487.821 184.753 488.499 184.093 489.401C183.449 490.28 182.985 491.514 182.985 493.351C182.985 497.007 184.974 500.33 187.739 502.893C189.503 504.529 191.444 505.726 193.113 506.438C191.986 499.006 192.009 491.814 192.6 486.07ZM192.941 522.517C186.142 523.559 176.969 525.936 169.053 528.754C164.691 530.307 160.781 531.969 157.892 533.58C156.445 534.387 155.311 535.15 154.517 535.842C153.676 536.575 153.429 537.047 153.383 537.217C153.309 537.492 153.178 537.747 152.998 537.964C149.031 542.732 147.466 547.573 147.309 552.184C147.309 552.186 147.309 552.189 147.309 552.192C147.303 552.383 147.299 552.573 147.297 552.763C147.255 557.595 148.728 562.282 150.79 566.446C152.849 570.604 155.452 574.149 157.555 576.665C158.604 577.92 159.52 578.909 160.17 579.581C160.495 579.917 160.753 580.172 160.927 580.342C160.969 580.383 161.006 580.419 161.038 580.45C161.052 580.458 161.066 580.466 161.082 580.475C161.233 580.562 161.459 580.691 161.755 580.857C162.346 581.189 163.214 581.668 164.313 582.249C166.512 583.412 169.628 584.983 173.292 586.61C180.653 589.88 190.084 593.314 198.677 594.206C205.091 594.872 210.72 594.087 214.71 591.131L230.245 574.952C229.08 573.024 227.25 570.865 224.905 568.576C222.088 565.826 218.643 562.995 214.994 560.274C207.696 554.831 199.703 549.911 194.584 547.053C193.997 546.726 193.623 546.097 193.603 545.403L192.941 522.517ZM232.407 578.183L242.83 591.753C243.578 609.596 245.777 636.391 249.993 659.623C252.125 671.368 254.788 682.29 258.076 690.705C259.719 694.912 261.546 698.564 263.588 701.396C264.14 702.161 264.716 702.877 265.315 703.533H256.16C253.706 700.008 250.703 693.697 247.412 685.509C243.906 676.787 240.15 666.14 236.458 654.925C229.245 633.008 222.308 609.012 218.007 593.179L232.407 578.183ZM214.8 595.61C210.69 597.855 205.766 598.509 200.704 598.25C202.148 607.24 204.77 619.911 208.377 631.371C210.349 637.637 212.596 643.479 215.075 648.143C217.416 652.545 219.839 655.656 222.239 657.213C224.283 656.922 226.107 657.382 227.661 658.406C229.345 659.518 230.596 661.215 231.524 663.035C233.136 666.196 233.971 670.119 234.304 673.347C236.454 674.092 238.376 675.277 240.082 676.834C237.723 670.407 235.313 663.401 232.937 656.182C225.902 634.808 219.135 611.484 214.8 595.61ZM247.303 694.854C247.145 697.795 246.53 700.764 245.562 703.533H251.695C250.301 701.178 248.828 698.237 247.303 694.854ZM230.451 672.521C230.084 669.915 229.373 667.081 228.237 664.853C227.488 663.385 226.621 662.309 225.669 661.681C224.77 661.088 223.693 660.821 222.289 661.137C221.232 661.375 219.941 661.957 218.399 663.074C218.04 663.333 217.688 663.588 217.34 663.839C212.289 667.489 208.398 670.301 205.559 673.538C202.627 676.88 200.829 680.681 200.346 686.405C199.935 691.281 200.426 696.25 201.86 700.323C203.205 704.144 205.311 707.004 208.119 708.449C211.48 707.381 214.482 706.169 217.058 704.821C216.704 704.296 216.359 703.761 216.023 703.218C216.023 703.218 216.024 703.218 216.023 703.218C215.941 703.085 215.859 702.951 215.778 702.817C213.357 698.824 211.455 694.452 210.519 690.45C210.379 689.85 210.258 689.251 210.161 688.658C209.827 686.617 209.766 684.634 210.103 682.851C210.148 682.612 210.201 682.375 210.261 682.141C210.784 680.084 211.893 678.31 213.854 677.183C220.061 673.617 225.597 672.07 230.451 672.521ZM213.855 683.15C214.184 681.903 214.812 681.061 215.653 680.578C222.544 676.618 227.943 675.665 232.121 676.724C236.047 677.719 239.265 680.586 241.806 685.304C244.58 690.454 244.04 698.208 241.087 704.634C239.769 707.502 238.02 709.981 236.016 711.743C234.081 713.444 231.542 713.35 228.357 711.298C225.977 709.764 223.523 707.279 221.305 704.293C221.303 704.29 221.301 704.288 221.299 704.285C220.562 703.293 219.858 702.254 219.195 701.187C219.181 701.164 219.166 701.141 219.152 701.118C216.806 697.327 214.991 693.188 214.136 689.532C214.015 689.016 213.915 688.516 213.835 688.033C213.551 686.31 213.527 684.809 213.755 683.599C213.785 683.443 213.818 683.294 213.855 683.15ZM203.427 709.788C201.134 707.675 199.476 704.812 198.365 701.658C196.706 696.947 196.189 691.388 196.638 686.066C197.191 679.5 199.324 674.898 202.811 670.923C205.945 667.349 210.181 664.291 215.089 660.747C215.215 660.656 215.341 660.565 215.468 660.473L152.927 653.475C151.905 653.361 151.165 652.405 151.275 651.341C151.385 650.277 152.302 649.506 153.324 649.621L216.113 656.646C214.563 654.759 213.135 652.495 211.819 650.021C209.182 645.061 206.85 638.965 204.84 632.578C201.026 620.46 198.305 607.074 196.875 597.894C188.135 596.738 178.919 593.324 171.832 590.176C168.077 588.508 164.884 586.899 162.628 585.706C161.499 585.109 160.604 584.615 159.988 584.27C159.68 584.097 159.442 583.961 159.28 583.867C159.199 583.821 159.137 583.785 159.094 583.76L159.045 583.731L159.028 583.721C159.028 583.721 159.026 583.72 159.943 582.033C158.707 583.482 158.706 583.482 158.706 583.481L158.704 583.479L158.698 583.474L158.68 583.457L158.616 583.396C158.561 583.344 158.483 583.27 158.383 583.173C158.185 582.979 157.9 582.697 157.548 582.333C156.843 581.604 155.864 580.546 154.747 579.21C152.521 576.547 149.721 572.743 147.482 568.223C145.734 564.696 144.302 560.677 143.783 556.387C136.936 563.029 126.834 572.831 116.928 583.416C105.874 595.229 95.2212 607.855 89.589 618.05C93.8967 622.981 101.712 628.732 110.888 632.668C120.685 636.87 131.711 638.867 141.395 635.889C142.381 635.586 143.416 636.172 143.707 637.199C143.998 638.226 143.435 639.304 142.449 639.607C131.64 642.931 119.688 640.636 109.47 636.252C100.488 632.399 92.5957 626.826 87.7214 621.636C80.7078 635.632 76.2872 649.987 76.7564 663.192C77.2481 677.027 83.1068 689.765 97.4351 699.714C108.25 707.223 127.89 711.913 148.985 713.462C168.243 714.877 188.346 713.649 203.427 709.788ZM159.943 582.033L158.706 583.481C158.804 583.572 158.912 583.653 159.026 583.72L159.943 582.033ZM271.607 703.533H292.893C287.368 699.941 282.646 694.23 278.779 688.032C272.299 677.648 267.813 665.262 265.624 656.907C263.838 653.653 262.49 648.415 261.434 642.307C260.338 635.97 259.515 628.433 258.906 620.627C257.828 606.82 257.41 592.066 257.346 581.413C254.579 583.649 252.046 585.698 250.055 587.527C248.212 589.219 247.06 590.527 246.544 591.456C247.281 609.183 249.468 635.854 253.651 658.903C255.764 670.546 258.372 681.178 261.523 689.244C263.1 693.278 264.784 696.599 266.565 699.068C268.263 701.422 269.956 702.875 271.607 703.533ZM244.537 587.769C245.392 586.72 246.459 585.661 247.593 584.619C249.704 582.68 252.363 580.532 255.126 578.3L255.163 578.27C256.115 577.502 257.081 576.721 258.051 575.929C261.858 572.819 265.647 569.583 268.596 566.377C271.598 563.112 273.457 560.16 273.839 557.647C273.864 557.488 273.907 557.332 273.968 557.184C275.776 552.801 276.04 549.225 275.45 546.243C274.857 543.243 273.364 540.663 271.371 538.346C269.368 536.017 266.917 534.02 264.486 532.174C263.958 531.773 263.423 531.374 262.892 530.978C261.819 530.178 260.761 529.388 259.8 528.614C258.115 531.899 256.182 534.93 253.971 537.569C250.507 557.822 240.966 570.526 235.194 575.605L244.537 587.769ZM233.082 572.385C237.631 568.255 245.189 558.409 249.078 542.76C243.555 547.931 236.478 552.098 227.684 550.402C210.647 547.117 201.349 533.836 196.605 520.451L197.292 544.171C202.524 547.145 210.145 551.888 217.161 557.122C220.888 559.902 224.474 562.842 227.451 565.748C229.702 567.945 231.672 570.188 233.082 572.385ZM261.06 578.396C261.056 589.08 261.442 605.278 262.616 620.313C263.22 628.056 264.031 635.455 265.097 641.62C265.221 642.337 265.348 643.033 265.477 643.708C265.857 641.942 266.418 640.341 267.144 638.895C269.35 634.501 272.957 631.791 277.054 630.257C284.027 627.648 292.646 628.347 299.305 629.94C298.633 626.588 297.995 623.208 297.355 619.824C295.607 610.574 293.853 601.293 291.405 592.462C288.116 580.591 283.648 569.86 276.496 561.622C275.35 564.201 273.445 566.709 271.284 569.058C268.332 572.268 264.653 575.442 261.06 578.396ZM300.174 634.158C293.666 632.347 284.922 631.432 278.313 633.906C274.893 635.186 272.126 637.339 270.442 640.691C268.753 644.056 268.031 648.877 269.175 655.731C271.277 663.814 275.645 675.894 281.9 685.92C286.893 693.922 292.839 700.227 299.519 702.558C298.577 701.34 297.686 700.003 296.859 698.597C294.92 695.299 293.262 691.501 292.079 687.698C290.567 686.93 288.797 685.346 287.066 682.876C284.881 679.755 282.632 675.05 280.911 668.212C279.953 664.41 280.477 661.123 282.092 658.405C283.667 655.752 286.177 653.809 288.928 652.391C293.528 650.02 299.21 648.902 303.732 648.527C302.371 643.927 301.222 639.098 300.174 634.158ZM304.924 652.327C300.571 652.596 294.92 653.627 290.58 655.865C288.184 657.1 286.336 658.627 285.258 660.443C284.218 662.194 283.793 664.377 284.511 667.229C286.14 673.699 288.215 677.938 290.074 680.591C290.235 680.821 290.393 681.037 290.549 681.242C290.189 678.962 290.05 676.755 290.196 674.742C290.455 671.164 291.665 667.741 294.654 666.023C299.702 663.123 304.305 661.558 308.458 661.317C307.131 658.467 305.967 655.456 304.924 652.327ZM296.453 669.418C295.077 670.208 294.128 672.002 293.908 675.034C293.692 678.018 294.233 681.767 295.37 685.673C296.477 689.473 298.115 693.309 300.034 696.573C301.969 699.864 304.109 702.435 306.161 703.857C307.33 704.668 308.375 705.04 309.277 705.066C310.136 705.091 311.024 704.809 311.955 703.99C315.269 701.077 319.036 695.435 321.399 689.433C322.573 686.452 323.365 683.47 323.603 680.781C323.842 678.077 323.51 675.822 322.606 674.144C319.999 669.304 316.68 666.409 312.605 665.488C311.056 665.138 309.342 665.06 307.451 665.303C304.298 665.708 300.652 667.005 296.453 669.418ZM196.311 486.386C195.665 492.57 195.713 500.61 197.288 508.723C200.343 524.469 208.92 542.841 228.361 546.59C237.657 548.383 244.922 542.257 250.844 535.398C253.411 532.426 255.628 528.799 257.526 524.725C264.298 510.19 266.765 490.509 266.992 476.56C262.261 476.883 255.59 476.674 248.74 475.159C241.905 473.647 234.722 470.796 229.144 465.707C227.861 470.727 225.228 476.635 220.712 481.056C215.274 486.38 207.296 489.354 196.311 486.386ZM268.87 418.777L269.258 416.881C269.308 416.892 269.361 416.906 269.411 416.922L268.87 418.777ZM134.959 589.291C135.602 589.614 136.011 590.293 136.011 591.037V597.67L145.725 599.186C146.596 599.322 147.256 600.075 147.307 600.991C147.358 601.907 146.786 602.734 145.935 602.974L136.011 605.772V615.941C136.011 616.711 135.573 617.408 134.895 617.717C134.217 618.025 133.428 617.886 132.885 617.363L124.293 609.075L110.332 613.011C109.48 613.251 108.583 612.835 108.185 612.014C107.786 611.193 107.997 610.194 108.688 609.622L117.395 602.421L112.352 597.557C111.753 596.979 111.586 596.062 111.94 595.295C112.293 594.529 113.085 594.092 113.893 594.218L125.181 595.98L132.992 589.519C133.552 589.056 134.316 588.968 134.959 589.291ZM121.195 599.277L119.309 598.983L120.344 599.981L121.195 599.277ZM123.107 602.646L126.23 600.063L132.289 601.009V602.805L125.311 604.772L123.107 602.646ZM120.158 605.086L118.068 606.814L121.072 605.967L120.158 605.086ZM128.533 607.88L132.289 611.503V606.821L128.533 607.88ZM136.011 601.756L136.389 601.649L136.011 601.59V601.756ZM132.289 597.089L130.216 596.766L132.289 595.051V597.089Z" fill="#14346A"/>
<path fill-rule="evenodd" clip-rule="evenodd" d="M237.64 488.656C238.578 489.094 238.998 490.241 238.577 491.218L235.553 498.244C235.132 499.221 234.031 499.658 233.093 499.22C232.155 498.782 231.736 497.635 232.156 496.658L235.181 489.632C235.601 488.655 236.702 488.218 237.64 488.656ZM257.277 490.642C258.19 491.133 258.547 492.303 258.075 493.254L254.585 500.28C254.113 501.231 252.99 501.603 252.077 501.111C251.164 500.619 250.806 499.45 251.279 498.499L254.768 491.473C255.241 490.522 256.364 490.15 257.277 490.642ZM236.532 512.762C236.893 511.76 237.966 511.252 238.928 511.628L246.373 514.535C247.336 514.911 247.823 516.028 247.462 517.031C247.101 518.033 246.029 518.541 245.066 518.165L237.621 515.257C236.659 514.882 236.171 513.764 236.532 512.762ZM228.627 518.534C229.653 518.471 230.534 519.286 230.594 520.355C230.626 520.921 231.012 521.529 232.21 522.084C233.369 522.622 234.815 522.858 235.78 522.893C236.807 522.93 237.611 523.827 237.576 524.897C237.54 525.967 236.679 526.804 235.652 526.767C234.368 526.721 232.417 526.424 230.695 525.625C229.012 524.845 227.032 523.312 226.878 520.583C226.818 519.514 227.601 518.597 228.627 518.534Z" fill="#14346A"/>
<path d="M383.06 599.464C382.644 594.912 386.081 590.975 390.471 590.975H421.817C425.349 590.975 428.395 593.559 429.109 597.162L442.093 662.693L450.232 703.769C451.185 708.58 447.657 713.09 442.94 713.09H400.22C396.382 713.09 393.173 710.051 392.809 706.071L383.06 599.464Z" fill="#F5B195"/>
<path d="M392.366 599.464C391.95 594.912 395.387 590.975 399.777 590.975H421.817C425.349 590.975 428.395 593.559 429.109 597.162L442.093 662.693L450.232 703.769C451.185 708.58 447.657 713.09 442.94 713.09H409.526C405.688 713.09 402.479 710.051 402.115 706.071L392.366 599.464Z" fill="#F5B195"/>
<path d="M392.809 706.071C393.173 710.051 396.382 713.09 400.22 713.09H367.627C363.901 713.09 360.88 709.944 360.88 706.063C360.88 702.183 363.901 699.037 367.627 699.037H392.166L392.809 706.071Z" fill="#F5B195"/>
<path d="M468.829 527.01H316.232C311.093 527.01 306.926 531.35 306.926 536.702V653.002C306.926 658.354 311.093 662.693 316.232 662.693H388.842L383.06 599.464C382.644 594.912 386.081 590.975 390.471 590.975H399.777H421.817C425.349 590.975 428.395 593.559 429.109 597.162L442.093 662.693H468.829C473.969 662.693 478.135 658.354 478.135 653.002V536.702C478.135 531.35 473.969 527.01 468.829 527.01Z" fill="#F5B195"/>
<path d="M306.926 653.002V536.702C306.926 531.35 311.093 527.01 316.232 527.01H305.975C300.835 527.01 296.669 531.35 296.669 536.702V653.002C296.669 658.354 300.835 662.693 305.975 662.693H316.232C311.093 662.693 306.926 658.354 306.926 653.002Z" fill="#F5B195"/>
<path fill-rule="evenodd" clip-rule="evenodd" d="M294.809 536.702C294.809 530.279 299.808 525.072 305.976 525.072H468.83C474.997 525.072 479.997 530.279 479.997 536.702V653.001C479.997 659.424 474.997 664.631 468.83 664.631H444.378L452.055 703.378C453.247 709.391 448.837 715.028 442.941 715.028H367.628C362.874 715.028 359.02 711.014 359.02 706.063C359.02 701.112 362.874 697.098 367.628 697.098H390.12L387.151 664.631H305.976C299.808 664.631 294.809 659.424 294.809 653.001V536.702ZM307.909 660.755H305.976C301.864 660.755 298.531 657.283 298.531 653.001V536.702C298.531 532.42 301.864 528.949 305.976 528.949H307.909C306.141 531.006 305.066 533.723 305.066 536.702V653.001C305.066 655.98 306.141 658.697 307.909 660.755ZM316.233 660.755H386.796L381.208 599.647C380.688 593.957 384.984 589.037 390.472 589.037H421.818C426.233 589.037 430.04 592.267 430.932 596.77L443.61 660.755H468.83C472.941 660.755 476.275 657.283 476.275 653.001V536.702C476.275 532.42 472.941 528.949 468.83 528.949H316.233C312.121 528.949 308.788 532.42 308.788 536.702V653.001C308.788 657.283 312.121 660.755 316.233 660.755ZM392.333 592.913H390.472C387.179 592.913 384.601 595.866 384.914 599.28L394.663 705.887C394.936 708.872 397.342 711.151 400.221 711.151H402.081C401.084 709.767 400.431 708.091 400.263 706.255L390.514 599.647C390.284 597.133 390.995 594.769 392.333 592.913ZM409.527 711.151C406.648 711.151 404.242 708.872 403.969 705.887L394.22 599.28C393.907 595.866 396.485 592.913 399.778 592.913H421.818C424.467 592.913 426.751 594.852 427.287 597.553L448.41 704.161C449.125 707.769 446.479 711.151 442.941 711.151H409.527ZM392.775 711.151C391.778 709.767 391.125 708.091 390.957 706.255L390.474 700.975H367.628C364.929 700.975 362.742 703.253 362.742 706.063C362.742 708.873 364.929 711.151 367.628 711.151H392.775Z" fill="#14346A"/>
<path d="M313.155 705.471C310.653 707.671 307.852 707.359 305.129 705.471H271.283H255.235H242.764C241.388 708.466 239.545 711.129 237.366 713.09H348.317C350.373 713.09 352.039 711.354 352.039 709.213V702.914C352.039 700.772 350.373 699.037 348.317 699.037H318.521C316.799 701.658 314.938 703.904 313.155 705.471Z" fill="#F5B195"/>
<path fill-rule="evenodd" clip-rule="evenodd" d="M317.54 697.098H348.318C351.402 697.098 353.901 699.702 353.901 702.913V709.213C353.901 712.424 351.402 715.028 348.318 715.028H232.368L236.15 711.623C238.099 709.868 239.798 707.436 241.086 704.634C241.396 703.961 242.049 703.532 242.765 703.532H305.13C305.497 703.532 305.856 703.645 306.161 703.857C307.33 704.668 308.375 705.04 309.277 705.066C310.136 705.091 311.024 704.809 311.955 703.99C313.574 702.567 315.328 700.467 316.986 697.942L317.54 697.098ZM319.491 700.975C317.86 703.343 316.099 705.42 314.356 706.952C312.786 708.333 311.022 708.994 309.174 708.941C307.558 708.895 306.011 708.306 304.589 707.409H243.911C243.239 708.729 242.474 709.988 241.626 711.151H348.318C349.346 711.151 350.179 710.283 350.179 709.213V702.913C350.179 701.843 349.346 700.975 348.318 700.975H319.491Z" fill="#14346A"/>
</svg>
