<svg width="1359" height="788" viewBox="0 0 1359 788" fill="none" xmlns="http://www.w3.org/2000/svg">
<mask id="mask0_114_3" style="mask-type:luminance" maskUnits="userSpaceOnUse" x="0" y="0" width="1359" height="788">
<path d="M1359 0H0V788H1359V0Z" fill="white"/>
</mask>
<g mask="url(#mask0_114_3)">
<path d="M1359 0H0V788H1359V0Z" fill="#CFE1F4"/>
</g>
<mask id="mask1_114_3" style="mask-type:luminance" maskUnits="userSpaceOnUse" x="0" y="0" width="1359" height="788">
<path d="M1359 0H0V788H1359V0Z" fill="white"/>
</mask>
<g mask="url(#mask1_114_3)">
<path d="M-48.0186 743.872C-38.2791 696.198 17.3267 667.731 70.7807 662.215C124.235 656.699 178.821 667.534 232.955 667.534C377.915 667.436 514.607 580.657 562.059 458.517C577.235 419.413 583.916 377.649 598.752 338.347C613.588 299.144 638.729 260.828 679.613 242.211C738.389 215.321 812.002 236.006 871.345 266.048C930.688 296.091 986.18 335.885 1051.87 349.675C1138.16 367.799 1227.97 336.574 1293.99 286.438C1360.02 236.301 1406.68 168.829 1452.2 102.44" stroke="#F5B195" stroke-miterlimit="10"/>
<path d="M-51.3018 739.242C-40.543 691.765 14.8363 663.397 68.4035 657.684C91.6198 655.222 114.949 655.813 138.392 657.487C169.196 659.654 200 663.496 230.578 664.087C292.978 665.269 353.907 651.38 407.361 624.391C448.697 603.509 485.39 576.028 514.722 543.03C535.673 519.587 552.434 493.189 564.099 464.526C569.308 451.721 573.612 438.522 577.576 425.224C585.616 398.235 592.185 370.852 602.604 344.75C614.382 315.101 632.275 286.438 658.776 266.935C667.043 260.828 675.99 255.607 685.843 251.47C727.066 234.233 774.744 240.143 820.384 254.819C840.089 261.123 859.455 269.102 877.462 277.573C897.62 287.127 917.326 297.371 936.918 307.221C975.423 326.527 1013.59 344.356 1054.81 350.758C1081.65 354.994 1108.04 353.812 1134.31 348.788C1187.43 338.446 1239.75 310.866 1283.35 275.603C1295.24 265.95 1306.68 255.706 1317.78 245.166C1366.81 198.083 1407.81 143.711 1448.24 92.2944" stroke="#F5B195" stroke-miterlimit="10"/>
<path d="M-54.4736 734.613C-42.6956 687.431 12.4571 659.063 66.1376 653.153C89.3539 650.592 112.797 651.183 136.353 652.956C167.157 655.32 197.847 659.556 228.538 660.738C290.826 663.2 351.528 651.479 405.548 625.672C447.337 605.676 484.596 579.475 515.061 547.758C536.805 525.005 554.132 499.001 566.363 470.534C571.799 457.828 576.329 444.629 580.406 431.331C588.787 404.441 595.695 376.959 606.567 351.054C618.911 321.602 637.371 293.628 664.777 275.11C673.271 269.397 682.331 264.472 692.184 260.729C733.633 245.068 780.632 252.455 826.159 267.132C845.977 273.534 865.456 281.119 883.576 289.097C903.961 297.962 923.893 307.418 943.372 315.988C981.764 333.028 1018.8 348.099 1057.64 351.842C1082.78 354.304 1106.91 351.448 1131.03 344.947C1179.95 331.649 1229.67 301.508 1272.48 264.768C1284.25 254.622 1295.58 244.083 1306.68 233.248C1356.17 184.786 1400.22 130.808 1443.82 82.2474" stroke="#FDF3D6" stroke-miterlimit="10"/>
<path d="M-57.7578 729.885C-44.9606 682.999 9.85239 654.532 63.6462 648.524C86.8624 645.963 110.418 646.455 133.974 648.327C164.778 650.789 195.469 655.419 226.047 657.192C288.221 660.836 348.81 651.479 403.396 626.755C445.525 607.646 483.577 582.824 515.061 552.289C537.711 530.324 555.604 504.714 568.288 476.444C573.951 463.836 578.594 450.736 583.011 437.438C591.731 410.548 599.092 383.066 610.304 357.358C623.101 328.103 642.241 300.819 670.44 283.187C679.16 277.77 688.22 273.239 698.186 269.89C739.749 255.804 786.181 264.669 831.708 279.346C851.527 285.748 871.119 293.136 889.579 300.523C910.19 308.797 930.235 317.17 949.714 324.754C987.993 339.529 1024.12 351.842 1060.47 352.827C1084.03 353.516 1105.66 348.985 1127.63 341.105C1172.36 325.05 1219.48 292.249 1261.49 253.834C1273.04 243.295 1284.37 232.263 1295.58 221.132C1345.52 171.193 1392.75 117.707 1439.41 72.0034" stroke="#F5B195" stroke-miterlimit="10"/>
<path d="M-61.042 725.255C-47.2255 678.566 7.36101 650.198 61.268 643.993C84.5975 641.333 108.154 641.826 131.71 643.894C162.514 646.554 193.204 651.479 223.669 653.941C285.73 658.768 346.205 651.676 401.244 628.134C443.826 609.912 482.558 586.469 515.061 557.116C538.617 535.938 557.077 510.722 570.214 482.65C576.103 470.042 580.972 457.04 585.502 443.742C594.562 416.95 602.263 389.37 614.041 363.859C627.405 334.9 646.997 308.108 676.216 291.56C685.049 286.536 694.335 282.301 704.188 279.346C745.977 266.836 791.731 277.179 837.144 291.954C856.963 298.455 876.781 305.448 895.354 312.343C916.079 320.026 936.464 327.512 955.83 333.816C993.995 346.227 1029.22 355.88 1063.08 354.206C1085.05 353.122 1104.19 346.917 1124.12 337.559C1164.66 318.549 1209.06 283.286 1250.51 243.295C1261.83 232.263 1273.16 220.935 1284.48 209.509C1334.88 158.191 1385.16 105.198 1434.99 62.252" stroke="#F5B195" stroke-miterlimit="10"/>
<path d="M-64.2129 720.626C-49.4904 674.232 4.98285 645.864 59.0031 639.462C82.3326 636.704 106.002 637.196 129.558 639.363C160.362 642.121 191.053 647.539 221.404 650.494C283.351 656.601 343.714 651.676 399.319 629.317C442.354 611.981 481.652 589.818 515.287 561.745C539.749 541.257 558.662 516.534 572.365 488.56C578.481 476.05 583.577 463.048 588.22 449.751C597.733 422.959 605.774 395.379 617.892 370.064C631.708 341.302 651.98 315.2 682.105 299.538C691.165 294.81 700.451 290.969 710.417 288.408C752.32 277.474 797.506 289.196 842.92 304.069C862.852 310.57 882.784 317.367 901.583 323.671C922.534 330.763 943.033 337.264 962.398 342.484C1000.45 352.63 1034.77 359.525 1066.14 355.092C1086.63 352.236 1103.17 344.356 1121.06 333.521C1157.42 311.654 1199.2 273.731 1239.86 232.164C1251.07 220.64 1262.28 208.918 1273.61 197.197C1324.46 144.401 1377.8 91.9004 1430.91 51.8109" stroke="#F5B195" stroke-miterlimit="10"/>
<path d="M-67.4971 715.898C-51.7553 669.8 2.49148 641.333 56.625 634.931C79.9545 632.173 103.737 632.567 127.293 634.832C158.21 637.787 188.788 643.5 219.139 647.046C280.973 654.335 341.222 651.774 397.281 630.498C440.769 614.049 480.746 593.265 515.401 566.375C540.769 546.675 560.248 522.345 574.404 494.568C580.633 482.157 585.955 469.254 590.938 455.956C600.791 429.164 609.172 401.584 621.743 376.467C636.012 347.902 656.85 322.39 687.994 307.812C697.28 303.478 706.68 299.932 716.646 297.765C758.775 288.408 803.282 301.607 848.696 316.48C868.628 322.981 888.786 329.482 907.699 335.294C928.877 341.795 949.488 347.311 968.967 351.349C1006.79 359.229 1040.54 363.366 1069.19 356.274C1088.22 351.546 1102.26 341.992 1118 329.876C1150.17 305.153 1189.35 264.669 1229.33 221.526C1240.31 209.608 1251.53 197.492 1262.96 185.475C1314.27 131.3 1370.78 79.1939 1426.95 41.8624" stroke="#F5B195" stroke-miterlimit="10"/>
<path d="M-70.6689 711.268C-53.9079 665.466 0.112302 636.999 54.2458 630.4C77.6886 627.543 101.471 627.937 125.14 630.301C156.058 633.355 186.522 639.462 216.873 643.697C278.594 652.267 338.73 651.873 395.242 631.779C439.183 616.216 479.839 596.811 515.4 571.103C541.674 552.191 561.719 528.255 576.328 500.675C582.784 488.363 588.333 475.459 593.429 462.162C603.622 435.468 612.342 407.79 625.366 382.869C640.201 354.501 661.492 329.679 693.655 315.988C703.055 311.949 712.568 308.797 722.647 306.926C764.89 299.144 808.831 313.821 854.131 328.694C874.176 335.294 894.448 341.499 913.474 346.72C934.878 352.63 955.716 357.161 975.082 360.116C1012.79 365.73 1045.75 366.912 1071.68 357.358C1089.35 350.857 1100.68 339.628 1114.38 326.035C1142.35 298.356 1178.82 255.41 1218.12 210.593C1228.99 198.182 1240.09 185.672 1251.64 173.36C1303.39 117.707 1362.96 66.1919 1422.31 31.6184" stroke="#F5B195" stroke-miterlimit="10"/>
<path d="M-73.9521 706.639C-56.1719 661.034 -2.37811 632.666 51.8686 625.869C75.3114 622.914 99.2072 623.308 122.876 625.771C153.794 629.021 184.258 635.424 214.496 640.25C276.104 650.002 336.126 651.873 393.204 632.961C437.598 618.284 478.934 600.259 515.514 575.733C542.694 557.51 563.192 534.067 578.368 506.585C585.05 494.371 590.712 481.468 596.035 468.17C606.567 441.477 615.74 413.799 629.104 389.075C644.393 360.904 666.363 336.673 699.319 324.065C708.945 320.421 718.571 317.564 728.651 316.087C771.119 309.881 814.268 326.035 859.681 340.908C879.726 347.508 900.111 353.418 919.477 358.146C941.108 363.465 962.059 367.11 981.425 368.784C1019.02 372.133 1051.3 370.36 1074.52 358.245C1090.82 349.774 1099.43 336.969 1111.1 322.095C1134.88 291.462 1168.74 246.053 1207.36 199.66C1218 186.855 1229.1 173.951 1240.65 161.245C1292.86 104.213 1355.49 53.0915 1418 21.3745" stroke="#F5B195" stroke-miterlimit="10"/>
<path d="M-77.124 701.911C-58.3245 656.601 -4.75723 628.134 49.6028 621.239C73.0455 618.284 96.9413 618.58 120.724 621.141C151.641 624.49 182.105 631.385 212.23 636.802C273.725 647.834 333.521 651.971 391.165 634.143C436.012 620.353 478.028 603.706 515.627 580.362C543.713 562.927 564.777 539.878 580.406 512.594C587.314 500.478 593.203 487.673 598.752 474.376C609.737 447.781 619.137 420.004 633.067 395.477C648.922 367.503 671.345 343.863 705.32 332.339C715.06 328.99 724.799 326.626 734.992 325.444C777.574 320.814 820.156 338.446 865.569 353.319C885.728 359.919 906.226 365.632 925.705 369.769C947.562 374.398 968.627 377.156 987.992 377.747C1025.36 378.831 1057.07 373.906 1077.57 359.525C1092.52 349.084 1098.41 334.801 1108.04 318.45C1127.63 284.96 1158.89 236.892 1196.71 189.021C1207.13 175.724 1218.23 162.426 1229.89 149.523C1282.56 91.1124 1348.24 40.3849 1413.93 11.5244" stroke="#FDF3D6" stroke-miterlimit="10"/>
<path d="M-80.4082 697.281C-60.7027 652.267 -7.24875 623.8 47.2245 616.708C70.6672 613.655 94.6763 613.95 118.459 616.708C149.376 620.254 179.84 627.445 209.965 633.453C271.346 645.667 331.029 652.07 389.24 635.423C434.54 622.52 477.348 607.252 515.853 585.09C544.845 568.443 566.476 545.788 582.557 518.701C589.692 506.684 595.808 493.879 601.47 480.581C612.795 453.986 622.648 426.209 636.917 401.88C653.225 374.201 676.215 351.054 711.209 340.514C721.175 337.559 731.028 335.491 741.221 334.703C784.029 331.649 825.932 350.66 871.232 365.632C891.39 372.33 912.115 377.649 931.707 381.293C953.678 385.332 975.082 387.105 994.334 386.514C1031.59 385.332 1062.62 377.156 1080.4 360.51C1093.88 347.902 1097.28 332.24 1104.75 314.51C1120.16 278.065 1148.81 227.535 1185.84 177.989C1196.15 164.199 1207.13 150.606 1218.91 137.309C1272.02 77.4209 1340.88 27.2844 1409.74 1.18188" stroke="#4D7CBF" stroke-miterlimit="10"/>
<path d="M-83.6924 692.652C-62.9676 647.834 -9.7401 619.467 44.7332 612.178C68.2892 609.026 92.2981 609.321 116.194 612.178C147.111 615.822 177.462 623.406 207.587 630.006C268.855 643.5 328.424 652.07 387.088 636.606C432.841 624.589 476.329 610.7 515.853 589.719C545.751 573.861 567.948 551.6 584.483 524.611C591.844 512.692 598.073 499.887 603.962 486.59C615.626 459.995 625.819 432.316 640.541 408.085C657.302 380.604 680.858 358.048 716.872 348.592C726.951 345.932 737.03 344.257 747.11 343.863C790.031 342.386 831.368 362.874 876.668 377.846C896.939 384.544 917.777 389.666 937.596 392.72C959.793 396.167 981.311 397.053 1000.56 395.28C1037.6 391.833 1067.83 380.308 1083.12 361.593C1095.13 346.917 1095.92 329.876 1101.36 310.767C1112.57 271.368 1138.5 218.374 1174.97 167.253C1185.05 153.069 1196.03 138.984 1207.81 125.489C1261.38 64.222 1333.29 14.4795 1405.32 -8.76648" stroke="#4D7CBF" stroke-miterlimit="10"/>
<path d="M-86.8633 687.924C-65.1193 643.402 -12.1183 614.936 42.4682 607.548C66.0242 604.396 90.1464 604.593 114.042 607.548C145.073 611.39 175.31 619.368 205.322 626.558C266.477 641.235 325.933 652.07 385.163 637.787C431.369 626.657 475.536 614.148 516.08 594.349C546.884 579.279 569.534 557.412 586.635 530.62C594.109 518.8 600.677 506.093 606.68 492.795C618.684 466.299 629.217 438.522 644.392 414.587C661.719 387.302 685.728 365.238 722.761 356.865C733.067 354.501 743.146 353.221 753.338 353.221C796.487 353.319 837.143 375.285 882.443 390.355C902.715 397.053 923.666 401.88 943.712 404.441C966.135 407.297 987.766 407.199 1007.02 404.244C1043.94 398.63 1073.16 383.657 1085.95 362.775C1096.37 345.932 1094.67 327.513 1097.96 307.025C1104.87 264.67 1128.31 209.115 1163.98 156.418C1173.84 141.741 1184.71 127.361 1196.71 113.472C1250.73 50.7275 1325.7 1.4775 1400.9 -19.0105" stroke="#F5B195" stroke-miterlimit="10"/>
<path d="M-90.1475 683.294C-67.3842 639.068 -14.6097 610.601 40.09 603.115C63.646 599.865 87.8815 600.062 111.777 603.115C142.808 607.055 173.046 615.428 202.944 623.209C263.985 639.068 323.328 652.267 383.011 639.068C429.557 628.824 474.517 617.693 516.08 599.077C547.903 584.794 571.006 563.321 588.56 536.726C596.261 525.005 603.056 512.298 609.285 499.001C621.742 472.504 632.614 444.727 648.243 420.989C666.023 393.901 690.598 372.428 728.537 365.139C738.956 363.169 749.262 362.184 759.454 362.578C802.716 364.253 842.806 387.696 887.993 402.766C908.265 409.563 929.442 413.995 949.601 416.064C972.251 418.329 993.995 417.344 1013.25 413.207C1049.94 405.327 1078.14 387.006 1088.67 364.056C1097.39 345.045 1093.32 325.345 1094.56 303.38C1097.28 258.168 1118.12 200.053 1153.11 145.78C1162.85 130.611 1173.61 115.836 1185.61 101.75C1240.09 37.6269 1318.12 -11.1306 1396.49 -28.8606" stroke="#7D91D7" stroke-miterlimit="10"/>
<path d="M-93.3184 678.665C-69.5359 634.635 -16.9879 606.267 37.8251 598.584C61.4944 595.235 85.7299 595.432 109.626 598.584C140.656 602.721 170.894 611.389 200.792 619.86C261.72 636.999 320.95 652.365 381.199 640.348C428.198 630.991 473.951 621.338 516.42 603.805C549.149 590.31 572.818 569.231 590.825 542.735C598.752 531.013 605.661 518.405 612.116 505.108C624.913 478.71 636.125 450.834 652.207 427.293C670.553 400.402 695.581 379.422 734.539 373.216C745.185 371.542 755.49 370.951 765.796 371.739C809.284 374.891 848.695 399.91 893.882 414.98C914.267 421.777 935.558 426.012 955.943 427.49C978.82 429.164 1000.79 427.194 1019.93 421.875C1056.51 411.73 1083.58 390.158 1091.84 365.041C1098.75 343.863 1092.41 322.784 1091.62 299.538C1090.03 251.372 1108.38 190.794 1142.58 134.846C1152.09 119.283 1162.85 104.114 1174.97 89.6349C1229.89 24.0339 1311.1 -24.2311 1392.64 -39.1046" stroke="#7396D8" stroke-miterlimit="10"/>
<path d="M-96.6025 673.937C-71.914 630.203 -19.4793 601.737 35.3337 593.955C59.003 590.606 83.3518 590.705 107.361 594.054C138.391 598.289 168.629 607.45 198.414 616.413C259.229 634.734 318.232 652.366 379.047 641.531C426.499 633.06 472.932 624.786 516.42 608.435C550.055 595.728 574.177 575.043 592.75 548.744C600.904 537.121 608.039 524.611 614.607 511.314C627.744 484.916 639.409 457.04 655.831 433.696C674.63 407.002 700.111 386.613 740.202 381.491C751.074 380.112 761.493 379.915 771.799 381.097C815.4 385.825 854.245 412.223 899.318 427.392C919.703 434.287 941.221 438.128 961.719 439.113C984.709 440.098 1006.91 437.34 1026.04 430.839C1062.51 418.527 1088.33 393.705 1094.45 366.223C1099.54 342.977 1090.94 320.519 1088.11 295.796C1082.33 244.674 1097.96 181.634 1131.59 124.11C1140.88 108.055 1151.64 92.4915 1163.87 77.815C1219.25 10.835 1303.51 -37.036 1388.22 -49.053" stroke="#699CD9" stroke-miterlimit="10"/>
<path d="M-99.7744 669.307C-74.0667 625.869 -21.8584 597.402 33.0678 589.424C56.7371 585.976 81.1991 586.075 105.208 589.522C136.239 593.955 166.363 603.411 196.148 612.965C256.85 632.567 315.74 652.464 377.008 642.712C424.913 635.128 472.138 628.233 516.532 613.064C551.073 601.244 575.762 580.854 594.788 554.752C603.168 543.227 610.416 530.718 617.325 517.42C630.801 491.121 642.806 463.147 659.68 439.999C678.933 413.601 704.98 393.606 746.09 389.666C757.075 388.582 767.608 388.779 778.027 390.355C821.854 396.659 860.019 424.535 905.093 439.704C925.591 446.599 947.222 450.243 967.947 450.637C991.163 451.031 1013.47 447.288 1032.61 439.605C1068.85 425.027 1093.54 396.955 1097.5 367.306C1100.79 341.992 1089.8 318.155 1085.05 292.052C1074.85 238.074 1088.1 172.375 1120.95 113.373C1130.12 96.9239 1140.77 80.9669 1153 65.8964C1208.83 -2.56111 1296.15 -49.9396 1384.03 -59.1001" stroke="#5FA1DB" stroke-miterlimit="10"/>
<path d="M-103.059 664.678C-76.3316 621.535 -24.3499 593.068 30.6896 584.893C54.4722 581.347 78.9341 581.445 102.943 584.991C134.087 589.621 164.098 599.372 193.883 609.616C254.472 630.4 313.248 652.562 375.083 643.993C423.441 637.295 471.345 631.877 516.759 617.792C552.319 606.76 577.461 586.764 596.94 560.859C605.547 549.433 613.021 536.923 620.043 523.626C633.859 497.326 646.204 469.352 663.531 446.402C683.35 420.201 709.963 400.698 751.866 397.841C763.078 397.053 773.723 397.644 784.142 399.516C828.083 407.396 865.682 436.749 910.756 451.918C931.254 458.813 952.998 462.162 973.949 462.063C997.392 461.866 1019.93 457.237 1038.95 448.372C1075.08 431.528 1098.52 400.402 1100.22 368.291C1101.7 341.007 1088.44 315.594 1081.65 288.112C1067.27 231.278 1077.91 163.017 1109.96 102.342C1118.91 85.3995 1129.55 69.0485 1141.9 53.781C1198.18 -16.0555 1288.56 -62.9415 1379.61 -69.4425" stroke="#55A6DC" stroke-miterlimit="10"/>
<path d="M-106.343 659.95C-78.5965 617.004 -26.9545 588.537 28.3115 580.263C52.094 576.717 76.556 576.717 100.678 580.362C131.822 585.09 161.833 595.334 191.505 606.071C251.98 628.135 310.644 652.464 372.931 645.077C421.742 639.265 470.326 635.325 516.759 622.323C553.225 612.079 578.82 592.477 598.865 566.67C607.699 555.343 615.4 542.932 622.534 529.634C636.804 503.335 649.488 475.361 667.268 452.608C687.54 426.604 714.72 407.593 757.642 405.918C768.967 405.524 779.725 406.51 790.258 408.677C834.425 418.133 871.231 448.963 916.305 464.132C936.916 471.125 958.774 474.179 979.838 473.489C1003.51 472.701 1026.16 467.087 1045.18 457.04C1081.2 438.03 1103.39 403.653 1102.94 369.277C1102.6 340.022 1087.2 313.131 1078.25 284.172C1059.68 224.383 1067.61 153.66 1099.09 91.408C1107.81 73.9735 1118.46 57.327 1130.91 41.6655C1187.65 -29.6485 1281.2 -76.042 1375.31 -79.6865" stroke="#4BABDE" stroke-miterlimit="10"/>
<path d="M-109.513 655.321C-80.8604 612.67 -29.3317 584.204 25.9343 575.732C49.7168 572.088 74.2921 572.088 98.5276 575.831C129.671 580.756 159.683 591.296 189.241 602.722C249.603 625.968 308.153 652.661 371.007 646.357C420.271 641.432 469.648 638.871 516.873 627.051C554.246 617.693 580.406 598.388 601.018 572.777C609.965 561.549 617.892 549.137 625.367 535.84C639.976 509.639 653 481.566 671.233 459.01C692.071 433.203 719.704 414.685 763.645 414.094C775.196 413.996 786.068 415.374 796.487 417.935C840.768 428.967 877.008 461.275 922.082 476.543C942.693 483.536 964.777 486.294 986.068 485.112C1009.96 483.733 1032.84 477.232 1051.75 466.003C1087.65 444.826 1108.6 407.297 1106 370.458C1103.73 339.234 1086.18 310.866 1075.2 280.528C1052.43 217.783 1057.76 144.598 1088.45 80.6715C1097.05 62.843 1107.59 45.704 1120.04 29.8455C1177.23 -42.8475 1273.84 -88.847 1371.23 -89.635" stroke="#41B1DF" stroke-miterlimit="10"/>
<path d="M-112.798 650.691C-83.1263 608.336 -31.8241 579.869 23.5552 571.3C47.451 567.557 72.0262 567.557 96.2617 571.398C127.405 576.422 157.417 587.355 186.862 599.372C247.111 623.899 305.548 652.759 368.854 647.637C418.571 643.599 468.628 642.614 516.872 631.779C555.151 623.308 581.878 604.298 602.942 578.885C612.116 567.754 620.27 555.343 627.857 542.045C642.806 515.844 656.283 487.772 674.856 465.412C696.147 439.802 724.346 421.678 769.306 422.368C780.971 422.565 791.957 424.338 802.489 427.293C846.996 439.901 882.557 473.588 927.63 488.954C948.355 495.948 970.552 498.508 991.956 496.735C1015.97 494.765 1039.07 487.279 1057.98 474.868C1093.77 451.425 1113.47 410.843 1108.72 371.64C1104.64 338.446 1084.82 308.502 1071.8 276.785C1044.73 211.184 1047.56 135.339 1077.57 69.935C1085.95 51.614 1096.49 34.1795 1109.06 17.927C1166.7 -56.2435 1266.36 -101.652 1366.93 -99.682" stroke="#37B6E1" stroke-miterlimit="10"/>
<path d="M-115.969 645.963C-72.0277 585.681 13.7025 553.373 94.11 566.769C188.9 582.529 271.686 654.729 366.929 648.721C417.099 645.569 467.835 645.963 517.099 636.31C573.497 625.278 604.981 591.689 630.575 548.054C663.418 492.007 689.126 426.997 775.196 430.445C837.37 432.907 877.687 482.157 933.293 501.168C977.234 516.14 1028.76 509.245 1064.44 483.536C1100.11 457.828 1118.57 414.291 1111.66 372.625C1105.77 337.461 1083.69 306.039 1068.63 272.845C1028.65 185.18 1040.09 81.3609 1098.18 5.81145C1156.28 -69.738 1259.11 -114.753 1362.74 -109.926" stroke="#2DBBE2" stroke-miterlimit="10"/>
<path d="M-110.985 654.631C-66.3648 599.077 18.7991 569.034 98.6404 581.347C138.618 587.454 176.556 603.017 214.042 617.989C252.434 633.453 290.146 648.425 329.557 652.858C342.241 654.237 355.152 654.631 368.175 653.449C417.213 649.016 466.816 647.933 515.853 637.886C571.459 626.558 603.509 594.349 630.009 553.176C636.125 543.72 642.014 534.067 648.016 524.512C665.683 496.44 684.483 469.845 714.154 455.168C730.802 446.894 750.734 442.265 775.649 443.053C837.03 444.826 877.234 489.939 931.028 506.191C938.163 508.358 945.524 509.934 952.885 510.919C989.691 515.844 1028.54 506.585 1056.96 484.817C1091.05 458.714 1108.72 415.571 1102.26 374.3C1096.83 339.332 1076.21 307.714 1062.28 274.519C1038.28 217.291 1035.56 153.463 1052.88 95.5449C1062.17 64.6159 1077.23 35.3614 1097.62 9.55442C1134.99 -37.5286 1189.92 -72.3976 1251.64 -90.8171C1287.09 -101.357 1324.8 -106.38 1362.62 -105.001" stroke="#33B4E3" stroke-miterlimit="10"/>
<path d="M-105.89 663.299C-60.7029 612.473 24.0081 584.696 103.396 595.925C143.26 601.539 180.973 615.625 218.005 629.021C255.944 642.712 292.977 655.813 331.708 658.768C344.166 659.753 356.737 659.654 369.534 658.177C417.552 652.464 465.91 650.001 514.607 639.56C569.307 628.036 602.036 597.008 629.329 558.298C635.671 549.334 641.787 540.371 648.016 531.407C666.249 505.206 685.275 480.68 714.946 467.087C731.707 459.502 751.526 455.07 775.988 455.562C836.577 456.744 876.667 497.622 928.649 511.116C935.558 512.889 942.579 514.071 949.714 514.761C985.161 518.11 1022.31 507.964 1049.37 485.9C1081.88 459.404 1098.75 416.753 1092.86 375.876C1087.99 341.105 1068.63 309.388 1056.06 276.095C1034.09 218.867 1032.84 155.334 1051.07 98.1059C1060.93 67.3739 1076.44 38.5134 1097.28 13.1004C1135.22 -33.1946 1190.26 -67.2756 1252.09 -85.6951C1287.54 -96.2346 1325.02 -101.357 1362.74 -100.175" stroke="#38ADE5" stroke-miterlimit="10"/>
<path d="M-100.793 671.967C-54.9267 625.869 29.218 600.259 108.04 610.404C147.678 615.428 185.277 628.233 221.97 639.856C259.569 651.873 295.922 662.905 333.861 664.481C346.092 664.973 358.436 664.481 370.893 662.708C417.892 655.714 465.004 651.676 513.475 640.939C567.382 629.021 600.678 599.471 628.877 563.223C635.332 554.85 641.787 546.478 648.129 538.204C666.929 513.973 686.181 491.318 715.853 478.907C732.614 471.913 752.433 467.678 776.442 467.973C836.238 468.466 876.102 505.305 926.498 515.943C933.18 517.322 939.975 518.208 946.883 518.602C980.971 520.375 1016.42 509.343 1042.24 486.984C1073.27 460.192 1089.24 417.935 1083.92 377.452C1079.5 342.78 1061.61 310.964 1050.17 277.671C1030.35 220.443 1030.35 157.206 1049.6 100.667C1060.02 70.1319 1075.99 41.6654 1097.17 16.7449C1135.67 -28.7621 1190.82 -62.0551 1252.66 -80.4746C1287.99 -90.9156 1325.48 -96.136 1363.08 -95.348" stroke="#3EA6E6" stroke-miterlimit="10"/>
<path d="M-95.6973 680.635C-49.1515 639.166 34.427 615.92 112.796 624.982C152.32 629.415 189.693 640.841 226.046 650.888C263.305 661.132 298.866 670.194 336.125 670.391C348.129 670.489 360.134 669.603 372.365 667.436C418.344 659.26 464.211 653.744 512.455 642.614C565.456 630.4 599.431 602.229 628.423 568.345C635.105 560.563 641.787 552.782 648.355 545.099C667.721 522.739 687.2 502.054 716.872 490.825C733.746 484.423 753.451 480.68 777.007 480.581C836.01 480.384 875.648 513.086 924.345 520.966C930.801 522.05 937.369 522.542 943.938 522.542C976.667 522.739 1010.3 510.821 1034.88 488.166C1064.32 460.98 1079.38 419.216 1074.74 379.028C1070.78 344.553 1054.36 312.54 1044.16 279.247C1026.38 221.92 1027.86 159.077 1048.13 103.129C1059.11 72.7914 1075.65 44.8174 1097.05 20.1924C1136.12 -24.5266 1191.39 -57.1301 1253.34 -75.3526C1288.67 -85.7936 1325.93 -91.1126 1363.42 -90.5216" stroke="#43A0E8" stroke-miterlimit="10"/>
<path d="M-90.7139 689.204C-43.4886 652.464 39.5237 631.483 117.326 639.363C156.624 643.303 193.997 653.35 229.897 661.624C266.703 670.194 301.584 677.286 338.164 676.006C349.942 675.612 361.72 674.331 373.611 671.868C418.571 662.412 463.192 655.419 511.097 643.894C563.305 631.385 597.846 604.494 627.744 573.171C634.652 565.882 641.561 558.79 648.356 551.797C668.174 531.309 688.106 512.692 717.778 502.547C734.765 496.735 754.244 493.091 777.461 492.894C835.671 492.303 875.195 520.572 922.081 525.694C928.31 526.384 934.652 526.482 940.88 526.285C972.137 525.005 1004.19 512.101 1027.4 489.151C1055.38 461.571 1069.53 420.201 1065.46 380.505C1061.94 346.227 1047 314.116 1037.94 280.725C1022.31 223.398 1025.14 160.85 1046.32 105.592C1057.87 75.451 1074.86 47.871 1096.6 23.7385C1136.24 -20.1925 1191.62 -52.008 1253.68 -70.2305C1288.9 -80.573 1326.04 -85.9905 1363.42 -85.7935" stroke="#4999E9" stroke-miterlimit="10"/>
<path d="M-85.6182 697.872C-37.7134 665.86 44.7326 647.046 121.969 653.941C161.04 657.29 198.3 665.958 233.86 672.656C270.327 679.453 304.415 684.575 340.315 681.915C351.867 681.029 363.305 679.453 374.97 676.596C418.911 665.86 462.285 657.389 509.964 645.569C561.266 632.764 596.487 607.252 627.177 578.293C634.312 571.595 641.447 565.094 648.355 558.692C668.74 540.075 688.899 523.429 718.57 514.465C735.558 509.245 755.037 505.896 777.8 505.403C835.331 504.123 874.629 528.255 919.702 530.619C925.704 530.915 931.707 530.718 937.822 530.127C967.72 527.27 998.071 513.48 1020.04 490.234C1046.43 462.26 1059.79 421.383 1056.28 382.081C1053.22 348 1039.63 315.692 1031.93 282.301C1018.34 224.974 1022.76 162.722 1044.73 108.153C1056.85 78.2089 1074.29 51.0229 1096.37 27.2844C1136.46 -15.8586 1191.96 -46.8861 1254.13 -65.1086C1289.35 -75.4511 1326.38 -80.9671 1363.64 -81.0656" stroke="#4F92EA" stroke-miterlimit="10"/>
<path d="M-80.5215 706.541C-32.0505 679.256 50.0558 662.708 126.726 668.519C165.684 671.277 202.717 678.665 237.938 683.59C274.064 688.712 307.473 691.765 342.581 687.727C353.906 686.446 365.117 684.378 376.442 681.226C419.364 669.307 461.606 659.261 508.832 647.047C559.341 634.045 595.128 609.715 626.725 583.317C634.086 577.112 641.447 571.3 648.582 565.587C669.533 548.941 690.032 534.264 719.59 526.384C736.691 521.853 756.056 518.701 778.367 517.913C835.105 516.041 874.176 536.037 917.551 535.545C923.327 535.446 929.102 534.954 934.878 534.067C963.417 529.635 991.956 514.958 1012.68 491.417C1037.48 463.049 1050.05 422.663 1047.11 383.657C1044.5 349.675 1032.5 317.268 1025.82 283.778C1014.49 226.451 1020.16 164.495 1043.15 110.615C1055.83 80.8685 1073.72 54.175 1096.15 30.8305C1136.8 -11.5245 1192.41 -41.764 1254.7 -59.888C1289.8 -70.132 1326.72 -75.7465 1363.87 -76.1405" stroke="#548BEC" stroke-miterlimit="10"/>
<path d="M-75.4258 715.208C-26.2753 692.652 55.2648 678.468 131.369 682.999C170.1 685.363 207.02 691.174 241.901 694.523C277.574 697.872 310.304 698.956 344.732 693.538C355.83 691.765 366.702 689.303 377.801 685.855C419.59 672.656 460.7 661.23 507.698 648.622C557.415 635.325 593.882 612.374 626.271 588.34C633.859 582.726 641.447 577.505 648.808 572.383C670.212 557.608 691.05 545 720.608 538.204C737.822 534.264 757.075 531.407 778.932 530.422C834.878 527.96 873.836 543.72 915.398 540.469C920.948 540.075 926.497 539.189 931.933 538.007C959.113 531.998 985.953 516.435 1005.32 492.598C1028.65 463.836 1040.31 423.845 1037.82 385.332C1035.67 351.546 1025.14 319.041 1019.7 285.453C1010.42 228.126 1017.55 166.465 1041.45 113.275C1054.7 83.7249 1073.16 57.4254 1095.81 34.5734C1137.03 -6.99359 1192.75 -36.4451 1255.04 -54.5691C1290.03 -64.8131 1326.95 -70.4276 1363.87 -71.2156" stroke="#5A84ED" stroke-miterlimit="10"/>
<path d="M-70.4424 723.876C-20.6124 706.048 60.3614 694.129 136.012 697.577C174.631 699.35 211.324 703.881 245.865 705.457C281.199 707.131 313.135 706.245 346.884 699.35C357.643 697.183 368.401 694.326 379.16 690.485C419.93 676.005 459.794 663.102 506.453 650.198C555.264 636.605 592.41 615.034 625.592 593.462C633.407 588.439 641.221 583.809 648.809 579.278C670.779 566.375 691.957 555.737 721.402 550.122C738.729 546.773 757.755 544.114 779.272 542.932C834.425 539.78 873.27 551.403 913.021 545.394C918.343 544.606 923.666 543.326 928.763 541.848C954.584 534.264 979.725 517.814 997.732 493.682C1019.48 464.624 1030.35 425.027 1028.42 386.809C1026.84 353.221 1017.55 320.519 1013.47 286.93C1006.34 229.603 1014.83 168.238 1039.75 115.737C1053.56 86.3845 1072.48 60.479 1095.47 38.021C1137.26 -2.75804 1193.09 -31.4215 1255.49 -49.5455C1290.48 -59.691 1327.18 -65.5025 1364.1 -66.4875" stroke="#607DEE" stroke-miterlimit="10"/>
<path d="M-65.3457 732.544C-14.8362 719.345 65.5713 709.791 140.656 712.155C179.048 713.337 215.628 716.489 249.829 716.489C284.823 716.489 315.967 713.534 349.036 705.26C359.568 702.6 369.987 699.35 380.52 695.213C420.27 679.453 458.889 665.17 505.321 651.774C553.339 637.984 591.165 617.595 625.14 598.584C633.18 594.053 641.221 590.113 648.922 586.272C671.346 575.24 692.976 566.67 722.308 562.139C739.749 559.48 758.661 557.017 779.726 555.54C834.086 551.797 872.817 559.086 910.756 550.418C915.852 549.236 920.835 547.66 925.818 545.887C950.28 536.825 973.61 519.39 990.484 494.962C1010.76 465.511 1020.72 426.406 1019.36 388.582C1018.23 355.191 1010.42 322.39 1007.47 288.703C1002.38 231.376 1012.45 170.306 1038.16 118.495C1052.66 89.4379 1071.91 63.8279 1095.35 41.8624C1137.71 1.87139 1193.65 -26.0041 1256.17 -44.1281C1291.05 -54.2736 1327.63 -60.0851 1364.44 -61.4641" stroke="#6576F0" stroke-miterlimit="10"/>
<path d="M-60.249 741.114C-9.06001 732.643 70.7812 725.255 145.413 726.536C183.691 727.225 220.045 728.998 253.793 727.225C288.335 725.452 318.799 720.527 351.188 710.874C361.494 707.722 371.687 704.078 381.879 699.645C420.611 682.605 457.983 666.845 504.189 653.153C551.414 639.068 589.919 620.057 624.574 603.411C632.841 599.471 640.995 596.023 649.036 592.871C672.026 583.711 693.883 577.21 723.215 573.762C740.768 571.694 759.568 569.527 780.293 567.852C833.86 563.42 872.365 566.572 908.605 555.146C913.475 553.57 918.231 551.698 922.874 549.531C945.977 538.893 967.608 520.572 983.123 495.849C1001.81 466.003 1010.98 427.293 1010.19 389.961C1009.51 356.668 1003.17 323.769 1001.47 290.082C998.525 232.657 1009.96 171.981 1036.58 120.859C1051.64 91.9989 1071.46 66.8814 1095.13 45.2114C1138.05 6.00842 1194.11 -21.0791 1256.62 -39.1046C1291.5 -49.1516 1327.97 -55.1601 1364.55 -56.7361" stroke="#6B70F1" stroke-miterlimit="10"/>
<path d="M-55.1533 749.782C-3.39806 746.039 75.9902 740.917 150.056 741.114C188.108 741.212 224.348 741.705 257.756 738.159C291.958 734.711 321.743 727.816 353.34 716.686C363.419 713.14 373.385 709.101 383.238 704.275C420.95 685.954 457.076 668.815 502.943 654.631C549.262 640.348 588.447 622.618 624.007 608.434C632.501 605.085 640.881 602.229 649.148 599.766C672.591 592.477 694.902 588.045 724.12 585.779C741.674 584.4 760.473 582.43 780.745 580.46C833.52 575.437 871.911 574.353 906.339 560.169C910.983 558.199 915.513 556.032 919.816 553.57C941.56 541.356 961.379 522.148 975.648 497.129C992.749 466.89 1001.13 428.672 1000.9 391.636C1000.68 358.54 995.807 325.542 995.241 291.757C994.335 234.331 1007.36 173.951 1034.88 123.519C1050.51 94.8555 1070.78 70.132 1094.79 48.9545C1138.28 10.441 1194.45 -15.76 1257.07 -33.7855C1291.84 -43.8325 1328.2 -49.841 1364.78 -51.811" stroke="#7069F3" stroke-miterlimit="10"/>
<path d="M-50.1699 758.45C2.26484 759.435 81.0869 756.48 154.586 755.692C192.412 755.199 228.538 754.313 261.607 749.191C295.469 743.97 324.461 735.105 355.378 722.596C365.231 718.557 374.857 714.125 384.37 709.003C421.063 689.402 455.944 670.785 501.584 656.306C547.111 641.826 586.975 625.376 623.215 613.556C631.935 610.7 640.542 608.533 648.922 606.661C672.818 601.244 695.582 598.88 724.687 597.698C742.354 596.91 761.04 595.137 780.859 592.97C832.841 587.257 871.119 582.036 903.735 564.996C908.152 562.73 912.455 560.071 916.532 557.313C936.917 543.523 955.037 523.429 968.061 498.114C983.689 467.481 991.164 429.755 991.504 393.113C991.844 360.214 988.219 327.02 989.012 293.234C990.258 235.809 1004.64 175.724 1033.07 125.981C1049.26 97.515 1069.99 73.1855 1094.33 52.402C1138.39 14.6765 1194.67 -10.7365 1257.41 -28.762C1292.18 -38.7105 1328.31 -44.916 1364.78 -47.1815" stroke="#4D7CBF" stroke-miterlimit="10"/>
<path d="M-45.0742 767.118C8.04004 772.831 86.409 772.141 159.342 770.171C197.054 769.186 232.955 766.921 265.684 760.026C299.093 753.131 327.405 742.296 357.643 728.309C367.269 723.876 376.669 718.951 385.842 713.534C421.403 692.652 455.151 672.656 500.451 657.684C545.185 642.909 585.728 627.839 622.761 618.481C631.708 616.216 640.541 614.64 649.148 613.359C673.61 609.813 696.6 608.828 725.705 609.419C743.486 609.715 761.945 607.745 781.424 605.282C832.613 598.978 870.665 589.424 901.583 569.724C905.773 567.064 909.737 564.109 913.587 561.056C932.613 545.69 949.034 524.709 960.699 499.099C974.742 468.072 981.424 430.74 982.33 394.591C983.123 361.889 980.971 328.497 982.896 294.712C986.18 237.286 1002.15 177.497 1031.37 128.345C1048.24 100.076 1069.31 76.2389 1093.99 55.8494C1138.61 18.9119 1195.01 -5.7131 1257.75 -23.6401C1292.41 -33.5886 1328.54 -39.7941 1364.78 -42.3551" stroke="#F5B195" stroke-miterlimit="10"/>
<path d="M-39.9775 775.786C13.8162 786.227 91.619 787.606 163.986 784.749C201.472 783.075 237.372 779.529 269.648 771.058C302.717 762.39 330.237 749.585 359.795 734.219C369.195 729.294 378.255 724.073 387.202 718.262C421.743 696.001 454.359 674.725 499.319 659.359C543.147 644.387 584.483 630.695 622.309 623.603C631.482 621.929 640.542 620.944 649.375 620.353C674.29 618.679 697.733 620.55 726.838 621.436C744.732 622.027 763.078 620.55 782.104 617.989C832.501 610.995 870.439 597.304 899.544 574.846C903.508 571.792 907.246 568.542 910.756 565.193C928.423 548.349 943.033 526.384 953.452 500.478C966.022 469.057 971.798 432.218 973.157 396.364C974.516 363.76 973.61 330.369 976.894 296.386C982.104 238.961 999.658 179.467 1029.9 131.005C1047.34 102.932 1068.97 79.4894 1093.88 59.5924C1139.07 23.4429 1195.47 -0.492559 1258.43 -18.3211C1293.09 -28.1711 1328.99 -34.5736 1365.23 -37.4301" stroke="#FFF9EF" stroke-miterlimit="10"/>
<path d="M-34.9941 784.454C19.4791 799.623 96.7156 803.267 168.629 799.229C206.002 797.062 241.676 792.137 273.612 781.893C306.341 771.55 333.182 756.775 361.947 739.833C371.12 734.514 379.954 728.801 388.561 722.694C422.083 699.153 453.453 676.498 498.187 660.639C541.222 645.47 583.238 633.059 621.743 628.43C631.142 627.346 640.429 627.051 649.489 626.952C674.857 626.657 698.753 631.089 727.745 633.059C745.751 634.241 763.985 633.059 782.558 630.203C832.161 622.52 869.873 604.593 897.28 579.475C901.017 576.028 904.528 572.383 907.812 568.739C924.007 550.319 937.031 527.467 946.204 501.266C957.189 469.549 962.172 433.104 964.097 397.644C965.909 365.238 966.476 331.649 970.892 297.667C978.254 240.241 997.28 181.043 1028.31 133.27C1046.32 105.493 1068.4 82.3459 1093.66 62.8429C1139.3 27.4814 1195.92 4.33393 1259 -13.4946C1293.54 -23.2461 1329.33 -29.747 1365.46 -32.899" stroke="#F5B195" stroke-miterlimit="10"/>
<path d="M-29.8984 793.122C25.1411 812.921 101.925 818.929 173.272 813.807C210.418 811.049 245.979 804.745 277.575 792.925C309.852 780.81 336.012 764.065 364.098 745.744C373.045 739.932 381.539 733.825 389.919 727.423C422.422 702.601 452.547 678.468 496.941 662.314C539.183 646.85 581.878 635.916 621.176 633.552C630.802 632.961 640.315 633.257 649.488 633.946C675.423 635.916 699.545 642.023 728.537 645.077C746.657 646.948 764.777 645.963 782.897 642.811C831.708 634.439 869.307 612.375 894.901 584.499C898.412 580.658 901.696 576.718 904.641 572.778C919.476 552.782 930.801 529.044 938.616 502.547C948.015 470.436 952.206 434.385 954.697 399.418C956.962 367.208 959.001 333.521 964.663 299.44C974.063 242.015 994.675 183.21 1026.5 136.028C1045.18 108.448 1067.61 85.695 1093.32 66.6845C1139.52 32.111 1196.26 9.75149 1259.34 -8.07701C1293.88 -17.8285 1329.55 -24.428 1365.46 -27.8755" stroke="#4D7CBF" stroke-miterlimit="10"/>
<path d="M-24.8018 801.691C30.9173 826.218 107.135 834.393 177.916 828.286C214.835 824.937 250.283 817.353 281.54 803.76C313.476 789.97 338.957 771.255 366.251 751.456C374.971 745.251 383.125 738.651 391.279 731.953C422.649 705.752 451.641 680.34 495.809 663.693C537.258 648.032 580.52 637.984 620.61 638.477C630.463 638.575 640.202 639.265 649.602 640.644C675.989 644.485 700.565 652.76 729.443 656.798C747.563 659.359 765.57 658.472 783.35 655.123C831.368 646.16 868.741 619.762 892.637 589.227C895.921 585.09 898.865 580.756 901.583 576.422C915.06 554.85 924.573 530.225 931.142 503.433C939.069 470.928 942.353 435.37 945.411 400.698C948.242 368.685 951.527 334.801 958.548 300.72C970.1 243.295 992.183 184.786 1024.91 138.294C1044.17 110.911 1067.15 88.6499 1093.09 69.9349C1139.86 36.1494 1196.71 14.5779 1259.91 -3.1521C1294.33 -12.8051 1329.89 -19.5031 1365.8 -23.3446" stroke="#CFE1F4" stroke-miterlimit="10"/>
<path d="M-19.7051 810.359C36.6934 839.614 112.344 850.055 182.673 842.766C219.479 838.924 254.7 829.862 285.617 814.693C317.214 799.13 341.902 778.446 368.516 757.268C376.896 750.57 384.937 743.675 392.751 736.583C423.102 709.102 450.962 682.309 494.676 665.269C535.333 649.41 579.274 641.136 620.157 643.599C630.237 644.19 640.089 645.569 649.829 647.637C676.782 653.252 701.584 663.693 730.463 668.815C748.696 672.065 766.59 671.376 783.917 667.83C831.142 658.177 868.288 627.642 890.485 594.349C893.543 589.818 896.261 585.188 898.639 580.559C910.757 557.411 918.571 531.9 923.781 504.812C930.123 471.913 932.727 436.847 936.238 402.569C939.636 370.655 944.279 336.673 952.433 302.592C966.023 245.166 989.692 187.051 1023.21 141.15C1043.15 114.063 1066.48 92.0975 1092.75 73.875C1140.09 40.8775 1197.05 20.094 1260.36 2.36396C1294.67 -7.28904 1330.12 -13.987 1365.91 -18.124" stroke="#4D7CBF" stroke-miterlimit="10"/>
<path d="M-14.7227 819.027C42.3554 853.01 117.44 865.716 187.202 857.344C223.782 852.911 258.889 842.569 289.467 825.627C320.611 808.389 344.62 785.734 370.554 763.079C378.708 755.987 386.409 748.6 393.997 741.212C423.215 712.45 449.942 684.378 493.43 666.845C533.294 650.888 577.801 643.894 619.477 648.622C629.783 649.804 639.862 651.774 649.715 654.434C677.122 661.821 702.376 674.528 731.142 680.635C749.488 684.575 767.269 683.984 784.143 680.241C830.575 669.8 867.495 635.128 887.993 599.175C890.824 594.25 893.316 589.227 895.468 584.302C906.226 559.677 912.342 533.18 916.306 505.797C921.175 472.504 922.874 437.832 926.951 404.047C930.802 372.33 936.917 338.249 946.317 304.069C962.059 246.545 987.2 188.824 1021.52 143.613C1042.01 116.722 1065.8 95.1509 1092.41 77.3224C1140.31 45.1129 1197.39 25.1174 1260.7 7.38738C1295.01 -2.16712 1330.35 -9.06213 1365.91 -13.4946" stroke="#4D7CBF" stroke-miterlimit="10"/>
<path d="M-9.62695 827.695C78.4816 886.697 206.001 890.538 293.43 836.56C324.234 817.55 347.45 792.925 372.705 768.891C411.55 731.855 437.937 690.879 492.184 668.322C540.881 648.031 599.205 644.387 649.828 661.23C677.8 670.489 703.282 685.264 732.047 692.455C808.491 711.465 872.024 645.273 892.409 588.242C913.247 530.127 909.17 466.693 917.664 405.721C929.329 321.307 963.53 217.291 1019.82 146.174C1079.05 71.4125 1162.51 40.0894 1261.15 12.7064C1295.35 3.15193 1330.57 -3.74307 1366.13 -8.47107" stroke="#4D7CBF" stroke-miterlimit="10"/>
</g>
<path d="M1055.14 608.464C1058.23 597.449 1068.1 590.698 1077.18 593.385C1086.26 596.072 1091.12 607.18 1088.03 618.195C1084.93 629.209 1075.06 635.96 1065.98 633.273C1056.9 630.586 1052.04 619.479 1055.14 608.464Z" fill="#F5B195"/>
<path fill-rule="evenodd" clip-rule="evenodd" d="M1086.53 617.752C1083.61 628.169 1074.45 634.115 1066.41 631.739C1058.38 629.362 1053.71 619.323 1056.63 608.906C1059.56 598.489 1068.72 592.543 1076.75 594.92C1084.78 597.296 1089.46 607.335 1086.53 617.752ZM1065.55 634.807C1075.68 637.805 1086.26 630.249 1089.52 618.637C1092.78 607.024 1087.75 594.848 1077.61 591.851C1067.48 588.853 1056.9 596.409 1053.64 608.022C1050.38 619.634 1055.42 631.81 1065.55 634.807Z" fill="#14346A"/>
<path d="M1161.67 472.747C1150.46 480.296 1152.38 500.752 1154.75 510.036C1142.4 493.055 1131.65 454.23 1187.5 434.778C1193 432.861 1198.03 431.607 1202.61 430.929C1208.65 430.038 1213.92 430.146 1218.51 431.057C1245.81 436.475 1249.08 470.272 1246.23 490.983C1243.76 478.463 1233.8 481.623 1229.13 484.769C1216.45 491.319 1178.87 479.484 1161.67 472.747Z" fill="#14346A"/>
<path d="M1227.36 395.516C1250.32 402.465 1231.03 422.106 1218.51 431.057C1213.92 430.146 1208.65 430.038 1202.61 430.929C1201.29 416.229 1204.4 388.566 1227.36 395.516Z" fill="#14346A"/>
<path d="M1277.26 670.477C1260.66 670.024 1193.11 662.581 1166.62 681.135C1157.56 687.479 1157.41 692.135 1161.13 695.515L1121.63 695.515C1119.14 683.911 1155.18 628.932 1173.52 602.893C1177.51 598.458 1181.44 594.463 1185.17 590.929C1226.04 620.695 1263.59 584.865 1277.26 563.23C1295.12 565.523 1316.65 571.835 1329.67 590.929L1291.16 629.909L1277.26 670.477Z" fill="#14346A"/>
<path fill-rule="evenodd" clip-rule="evenodd" d="M1214.33 397.47C1217.4 395.854 1221.47 395.397 1226.92 397.047C1232.46 398.725 1235.03 401.045 1235.99 403.367C1236.96 405.688 1236.53 408.535 1234.86 411.795C1231.62 418.156 1224.26 424.915 1218.15 429.365C1213.96 428.61 1209.27 428.494 1204.04 429.127C1203.6 422.047 1204.22 412.727 1207.3 405.763C1208.95 402.028 1211.24 399.1 1214.33 397.47ZM1200.95 429.578C1200.46 422.197 1201.06 412.156 1204.46 404.444C1206.3 400.295 1209 396.692 1212.91 394.629C1216.84 392.554 1221.77 392.16 1227.8 393.984C1233.74 395.781 1237.37 398.522 1238.86 402.117C1240.35 405.713 1239.48 409.638 1237.62 413.276C1234.44 419.513 1227.92 425.807 1222.14 430.317C1234.42 434.012 1241.48 443.664 1245.15 454.772C1249.09 466.695 1249.22 480.458 1247.81 490.939C1249.05 497.655 1246.76 502.849 1243.42 506.54C1240.54 509.717 1236.88 511.798 1233.97 512.906C1235.35 520.444 1237.6 531.198 1240.17 540.561C1241.53 545.538 1242.98 550.077 1244.41 553.518C1245.13 555.242 1245.82 556.644 1246.48 557.676C1247.17 558.755 1247.7 559.23 1248 559.378C1248.16 559.455 1248.5 559.562 1249.08 559.666C1249.65 559.765 1250.37 559.847 1251.24 559.916C1252.92 560.05 1255.06 560.128 1257.6 560.221L1257.85 560.23C1263.13 560.423 1269.97 560.684 1277.45 561.645C1295.44 563.954 1317.53 570.351 1330.94 590.013C1334.2 594.784 1336.92 600.318 1338.95 606.734C1347.49 633.71 1348.29 657.91 1343.43 676.375C1338.58 694.827 1328.01 707.735 1313.74 711.566C1308.01 713.102 1299.97 712.889 1290.68 711.934C1283.54 711.2 1275.52 710.009 1267.04 708.751C1264.43 708.363 1261.78 707.968 1259.09 707.579C1236.18 704.26 1210.98 701.297 1190.13 705.373C1189.99 705.399 1189.85 705.407 1189.71 705.396L1189.84 703.804C1189.71 705.396 1189.71 705.396 1189.71 705.396L1189.71 705.396L1189.71 705.395L1189.7 705.394L1189.65 705.39L1189.46 705.373C1189.29 705.358 1189.05 705.335 1188.75 705.304C1188.13 705.241 1187.25 705.145 1186.17 705.009C1184.02 704.737 1181.06 704.305 1177.88 703.667C1174.7 703.029 1171.26 702.179 1168.13 701.063C1165.27 700.04 1162.56 698.752 1160.57 697.112L1121.63 697.112C1120.9 697.112 1120.27 696.591 1120.11 695.859C1119.71 693.981 1120.11 691.513 1120.91 688.81C1121.72 686.039 1123.03 682.758 1124.71 679.126C1128.06 671.858 1132.93 663.028 1138.44 653.784C1149.46 635.288 1163.07 614.998 1172.25 601.958C1172.29 601.906 1172.33 601.856 1172.37 601.808C1176.4 597.341 1180.36 593.317 1184.11 589.756C1191.98 582.295 1198.97 576.854 1203.83 573.645L1201.01 559.337C1189.73 560.86 1179.65 553.406 1171.69 543.702C1163.37 533.558 1156.96 520.495 1153.37 510.81C1147.08 502.084 1141.18 487.775 1144.02 473.023C1146.92 458.024 1158.74 443.108 1187 433.266C1192.01 431.519 1196.65 430.309 1200.95 429.578ZM1151.77 502.138C1147.75 494.187 1145.08 483.964 1147.07 473.644C1149.68 460.123 1160.41 445.9 1188 436.29C1193.42 434.399 1198.36 433.171 1202.83 432.51C1208.73 431.639 1213.82 431.753 1218.22 432.625C1231.16 435.193 1238.45 444.445 1242.2 455.798C1245.24 464.973 1245.91 475.41 1245.32 484.45C1245 483.982 1244.65 483.555 1244.28 483.169C1242.64 481.458 1240.67 480.64 1238.67 480.414C1234.82 479.979 1230.84 481.727 1228.35 483.38C1225.56 484.794 1221.2 485.294 1215.74 485.006C1210.28 484.719 1203.95 483.662 1197.43 482.181C1184.39 479.22 1170.77 474.603 1162.22 471.255C1161.75 471.072 1161.23 471.131 1160.81 471.412C1154.61 475.59 1152.21 483.211 1151.57 490.6C1151.23 494.545 1151.38 498.542 1151.77 502.138ZM1230.96 485.497C1233.08 484.28 1235.86 483.31 1238.33 483.589C1239.72 483.745 1240.99 484.288 1242.06 485.407C1243.15 486.543 1244.13 488.381 1244.71 491.301C1245.83 496.973 1243.97 501.245 1241.14 504.366C1238.95 506.783 1236.19 508.492 1233.83 509.526C1234.02 500.239 1232.65 491.635 1230.96 485.497ZM1232.57 521.986C1233.85 528.161 1235.44 535.099 1237.17 541.427C1238.55 546.456 1240.04 551.146 1241.55 554.774C1242.3 556.585 1243.08 558.177 1243.88 559.428C1244.65 560.631 1245.57 561.726 1246.67 562.263C1247.21 562.529 1247.88 562.695 1248.56 562.814C1249.26 562.937 1250.08 563.028 1251 563.1C1252.75 563.239 1254.94 563.32 1257.44 563.411L1257.74 563.422C1262.41 563.593 1268.2 563.814 1274.54 564.514C1267.55 574.849 1255.57 587.649 1240.75 594.914C1225.39 602.438 1206.99 604.042 1187.66 590.753C1195.32 583.628 1201.98 578.569 1206.39 575.764C1206.95 575.412 1207.23 574.744 1207.1 574.09L1204.06 558.708C1206.64 557.99 1209.24 556.792 1211.85 555.063C1224.27 546.838 1230.22 534.435 1232.57 521.986ZM1185.31 592.976C1205.9 607.446 1225.73 605.813 1242.09 597.796C1258.2 589.898 1270.96 575.821 1278.02 564.941C1295.19 567.27 1315.16 573.397 1327.63 590.751L1290.06 628.772C1289.9 628.943 1289.77 629.15 1289.69 629.38L1276.17 668.842C1273.96 668.755 1271.04 668.577 1267.56 668.366C1257.09 667.731 1241.62 666.793 1225.62 667.082C1214.44 667.283 1202.9 668.082 1192.47 670.007C1182.07 671.927 1172.63 674.992 1165.74 679.816C1161.14 683.037 1158.46 686.049 1157.59 688.973C1157.14 690.486 1157.19 691.943 1157.69 693.294C1157.76 693.507 1157.85 693.715 1157.95 693.918L1123.07 693.918C1123.11 692.888 1123.37 691.5 1123.89 689.733C1124.64 687.175 1125.88 684.053 1127.52 680.492C1130.8 673.374 1135.61 664.656 1141.09 655.45C1152.03 637.083 1165.57 616.908 1174.72 603.907C1178.34 599.893 1181.91 596.244 1185.31 592.976ZM1329.43 593.416C1332.05 597.558 1334.28 602.295 1335.99 607.721C1344.39 634.252 1345.09 657.808 1340.43 675.543C1335.77 693.291 1325.81 705.027 1312.95 708.476C1307.82 709.853 1300.28 709.712 1290.99 708.756C1283.93 708.03 1276 706.853 1267.54 705.597C1264.92 705.208 1262.24 704.81 1259.53 704.417C1236.75 701.116 1211.15 698.067 1189.76 702.194L1189.73 702.192C1189.58 702.178 1189.35 702.156 1189.05 702.126C1188.46 702.065 1187.6 701.972 1186.55 701.839C1184.45 701.573 1181.57 701.153 1178.47 700.532C1175.38 699.911 1172.09 699.095 1169.16 698.047C1166.19 696.988 1163.73 695.739 1162.16 694.319C1161.36 693.591 1160.86 692.872 1160.6 692.175C1160.36 691.503 1160.31 690.766 1160.57 689.9C1161.11 688.065 1163.03 685.577 1167.49 682.454C1173.85 678.001 1182.79 675.039 1193.02 673.15C1203.23 671.267 1214.58 670.475 1225.67 670.275C1241.55 669.988 1256.69 670.908 1267.15 671.543C1271.35 671.798 1274.79 672.007 1277.22 672.074C1277.89 672.092 1278.5 671.661 1278.72 671.007L1292.5 630.787L1329.43 593.416ZM1228.12 486.935C1229.79 493.26 1231.11 502.222 1230.64 511.75C1229.89 526.672 1224.79 542.691 1210.16 552.379C1207.34 554.254 1204.58 555.396 1201.93 555.944C1191.79 558.033 1182.22 551.577 1174.07 541.645C1166.01 531.814 1159.73 519.029 1156.23 509.551C1155.09 505.037 1154.07 497.835 1154.67 490.882C1155.25 484.141 1157.32 478.01 1161.88 474.539C1170.57 477.899 1183.92 482.384 1196.76 485.3C1203.37 486.801 1209.89 487.896 1215.58 488.196C1220.36 488.448 1224.74 488.15 1228.12 486.935Z" fill="#14346A"/>
<path d="M1211.01 553.721C1226.21 543.647 1231.43 527.031 1232.19 511.832C1234.9 527.02 1241.72 558.081 1247.34 560.821C1250.15 562.192 1262.44 561.328 1277.26 563.23C1263.59 584.865 1226.04 620.695 1185.17 590.929C1193.49 583.038 1200.79 577.45 1205.57 574.407L1202.23 557.51C1205.1 556.918 1208.03 555.693 1211.01 553.721Z" fill="#FFF9EF"/>
<path d="M1154.75 510.036C1152.38 500.752 1150.46 480.296 1161.67 472.747C1178.87 479.484 1216.45 491.319 1229.13 484.769C1231.07 491.289 1232.72 501.215 1232.19 511.832C1231.43 527.031 1226.21 543.647 1211.01 553.721C1208.03 555.693 1205.1 556.918 1202.23 557.51C1180.2 562.052 1161.82 529.228 1154.75 510.036Z" fill="#FFF9EF"/>
<path d="M1232.19 511.832C1232.72 501.215 1231.07 491.289 1229.13 484.769C1233.8 481.623 1243.76 478.463 1246.23 490.983C1248.71 503.504 1237.9 510.099 1232.19 511.832Z" fill="#FFF9EF"/>
<path d="M1337.47 607.228C1354.4 660.734 1340.48 702.741 1313.34 710.021C1291.63 715.846 1232.13 695.54 1189.84 703.804C1189.84 703.804 1168.31 702.022 1161.13 695.515C1157.41 692.135 1157.56 687.479 1166.62 681.135C1193.11 662.581 1260.66 670.024 1277.26 670.477L1291.16 629.909L1329.67 590.929C1332.83 595.566 1335.49 600.957 1337.47 607.228Z" fill="#FFF9EF"/>
<path fill-rule="evenodd" clip-rule="evenodd" d="M1214.33 397.47C1217.4 395.854 1221.47 395.397 1226.92 397.047C1232.46 398.725 1235.03 401.045 1235.99 403.367C1236.96 405.688 1236.53 408.535 1234.86 411.795C1231.62 418.156 1224.26 424.915 1218.15 429.365C1213.96 428.61 1209.27 428.494 1204.04 429.127C1203.6 422.047 1204.22 412.727 1207.3 405.763C1208.95 402.028 1211.24 399.1 1214.33 397.47ZM1200.95 429.578C1200.46 422.197 1201.06 412.156 1204.46 404.444C1206.3 400.295 1209 396.692 1212.91 394.629C1216.84 392.554 1221.77 392.16 1227.8 393.984C1233.74 395.781 1237.37 398.522 1238.86 402.117C1240.35 405.713 1239.48 409.638 1237.62 413.276C1234.44 419.513 1227.92 425.807 1222.14 430.317C1234.42 434.012 1241.48 443.664 1245.15 454.772C1249.09 466.695 1249.22 480.458 1247.81 490.939C1249.05 497.655 1246.76 502.849 1243.42 506.54C1240.54 509.717 1236.88 511.798 1233.97 512.906C1235.35 520.444 1237.6 531.198 1240.17 540.561C1241.53 545.538 1242.98 550.077 1244.41 553.518C1245.13 555.242 1245.82 556.644 1246.48 557.676C1247.17 558.755 1247.7 559.23 1248 559.378C1248.16 559.455 1248.5 559.562 1249.08 559.666C1249.65 559.765 1250.37 559.847 1251.24 559.916C1252.92 560.05 1255.06 560.128 1257.6 560.221L1257.85 560.23C1263.13 560.423 1269.97 560.684 1277.45 561.645C1295.44 563.954 1317.53 570.351 1330.94 590.013C1334.2 594.784 1336.92 600.318 1338.95 606.734C1347.49 633.71 1348.29 657.91 1343.43 676.375C1338.58 694.827 1328.01 707.735 1313.74 711.566C1308.01 713.102 1299.97 712.889 1290.68 711.934C1283.54 711.2 1275.52 710.009 1267.04 708.751C1264.43 708.363 1261.78 707.968 1259.09 707.579C1236.18 704.26 1210.98 701.297 1190.13 705.373C1189.99 705.399 1189.85 705.407 1189.71 705.396L1189.84 703.804C1189.71 705.396 1189.71 705.396 1189.71 705.396L1189.71 705.396L1189.71 705.395L1189.7 705.394L1189.65 705.39L1189.46 705.373C1189.29 705.358 1189.05 705.335 1188.75 705.304C1188.13 705.241 1187.25 705.145 1186.17 705.009C1184.02 704.737 1181.06 704.305 1177.88 703.667C1174.7 703.029 1171.26 702.179 1168.13 701.063C1165.27 700.04 1162.56 698.752 1160.57 697.112L1121.63 697.112C1120.9 697.112 1120.27 696.591 1120.11 695.859C1119.71 693.981 1120.11 691.513 1120.91 688.81C1121.72 686.039 1123.03 682.758 1124.71 679.126C1128.06 671.858 1132.93 663.028 1138.44 653.784C1149.46 635.288 1163.07 614.998 1172.25 601.958C1172.29 601.906 1172.33 601.856 1172.37 601.808C1176.4 597.341 1180.36 593.317 1184.11 589.756C1191.98 582.295 1198.97 576.854 1203.83 573.645L1201.01 559.337C1189.73 560.86 1179.65 553.406 1171.69 543.702C1163.37 533.558 1156.96 520.495 1153.37 510.81C1147.08 502.084 1141.18 487.775 1144.02 473.023C1146.92 458.024 1158.74 443.108 1187 433.266C1192.01 431.519 1196.65 430.309 1200.95 429.578ZM1151.77 502.138C1147.75 494.187 1145.08 483.964 1147.07 473.644C1149.68 460.123 1160.41 445.9 1188 436.29C1193.42 434.399 1198.36 433.171 1202.83 432.51C1208.73 431.639 1213.82 431.753 1218.22 432.625C1231.16 435.193 1238.45 444.445 1242.2 455.798C1245.24 464.973 1245.91 475.41 1245.32 484.45C1245 483.982 1244.65 483.555 1244.28 483.169C1242.64 481.458 1240.67 480.64 1238.67 480.414C1234.82 479.979 1230.84 481.727 1228.35 483.38C1225.56 484.794 1221.2 485.294 1215.74 485.006C1210.28 484.719 1203.95 483.662 1197.43 482.181C1184.39 479.22 1170.77 474.603 1162.22 471.255C1161.75 471.072 1161.23 471.131 1160.81 471.412C1154.61 475.59 1152.21 483.211 1151.57 490.6C1151.23 494.545 1151.38 498.542 1151.77 502.138ZM1230.96 485.497C1233.08 484.28 1235.86 483.31 1238.33 483.589C1239.72 483.745 1240.99 484.288 1242.06 485.407C1243.15 486.543 1244.13 488.381 1244.71 491.301C1245.83 496.973 1243.97 501.245 1241.14 504.366C1238.95 506.783 1236.19 508.492 1233.83 509.526C1234.02 500.239 1232.65 491.635 1230.96 485.497ZM1232.57 521.986C1233.85 528.161 1235.44 535.099 1237.17 541.427C1238.55 546.456 1240.04 551.146 1241.55 554.774C1242.3 556.585 1243.08 558.177 1243.88 559.428C1244.65 560.631 1245.57 561.726 1246.67 562.263C1247.21 562.529 1247.88 562.695 1248.56 562.814C1249.26 562.937 1250.08 563.028 1251 563.1C1252.75 563.239 1254.94 563.32 1257.44 563.411L1257.74 563.422C1262.41 563.593 1268.2 563.814 1274.54 564.514C1267.55 574.849 1255.57 587.649 1240.75 594.914C1225.39 602.438 1206.99 604.042 1187.66 590.753C1195.32 583.628 1201.98 578.569 1206.39 575.764C1206.95 575.412 1207.23 574.744 1207.1 574.09L1204.06 558.708C1206.64 557.99 1209.24 556.792 1211.85 555.063C1224.27 546.838 1230.22 534.435 1232.57 521.986ZM1185.31 592.976C1205.9 607.446 1225.73 605.813 1242.09 597.796C1258.2 589.898 1270.96 575.821 1278.02 564.941C1295.19 567.27 1315.16 573.397 1327.63 590.751L1290.06 628.772C1289.9 628.943 1289.77 629.15 1289.69 629.38L1276.17 668.842C1273.96 668.755 1271.04 668.577 1267.56 668.366C1257.09 667.731 1241.62 666.793 1225.62 667.082C1214.44 667.283 1202.9 668.082 1192.47 670.007C1182.07 671.927 1172.63 674.992 1165.74 679.816C1161.14 683.037 1158.46 686.049 1157.59 688.973C1157.14 690.486 1157.19 691.943 1157.69 693.294C1157.76 693.507 1157.85 693.715 1157.95 693.918L1123.07 693.918C1123.11 692.888 1123.37 691.5 1123.89 689.733C1124.64 687.175 1125.88 684.053 1127.52 680.492C1130.8 673.374 1135.61 664.656 1141.09 655.45C1152.03 637.083 1165.57 616.908 1174.72 603.907C1178.34 599.893 1181.91 596.244 1185.31 592.976ZM1329.43 593.416C1332.05 597.558 1334.28 602.295 1335.99 607.721C1344.39 634.252 1345.09 657.808 1340.43 675.543C1335.77 693.291 1325.81 705.027 1312.95 708.476C1307.82 709.853 1300.28 709.712 1290.99 708.756C1283.93 708.03 1276 706.853 1267.54 705.597C1264.92 705.208 1262.24 704.81 1259.53 704.417C1236.75 701.116 1211.15 698.067 1189.76 702.194L1189.73 702.192C1189.58 702.178 1189.35 702.156 1189.05 702.126C1188.46 702.065 1187.6 701.972 1186.55 701.839C1184.45 701.573 1181.57 701.153 1178.47 700.532C1175.38 699.911 1172.09 699.095 1169.16 698.047C1166.19 696.988 1163.73 695.739 1162.16 694.319C1161.36 693.591 1160.86 692.872 1160.6 692.175C1160.36 691.503 1160.31 690.766 1160.57 689.9C1161.11 688.065 1163.03 685.577 1167.49 682.454C1173.85 678.001 1182.79 675.039 1193.02 673.15C1203.23 671.267 1214.58 670.475 1225.67 670.275C1241.55 669.988 1256.69 670.908 1267.15 671.543C1271.35 671.798 1274.79 672.007 1277.22 672.074C1277.89 672.092 1278.5 671.661 1278.72 671.007L1292.5 630.787L1329.43 593.416ZM1228.12 486.935C1229.79 493.26 1231.11 502.222 1230.64 511.75C1229.89 526.672 1224.79 542.691 1210.16 552.379C1207.34 554.254 1204.58 555.396 1201.93 555.944C1191.79 558.033 1182.22 551.577 1174.07 541.645C1166.01 531.814 1159.73 519.029 1156.23 509.551C1155.09 505.037 1154.07 497.835 1154.67 490.882C1155.25 484.141 1157.32 478.01 1161.88 474.539C1170.57 477.899 1183.92 482.384 1196.76 485.3C1203.37 486.801 1209.89 487.896 1215.58 488.196C1220.36 488.448 1224.74 488.15 1228.12 486.935Z" fill="#14346A"/>
<path d="M1198.87 564.568C1182.69 539.017 1166.2 550.728 1159.97 559.777L1107.63 653.996C1107.63 653.996 1098.49 682.76 1119.52 695.516C1146.9 712.124 1170.34 615.088 1178.64 580.463C1194.55 584.982 1212.28 585.745 1198.87 564.568Z" fill="#FFF9EF"/>
<path fill-rule="evenodd" clip-rule="evenodd" d="M1161.29 560.636L1109.07 654.636C1109.06 654.675 1109.04 654.722 1109.03 654.776C1108.97 654.975 1108.89 655.275 1108.78 655.664C1108.58 656.443 1108.32 657.578 1108.06 658.983C1107.55 661.798 1107.08 665.668 1107.25 669.908C1107.58 678.39 1110.42 688.141 1120.32 694.141C1123.36 695.99 1126.26 696.226 1129.09 695.247C1132 694.243 1134.98 691.911 1137.97 688.368C1143.97 681.277 1149.65 669.831 1154.8 656.609C1164.78 630.959 1172.54 599.247 1176.78 581.577C1173.95 580.731 1171.22 579.785 1168.76 578.838C1167.96 578.529 1167.55 577.608 1167.85 576.782C1168.16 575.956 1169.05 575.538 1169.86 575.848C1172.66 576.926 1175.82 578.004 1179.06 578.924C1182.99 580.039 1186.98 580.91 1190.56 581.275C1194.17 581.643 1197.16 581.47 1199.19 580.663C1200.18 580.269 1200.87 579.752 1201.31 579.138C1201.75 578.537 1202.04 577.733 1202.05 576.607C1202.07 574.258 1200.88 570.667 1197.57 565.438C1189.67 552.964 1182 550.017 1175.88 550.782C1169.59 551.568 1164.28 556.321 1161.29 560.636ZM1179.78 582.428C1183.32 583.372 1186.93 584.114 1190.25 584.453C1194.01 584.836 1197.6 584.724 1200.32 583.64C1201.7 583.088 1202.93 582.258 1203.81 581.052C1204.69 579.833 1205.15 578.345 1205.16 576.635C1205.19 573.312 1203.57 569.057 1200.18 563.697C1191.89 550.62 1183.22 546.647 1175.5 547.612C1167.97 548.553 1161.95 554.138 1158.7 558.856C1158.68 558.898 1158.65 558.941 1158.62 558.986L1106.28 653.204C1106.23 653.298 1106.19 653.397 1106.15 653.5L1107.63 653.995C1106.15 653.5 1106.15 653.501 1106.15 653.502L1106.15 653.504L1106.15 653.51L1106.14 653.531L1106.12 653.603C1106.1 653.665 1106.08 653.753 1106.04 653.867C1105.98 654.095 1105.89 654.426 1105.78 654.848C1105.56 655.692 1105.28 656.904 1105 658.395C1104.46 661.372 1103.96 665.491 1104.14 670.036C1104.49 679.125 1107.59 690.134 1118.73 696.891C1122.53 699.194 1126.36 699.559 1130.08 698.274C1133.73 697.016 1137.14 694.221 1140.32 690.462C1146.68 682.947 1152.51 671.083 1157.69 657.794C1167.75 631.955 1175.54 600.098 1179.78 582.428Z" fill="#14346A"/>
<path fill-rule="evenodd" clip-rule="evenodd" d="M1188.6 506.309C1188.31 507.138 1188.72 508.054 1189.53 508.354L1193.57 509.856C1194.38 510.156 1195.27 509.727 1195.56 508.898C1195.86 508.068 1195.44 507.153 1194.63 506.853L1190.59 505.351C1189.78 505.051 1188.89 505.48 1188.6 506.309ZM1162.26 516.36C1161.78 517.087 1161.96 518.081 1162.66 518.58L1167.01 521.646C1167.72 522.146 1168.69 521.961 1169.18 521.234C1169.66 520.507 1169.48 519.513 1168.77 519.014L1164.43 515.947C1163.72 515.448 1162.75 515.633 1162.26 516.36ZM1178.01 523.313C1177.94 524.192 1178.58 524.961 1179.44 525.03L1190.73 525.937C1191.58 526.006 1192.33 525.349 1192.4 524.469C1192.47 523.59 1191.83 522.821 1190.97 522.753L1179.68 521.845C1178.82 521.777 1178.07 522.434 1178.01 523.313ZM1202.27 527.783C1201.41 527.85 1200.77 528.617 1200.84 529.497C1201.19 534.288 1199.83 536.359 1198.5 537.273C1197.05 538.27 1195.09 538.277 1193.67 537.882C1192.84 537.652 1191.98 538.156 1191.76 539.008C1191.54 539.859 1192.03 540.736 1192.86 540.966C1194.79 541.501 1197.77 541.619 1200.23 539.927C1202.82 538.152 1204.34 534.734 1203.94 529.255C1203.87 528.375 1203.13 527.717 1202.27 527.783Z" fill="#14346A"/>
<path fill-rule="evenodd" clip-rule="evenodd" d="M1184.31 498.99C1184.14 498.126 1183.32 497.567 1182.48 497.743L1170.28 500.283C1169.44 500.459 1168.89 501.301 1169.06 502.166C1169.23 503.03 1170.06 503.589 1170.9 503.413L1183.1 500.873C1183.94 500.698 1184.48 499.855 1184.31 498.99Z" fill="#14346A"/>
<path fill-rule="evenodd" clip-rule="evenodd" d="M1163.81 497.422C1167.01 500.279 1169.56 504.687 1170.61 509.99C1171.66 515.293 1170.99 520.373 1169.12 524.287C1167.25 528.198 1164.24 530.87 1160.6 531.628C1156.96 532.386 1153.18 531.13 1149.97 528.274C1146.77 525.417 1144.21 521.009 1143.17 515.706C1142.12 510.403 1142.79 505.323 1144.66 501.409C1146.53 497.497 1149.54 494.825 1153.18 494.067C1156.82 493.309 1160.6 494.566 1163.81 497.422ZM1165.85 495.01C1162.08 491.651 1157.34 489.942 1152.56 490.937C1147.78 491.933 1144.06 495.403 1141.87 500.004C1139.67 504.603 1138.94 510.407 1140.12 516.341C1141.29 522.275 1144.16 527.328 1147.93 530.686C1151.7 534.044 1156.44 535.754 1161.22 534.759C1166 533.763 1169.72 530.293 1171.91 525.692C1174.11 521.092 1174.83 515.288 1173.66 509.355C1172.49 503.421 1169.61 498.367 1165.85 495.01Z" fill="#14346A"/>
<path fill-rule="evenodd" clip-rule="evenodd" d="M1196.16 478.6C1204.35 476.894 1213.02 483.577 1215.12 494.205C1217.22 504.832 1211.78 514.455 1203.58 516.161C1195.39 517.867 1186.72 511.183 1184.62 500.556C1182.52 489.928 1187.97 480.306 1196.16 478.6ZM1218.17 493.57C1215.83 481.724 1205.87 473.317 1195.54 475.47C1185.21 477.622 1179.23 489.345 1181.57 501.191C1183.92 513.036 1193.87 521.443 1204.2 519.291C1214.54 517.139 1220.51 505.415 1218.17 493.57Z" fill="#14346A"/>
<path d="M1185.42 647.607L1193.2 669.965C1181.93 672.008 1164.29 678.837 1160.53 685.934C1157.42 676.352 1151.19 659.425 1151.19 655.592C1151.19 651.759 1152.75 649.45 1157.42 647.607C1164.16 644.946 1173.91 641.22 1177.64 641.22C1181.38 641.22 1183.87 642.817 1185.42 647.607Z" fill="#F5B195"/>
<path fill-rule="evenodd" clip-rule="evenodd" d="M1181.41 643.89C1182.35 644.626 1183.23 645.895 1183.95 648.112L1183.96 648.145L1183.96 648.145L1191.12 668.748C1185.68 669.902 1179.17 671.988 1173.42 674.593C1170.22 676.044 1167.21 677.673 1164.75 679.417C1163.36 680.403 1162.09 681.457 1161.06 682.57C1160.47 680.805 1159.81 678.88 1159.14 676.904C1158.14 673.967 1157.1 670.914 1156.17 668.096C1155.2 665.149 1154.33 662.403 1153.71 660.165C1153.07 657.847 1152.75 656.288 1152.75 655.592C1152.75 653.907 1153.09 652.755 1153.78 651.832C1154.51 650.873 1155.77 649.97 1157.98 649.098C1161.34 647.768 1165.44 646.184 1169.14 644.933C1171 644.307 1172.74 643.772 1174.23 643.394C1175.75 643.009 1176.91 642.817 1177.64 642.817C1179.29 642.817 1180.48 643.167 1181.41 643.89ZM1183.29 641.344C1181.65 640.071 1179.73 639.623 1177.64 639.623C1176.51 639.623 1175.05 639.896 1173.48 640.293C1171.88 640.697 1170.06 641.26 1168.17 641.898C1164.39 643.176 1160.23 644.785 1156.86 646.117C1154.4 647.088 1152.55 648.261 1151.33 649.875C1150.08 651.525 1149.64 653.445 1149.64 655.592C1149.64 656.812 1150.1 658.807 1150.72 661.04C1151.36 663.353 1152.25 666.157 1153.22 669.118C1154.19 672.054 1155.22 675.094 1156.22 678.002C1157.26 681.053 1158.25 683.958 1159.05 686.439C1159.25 687.042 1159.77 687.469 1160.39 687.525C1161.01 687.58 1161.6 687.255 1161.9 686.696C1162.66 685.247 1164.23 683.662 1166.52 682.046C1168.77 680.451 1171.59 678.914 1174.68 677.515C1180.86 674.715 1187.96 672.535 1193.47 671.537C1193.92 671.455 1194.31 671.174 1194.55 670.767C1194.78 670.36 1194.82 669.87 1194.67 669.427L1186.89 647.086C1186.06 644.521 1184.91 642.602 1183.29 641.344Z" fill="#14346A"/>
<path d="M1123.19 697.112H1023.62C1022.06 691.257 1019.88 677.949 1023.62 671.561C1024.61 669.866 1029.86 668.884 1037.62 668.404C1059.13 667.075 1099.95 669.606 1123.19 671.561C1121.11 676.352 1118.21 688.169 1123.19 697.112Z" fill="#14346A"/>
<path fill-rule="evenodd" clip-rule="evenodd" d="M1031.43 641.22C1030.87 641.209 1030.35 641.505 1030.06 641.995C1029.23 643.421 1028.14 645.728 1027.59 648.07C1027.07 650.275 1026.87 653.199 1028.74 655.124C1029.58 655.981 1030.69 656.599 1031.83 657.059C1032.99 657.525 1034.27 657.867 1035.54 658.118C1037.66 658.541 1039.84 658.725 1041.45 658.773C1041.88 659.544 1042.03 660.235 1042.02 660.844C1042 661.634 1041.73 662.437 1041.22 663.239C1040.24 664.778 1038.57 666.072 1037.19 666.831C1033.43 667.072 1030.2 667.438 1027.76 667.964C1026.5 668.234 1025.4 668.557 1024.51 668.957C1023.67 669.335 1022.79 669.882 1022.28 670.739C1020.16 674.376 1019.81 679.727 1020.08 684.628C1020.36 689.614 1021.32 694.516 1022.12 697.532C1022.3 698.227 1022.92 698.709 1023.62 698.709H1123.19C1123.74 698.709 1124.26 698.406 1124.53 697.913C1124.81 697.421 1124.82 696.814 1124.54 696.319C1122.26 692.223 1121.75 687.39 1122.1 682.906C1122.4 679.003 1123.35 675.481 1124.23 673.158H1134.08C1134.25 673.158 1134.41 673.13 1134.57 673.076C1136.01 672.583 1136.9 671.523 1137.34 670.258C1137.75 669.068 1137.76 667.728 1137.61 666.492C1137.3 664.01 1136.29 661.354 1135.47 659.669C1135.22 659.145 1134.7 658.807 1134.13 658.787L1114.49 658.104C1113.64 657.234 1112.63 655.934 1112.01 654.516C1111.29 652.881 1111.2 651.372 1112.04 650.09C1112.32 649.658 1112.48 649.07 1112.31 648.433C1112.17 647.869 1111.81 647.493 1111.55 647.272C1111.04 646.842 1110.33 646.55 1109.65 646.329C1108.21 645.863 1106.07 645.453 1103.47 645.082C1098.24 644.337 1090.77 643.705 1082.41 643.179C1065.66 642.126 1045.18 641.486 1031.43 641.22ZM1110.34 657.959L1042.34 655.593L1042.29 655.592C1040.81 655.592 1038.42 655.439 1036.13 654.982C1034.98 654.755 1033.89 654.458 1032.97 654.086C1032.03 653.707 1031.35 653.287 1030.94 652.866C1030.33 652.236 1030.12 650.902 1030.61 648.822C1030.98 647.253 1031.67 645.644 1032.3 644.432C1046.01 644.708 1065.91 645.341 1082.22 646.367C1090.56 646.892 1097.93 647.518 1103.05 648.246C1105.62 648.613 1107.54 648.994 1108.71 649.374C1108.76 649.391 1108.81 649.409 1108.86 649.426C1107.92 651.653 1108.36 653.961 1109.17 655.821C1109.5 656.58 1109.91 657.3 1110.34 657.959ZM1120.98 672.979C1120.11 675.518 1119.28 678.928 1118.99 682.652C1118.68 686.728 1118.99 691.289 1120.7 695.515H1024.82C1024.14 692.654 1023.42 688.567 1023.19 684.444C1022.92 679.63 1023.34 675.134 1024.95 672.382C1024.95 672.383 1024.95 672.384 1024.95 672.382C1024.97 672.363 1025.14 672.159 1025.76 671.883C1026.37 671.607 1027.25 671.337 1028.4 671.09C1030.69 670.596 1033.86 670.236 1037.71 669.998C1058.47 668.716 1097.44 671.052 1120.98 672.979ZM1123.25 669.964C1101.72 668.154 1065.06 665.845 1042.59 666.576C1043.05 666.083 1043.46 665.55 1043.83 664.98C1044.56 663.818 1045.1 662.438 1045.13 660.898C1045.14 660.226 1045.05 659.55 1044.86 658.876L1133.08 661.946C1133.7 663.391 1134.32 665.244 1134.52 666.888C1134.64 667.888 1134.59 668.664 1134.41 669.19C1134.28 669.567 1134.09 669.809 1133.78 669.964H1123.25Z" fill="#14346A"/>
<path d="M1123.19 671.561C1099.95 669.606 1059.13 667.075 1037.62 668.404C1040.73 666.795 1046.02 662.299 1042.29 657.189L1113.85 659.679L1134.08 660.383C1135.64 663.577 1137.81 670.283 1134.08 671.561H1123.19Z" fill="#FFF9EF"/>
<path d="M1113.85 659.679L1042.29 657.189C1039.18 657.189 1032.33 656.551 1029.84 653.995C1027.35 651.44 1029.84 645.478 1031.4 642.817C1058.88 643.349 1113.23 645.372 1110.74 649.205C1108.25 653.037 1111.78 657.785 1113.85 659.679Z" fill="#FFF9EF"/>
<path fill-rule="evenodd" clip-rule="evenodd" d="M1031.43 641.22C1030.87 641.209 1030.35 641.505 1030.06 641.995C1029.23 643.421 1028.14 645.728 1027.59 648.07C1027.07 650.275 1026.87 653.199 1028.74 655.124C1029.58 655.981 1030.69 656.599 1031.83 657.059C1032.99 657.525 1034.27 657.867 1035.54 658.118C1037.66 658.541 1039.84 658.725 1041.45 658.773C1041.88 659.544 1042.03 660.235 1042.02 660.844C1042 661.634 1041.73 662.437 1041.22 663.239C1040.24 664.778 1038.57 666.072 1037.19 666.831C1033.43 667.072 1030.2 667.438 1027.76 667.964C1026.5 668.234 1025.4 668.557 1024.51 668.957C1023.67 669.335 1022.79 669.882 1022.28 670.739C1020.16 674.376 1019.81 679.727 1020.08 684.628C1020.36 689.614 1021.32 694.516 1022.12 697.532C1022.3 698.227 1022.92 698.709 1023.62 698.709H1123.19C1123.74 698.709 1124.26 698.406 1124.53 697.913C1124.81 697.421 1124.82 696.814 1124.54 696.319C1122.26 692.223 1121.75 687.39 1122.1 682.906C1122.4 679.003 1123.35 675.481 1124.23 673.158H1134.08C1134.25 673.158 1134.41 673.13 1134.57 673.076C1136.01 672.583 1136.9 671.523 1137.34 670.258C1137.75 669.068 1137.76 667.728 1137.61 666.492C1137.3 664.01 1136.29 661.354 1135.47 659.669C1135.22 659.145 1134.7 658.807 1134.13 658.787L1114.49 658.104C1113.64 657.234 1112.63 655.934 1112.01 654.516C1111.29 652.881 1111.2 651.372 1112.04 650.09C1112.32 649.658 1112.48 649.07 1112.31 648.433C1112.17 647.869 1111.81 647.493 1111.55 647.272C1111.04 646.842 1110.33 646.55 1109.65 646.329C1108.21 645.863 1106.07 645.453 1103.47 645.082C1098.24 644.337 1090.77 643.705 1082.41 643.179C1065.66 642.126 1045.18 641.486 1031.43 641.22ZM1110.34 657.959L1042.34 655.593L1042.29 655.592C1040.81 655.592 1038.42 655.439 1036.13 654.982C1034.98 654.755 1033.89 654.458 1032.97 654.086C1032.03 653.707 1031.35 653.287 1030.94 652.866C1030.33 652.236 1030.12 650.902 1030.61 648.822C1030.98 647.253 1031.67 645.644 1032.3 644.432C1046.01 644.708 1065.91 645.341 1082.22 646.367C1090.56 646.892 1097.93 647.518 1103.05 648.246C1105.62 648.613 1107.54 648.994 1108.71 649.374C1108.76 649.391 1108.81 649.409 1108.86 649.426C1107.92 651.653 1108.36 653.961 1109.17 655.821C1109.5 656.58 1109.91 657.3 1110.34 657.959ZM1120.98 672.979C1120.11 675.518 1119.28 678.928 1118.99 682.652C1118.68 686.728 1118.99 691.289 1120.7 695.515H1024.82C1024.14 692.654 1023.42 688.567 1023.19 684.444C1022.92 679.63 1023.34 675.134 1024.95 672.382C1024.95 672.383 1024.95 672.384 1024.95 672.382C1024.97 672.363 1025.14 672.159 1025.76 671.883C1026.37 671.607 1027.25 671.337 1028.4 671.09C1030.69 670.596 1033.86 670.236 1037.71 669.998C1058.47 668.716 1097.44 671.052 1120.98 672.979ZM1123.25 669.964C1101.72 668.154 1065.06 665.845 1042.59 666.576C1043.05 666.083 1043.46 665.55 1043.83 664.98C1044.56 663.818 1045.1 662.438 1045.13 660.898C1045.14 660.226 1045.05 659.55 1044.86 658.876L1133.08 661.946C1133.7 663.391 1134.32 665.244 1134.52 666.888C1134.64 667.888 1134.59 668.664 1134.41 669.19C1134.28 669.567 1134.09 669.809 1133.78 669.964H1123.25Z" fill="#14346A"/>
<path d="M1065.98 633.273C1075.06 635.96 1084.93 629.209 1088.03 618.195C1091.12 607.18 1086.26 596.072 1077.18 593.385C1082.14 594.502 1088.8 597.064 1094.18 601.297C1101.5 607.061 1106.43 615.922 1101.41 628.444C1099.66 631.467 1095.69 635.366 1089.5 637.051C1086.67 637.82 1083.38 638.127 1079.62 637.678C1075.61 637.197 1071.06 635.849 1065.98 633.273Z" fill="#14346A"/>
<path d="M1089.5 637.051L1093.63 644.415L1085.85 644.415L1079.62 637.678C1083.38 638.127 1086.67 637.82 1089.5 637.051Z" fill="#14346A"/>
<path d="M1065.98 633.273C1068.89 634.747 1071.62 635.819 1074.17 636.556L1065.98 642.818L1059.4 642.818L1065.98 633.273Z" fill="#14346A"/>
<path fill-rule="evenodd" clip-rule="evenodd" d="M1096.71 601.354L1105.45 594.666C1106.14 594.139 1106.28 593.138 1105.77 592.431C1105.25 591.724 1104.28 591.578 1103.59 592.105L1094.18 599.307C1089.31 595.733 1083.64 593.421 1079.04 592.198L1081.15 582.481C1081.33 581.62 1080.8 580.766 1079.96 580.575C1079.13 580.383 1078.29 580.925 1078.11 581.786L1076.01 591.463C1066.39 589.663 1056.73 597.023 1053.64 608.022C1050.61 618.834 1054.77 630.136 1063.53 634.061L1058.13 641.895C1057.8 642.383 1057.75 643.022 1058.02 643.552C1058.29 644.082 1058.82 644.415 1059.4 644.415L1065.98 644.415C1066.32 644.415 1066.64 644.304 1066.91 644.099L1074.5 638.3C1076.01 638.705 1077.47 638.998 1078.88 639.191L1084.72 645.514C1085.01 645.832 1085.42 646.012 1085.85 646.012L1093.63 646.012C1094.18 646.012 1094.7 645.708 1094.98 645.214C1095.25 644.721 1095.25 644.113 1094.98 643.618L1091.82 637.984C1097.34 635.969 1101 632.289 1102.75 629.258C1102.78 629.192 1102.82 629.123 1102.85 629.052C1105.48 622.476 1105.55 616.726 1103.89 611.813C1102.48 607.62 1099.84 604.155 1096.71 601.354ZM1088.73 638.881C1087.09 639.241 1085.33 639.455 1083.44 639.48L1086.52 642.818L1090.94 642.818L1088.73 638.881ZM1074.47 634.982C1076.36 635.533 1078.14 635.891 1079.81 636.091C1083.37 636.518 1086.47 636.223 1089.1 635.507C1094.82 633.953 1098.44 630.393 1100.01 627.727C1102.35 621.829 1102.32 616.922 1100.95 612.859C1099.56 608.737 1096.73 605.318 1093.23 602.564C1091.16 600.933 1088.88 599.556 1086.58 598.423C1090.33 603.752 1091.58 611.307 1089.52 618.637C1087.2 626.893 1081.19 633.1 1074.26 634.919C1074.33 634.94 1074.4 634.962 1074.47 634.982ZM1066.49 635.296C1067.98 636.006 1069.42 636.614 1070.82 637.129L1065.47 641.221L1062.41 641.221L1066.49 635.296ZM1086.53 617.752C1083.61 628.169 1074.45 634.115 1066.41 631.738C1058.38 629.362 1053.71 619.323 1056.63 608.906C1059.56 598.489 1068.72 592.543 1076.75 594.92C1084.79 597.296 1089.46 607.335 1086.53 617.752ZM1074.7 626.755C1075.51 626.458 1075.93 625.545 1075.64 624.714L1071.93 614.038L1075.66 601.772C1075.92 600.931 1075.46 600.035 1074.64 599.772C1073.82 599.509 1072.95 599.979 1072.69 600.821L1068.81 613.596C1068.71 613.927 1068.71 614.282 1068.83 614.609L1072.71 625.787C1073 626.618 1073.89 627.051 1074.7 626.755Z" fill="#14346A"/>
<path d="M1102.78 602.385C1104.37 603.061 1106.25 602.277 1106.41 600.521C1106.76 596.689 1104.97 593.079 1101.72 591.696C1098.47 590.312 1094.73 591.57 1092.33 594.531C1091.23 595.888 1092.02 597.806 1093.61 598.482L1102.78 602.385Z" fill="#14346A"/>
<path d="M1082.89 592.946C1084.55 593.398 1086.31 592.362 1086.21 590.601C1086 586.737 1083.6 583.355 1080.01 582.376C1076.41 581.397 1072.7 583.114 1070.65 586.362C1069.71 587.843 1070.74 589.64 1072.4 590.092L1082.89 592.946Z" fill="#14346A"/>
</svg>
