<svg width="1699" height="741" viewBox="0 0 1699 741" fill="none" xmlns="http://www.w3.org/2000/svg">
<g clip-path="url(#clip0_188_72)">
<rect width="1699" height="741" fill="white"/>
<mask id="mask0_188_72" style="mask-type:luminance" maskUnits="userSpaceOnUse" x="-36" y="0" width="1735" height="788">
<path d="M1699 0H-35.9932V788H1699V0Z" fill="white"/>
</mask>
<g mask="url(#mask0_188_72)">
<path d="M1699 0H-35.9932V788H1699V0Z" fill="#CFE1F4"/>
</g>
<path d="M1661.19 656.774C1778.07 647.58 1812.26 703.615 1814.75 732.782L2037.19 2110.47L60.0545 2429.69L-162.385 1052.01C-169.203 1023.54 -154.38 959.59 -40.5484 931.534C101.741 896.464 91.1821 855.832 107.873 818.865C124.563 781.897 154.244 742.832 281.936 749.432C409.627 756.032 531.865 745.367 613.945 667.601C679.61 605.389 750.115 588.159 776.377 583.918C802.639 579.678 874.985 573.844 956.891 612.23C1059.27 660.212 1178.66 631.865 1297.78 585.415C1416.91 538.964 1457.38 566.703 1484.85 596.539C1512.33 626.375 1515.09 668.266 1661.19 656.774Z" fill="#14346A"/>
<mask id="mask1_188_72" style="mask-type:luminance" maskUnits="userSpaceOnUse" x="229" y="0" width="1470" height="741">
<path d="M1699 0H229V741H1699V0Z" fill="white"/>
</mask>
<g mask="url(#mask1_188_72)">
<path d="M171.303 -114.021C234.758 -159.13 326.265 -179.693 412.26 -168.392C498.255 -157.092 576.533 -113.836 618.673 -54.7415C672.205 20.47 669.878 118.097 746.808 180.248C812.1 232.859 913.898 243.326 1006.88 253.7C1099.85 264.074 1202.75 282.599 1255.55 342.898C1291.2 383.653 1298.79 438.672 1346.81 470.998C1395.69 503.787 1470.78 500.823 1529.09 480.446C1587.4 460.068 1634.69 425.612 1687.36 397.639C1846.86 313.072 2060.87 291.954 2245.35 342.527" stroke="#4D7CBF" stroke-miterlimit="10"/>
<path d="M162.728 -108.279C198.743 -133.102 243.578 -149.682 290.495 -156.722C329.205 -162.557 369.263 -162.001 407.115 -154.962C415.813 -153.295 424.265 -151.35 432.595 -149.127C475.593 -137.363 514.303 -117.171 548.48 -91.8843C571.878 -74.5634 593.193 -55.2974 610.098 -34.642C619.53 -23.1565 627.738 -11.3932 635.088 0.555454C655.178 33.1595 668.898 66.9676 686.905 98.6453C703.565 128.378 724.145 156.351 757.343 179.785C760.65 182.1 763.958 184.323 767.51 186.546C806.22 210.999 854.73 226.19 902.873 238.139C940.113 247.401 976.985 254.07 1012.27 260.554C1015.82 261.202 1019.37 261.851 1022.92 262.499C1069.72 271.391 1118.6 282.969 1160.25 302.42C1191.61 316.962 1219.17 336.321 1241.71 361.422C1277.36 401.251 1287.77 452.658 1335.79 482.576C1384.3 513.05 1457.55 509.993 1515.01 490.912C1553.23 478.223 1586.91 459.79 1620.48 441.45C1637.38 432.188 1654.29 422.925 1671.68 414.404C1741.88 380.04 1821.87 358.273 1903.7 349.752C2005.62 339.192 2109.87 349.196 2202.48 378.002" stroke="#4D7CBF" stroke-miterlimit="10"/>
<path d="M154.274 -102.536C191.392 -127.452 238.064 -143.198 285.839 -148.57C325.284 -153.016 365.342 -150.515 402.092 -141.438C410.544 -139.4 418.752 -136.992 426.714 -134.213C467.997 -120.134 503.277 -97.8117 537.454 -71.4135C560.729 -53.3517 583.147 -34.0857 601.889 -14.3566C612.302 -3.33418 621.612 7.78083 630.064 18.8032C653.217 48.999 670.367 78.8242 690.947 106.89C710.302 133.288 733.209 158.019 768.122 179.6C771.552 181.731 775.104 183.768 778.779 185.806C819.327 208.314 869.429 224.245 916.102 238.51C952.239 249.625 985.927 258.702 1017.78 267.409C1020.96 268.242 1024.15 269.169 1027.45 270.002C1069.72 281.766 1113.94 296.03 1151.55 317.426C1179.84 333.543 1204.83 354.569 1228.11 379.948C1263.76 418.851 1277.11 466.46 1325.01 494.155C1373.39 522.127 1444.69 519.163 1501.28 501.379C1538.89 489.616 1572.33 472.573 1605.65 455.715C1622.44 447.194 1639.22 438.765 1656.37 431.077C1725.7 400.048 1803.86 381.615 1882.26 376.336C1979.89 369.759 2077.16 383.746 2160.09 413.386" stroke="#4D7CBF" stroke-miterlimit="10"/>
<path d="M145.7 -96.7932C184.043 -121.802 232.43 -136.807 281.063 -140.512C321.12 -143.569 361.3 -139.123 397.07 -128.1C405.278 -125.6 413.118 -122.728 420.835 -119.579C460.28 -103.184 492.375 -78.8239 526.308 -51.3143C549.46 -32.4188 573.103 -13.338 593.56 5.65011C604.953 16.2094 615.243 26.5834 624.798 36.6795C651.013 64.3744 671.348 90.3094 694.745 114.855C716.673 137.826 741.908 159.408 778.658 179.044C782.333 180.989 786.008 182.934 789.805 184.787C832.313 205.72 884.13 222.3 929.333 238.973C964.368 252.033 994.748 263.518 1023.29 274.355C1026.11 275.467 1029.05 276.486 1031.87 277.597C1069.72 292.047 1109.16 309.09 1142.73 332.616C1167.84 350.215 1190.38 373.001 1214.39 398.658C1249.92 436.634 1266.33 480.538 1314.11 505.918C1362.25 531.482 1431.58 528.518 1487.44 512.031C1524.56 501.101 1557.64 485.448 1590.71 470.072C1607.37 462.384 1623.91 454.789 1640.94 447.935C1709.41 420.24 1785.61 405.142 1860.7 403.104C1954.17 400.603 2044.21 418.572 2117.46 448.953" stroke="#4D7CBF" stroke-miterlimit="10"/>
<path d="M137.124 -91.0502C176.692 -116.152 226.794 -130.323 276.284 -132.361C317.077 -134.028 357.257 -127.637 392.047 -114.67C400.009 -111.706 407.604 -108.371 414.954 -104.851C452.684 -86.2337 481.472 -59.6503 515.159 -31.1218C538.189 -11.4853 563.056 7.59543 585.106 25.6573C597.356 35.7534 608.871 45.479 619.529 54.6489C648.929 79.8429 672.449 101.888 698.542 122.821C722.919 142.365 750.604 160.797 789.192 178.581C792.989 180.341 796.909 182.101 800.952 183.768C845.419 203.034 898.829 220.17 942.561 239.343C976.494 254.256 1003.57 268.15 1028.8 281.117C1031.37 282.414 1033.82 283.711 1036.4 285.007C1069.84 302.236 1104.63 321.965 1134.03 347.622C1156.08 366.795 1175.92 391.248 1200.79 417.183C1236.19 454.233 1255.55 494.432 1303.32 517.589C1351.22 540.745 1418.72 537.781 1473.6 522.59C1510.1 512.494 1543.06 498.23 1575.76 484.429C1592.18 477.482 1608.72 470.72 1625.5 464.7C1693.12 440.339 1767.48 428.576 1839.14 429.78C1928.32 431.262 2011.37 453.214 2074.95 484.429" stroke="#4D7CBF" stroke-miterlimit="10"/>
<path d="M128.549 -85.3076C169.341 -110.502 221.036 -123.932 271.506 -124.303C312.911 -124.673 353.091 -116.244 386.901 -101.332C394.619 -97.9046 401.969 -94.1996 408.951 -90.1241C444.844 -69.1908 470.446 -40.5697 503.889 -10.9297C526.796 9.54043 552.766 28.5285 576.654 45.7568C589.884 55.3898 602.501 64.3744 614.261 72.618C646.724 95.4038 673.429 113.466 702.339 130.879C729.289 147.089 759.424 162.279 799.726 178.211C803.769 179.785 807.811 181.36 811.976 182.934C858.404 200.348 913.406 218.317 955.669 239.806C988.499 256.664 1012.26 272.873 1034.07 288.064C1036.27 289.546 1038.48 291.028 1040.68 292.602C1069.72 312.702 1099.73 335.025 1125.09 362.812C1143.95 383.468 1161.35 409.681 1186.95 435.893C1222.35 472.017 1244.52 508.511 1292.18 529.352C1339.83 550.1 1405.37 547.136 1459.51 533.242C1495.53 524.072 1528.11 511.105 1560.57 498.878C1576.87 492.765 1593.16 486.745 1609.7 481.558C1676.46 460.624 1748.98 452.103 1817.21 456.456C1902.23 462.014 1978.05 487.949 2032.08 519.904" stroke="#4D7CBF" stroke-miterlimit="10"/>
<path d="M119.975 -79.6578C161.87 -104.944 215.402 -117.634 266.73 -116.245C308.87 -115.226 349.05 -104.852 381.88 -87.9014C389.352 -84.0111 396.457 -79.843 403.072 -75.397C437.25 -52.1481 459.545 -21.3967 492.742 9.35484C515.65 30.566 542.722 49.4615 568.325 65.9487C582.535 75.026 596.255 83.4548 609.117 90.7722C644.642 111.057 674.532 125.229 706.382 139.03C735.782 151.812 768.367 163.853 810.63 177.84C814.795 179.229 819.082 180.618 823.492 182.008C871.757 197.754 928.475 216.279 969.267 240.269C1000.87 258.979 1021.45 277.504 1039.95 294.918C1041.79 296.678 1043.62 298.345 1045.58 300.105C1070.21 322.983 1095.44 347.992 1116.76 377.91C1132.56 400.047 1147.26 428.02 1173.72 454.511C1209 489.801 1234.23 522.497 1281.76 541.022C1329.17 559.455 1392.87 556.398 1446.16 543.801C1481.56 535.465 1513.9 523.887 1546.12 513.235C1562.29 507.863 1578.46 502.768 1594.75 498.415C1660.66 480.816 1731.22 475.629 1796.02 483.224C1876.75 492.857 1945.59 522.683 1989.94 555.472" stroke="#4D7CBF" stroke-miterlimit="10"/>
<path d="M111.399 -73.9147C154.519 -99.2939 209.767 -111.15 261.952 -108.093C304.704 -105.685 345.007 -93.3659 376.734 -74.4704C383.962 -70.2097 390.822 -65.4858 397.069 -60.5767C429.409 -35.0122 448.519 -2.13032 481.472 29.6401C504.257 51.6848 532.554 70.4877 559.749 86.0487C574.817 94.6628 589.639 102.351 603.604 108.742C642.314 126.526 675.267 136.807 709.934 146.996C741.907 156.351 776.819 165.15 820.919 177.377C825.329 178.581 829.739 179.785 834.272 181.082C884.497 195.068 942.807 214.242 982.129 240.64C1012.63 261.295 1029.9 282.136 1045.09 301.772C1046.56 303.717 1048.16 305.663 1049.63 307.608C1069.72 333.357 1090.42 360.96 1107.57 392.915C1120.19 416.627 1132.31 446.267 1159.51 472.943C1194.54 507.307 1222.84 536.299 1270.37 552.508C1317.41 568.532 1379.27 565.476 1431.7 554.175C1466.62 546.673 1498.71 536.484 1530.56 527.407C1546.61 522.775 1562.53 518.515 1578.7 514.995C1643.75 500.731 1712.47 498.878 1773.85 509.715C1850.41 523.331 1912.15 557.232 1946.69 590.762" stroke="#4D7CBF" stroke-miterlimit="10"/>
<path d="M102.948 -68.172C147.293 -93.6439 204.256 -104.759 257.298 -100.035C300.786 -96.2374 341.088 -81.8806 371.836 -61.1326C378.818 -56.4087 385.311 -51.3143 391.313 -45.9421C421.938 -18.0619 437.741 16.8577 470.448 49.7396C493.111 72.5253 522.511 91.3282 551.543 106.056C567.591 114.207 583.516 121.153 598.583 126.711C640.478 141.994 676.493 148.478 713.978 155.054C748.401 161.075 785.763 166.632 831.701 177.006C836.233 178.025 840.888 179.044 845.543 180.156C897.606 192.382 957.631 212.296 995.361 241.103C1024.76 263.611 1038.73 286.86 1050.61 308.626C1051.83 310.757 1052.94 312.887 1054.16 315.018C1069.84 343.639 1085.89 373.742 1098.87 407.92C1108.43 433.114 1117.86 464.514 1145.91 491.468C1180.83 524.998 1212.06 550.285 1259.59 564.086C1306.39 577.702 1366.41 574.645 1417.99 564.735C1452.29 558.158 1484.14 549.266 1515.74 541.764C1531.67 537.966 1547.47 534.539 1563.39 531.76C1627.46 520.83 1694.35 522.312 1752.41 536.391C1824.69 554.083 1879.32 591.874 1904.31 626.238" stroke="#4D7CBF" stroke-miterlimit="10"/>
<path d="M94.3721 -62.4295C139.942 -87.994 198.62 -98.368 252.397 -91.8843C296.497 -86.6973 336.922 -70.3953 366.69 -47.7021C373.427 -42.5151 379.675 -36.9576 385.31 -31.2149C414.097 -1.11174 426.592 36.0309 459.3 70.0242C481.84 93.551 512.465 112.354 543.212 126.248C560.24 133.936 577.267 140.234 593.437 144.865C638.395 157.647 677.595 160.334 717.897 163.205C754.77 165.891 794.705 168.207 842.357 176.636C847.135 177.469 851.912 178.395 856.812 179.322C910.712 189.881 972.452 210.351 1008.71 241.566C1037.01 266.019 1047.67 291.583 1056.12 315.573C1056.98 317.981 1057.83 320.297 1058.69 322.613C1069.84 354.013 1081.23 386.802 1090.17 423.111C1096.67 449.787 1103.4 483.039 1132.31 510.178C1167.1 542.875 1201.28 564.364 1248.81 575.849C1295.36 587.15 1353.43 584 1404.26 575.386C1438.07 569.643 1469.56 562.141 1500.92 556.213C1516.6 553.156 1532.28 550.563 1548.08 548.71C1611.29 541.115 1676.34 545.932 1730.97 563.252C1799.08 584.927 1846.61 626.793 1861.92 661.898" stroke="#4D7CBF" stroke-miterlimit="10"/>
<path d="M85.7979 -56.6867C132.593 -82.3438 192.863 -91.8842 247.62 -83.7332C292.455 -77.1568 332.88 -58.9097 361.545 -34.1788C368.038 -28.5287 374.04 -22.6007 379.308 -16.3022C406.38 16.1165 415.568 55.2969 448.03 90.4018C470.448 114.762 502.298 133.38 534.638 146.44C552.645 153.665 570.775 159.222 588.048 162.927C636.19 173.209 678.453 172.004 721.695 171.263C761.14 170.615 803.403 169.689 852.893 176.265C857.793 176.914 862.815 177.655 867.838 178.396C923.698 187.288 987.03 208.406 1021.82 241.936C1049.02 268.242 1056.37 296.215 1061.51 322.335C1062 324.928 1062.49 327.522 1063.1 330.023C1069.72 364.294 1076.58 399.677 1081.36 438.116C1084.79 466.274 1088.83 501.286 1118.6 528.703C1153.14 560.474 1190.38 578.35 1237.91 587.428C1284.09 596.32 1340.44 593.17 1390.42 585.853C1423.62 580.944 1454.98 574.831 1485.97 570.385C1501.53 568.162 1517.09 566.309 1532.65 565.29C1595 561.029 1658.21 569.088 1709.41 589.743C1773.24 615.493 1813.78 661.25 1819.3 697.188" stroke="#4D7CBF" stroke-miterlimit="10"/>
<path d="M77.2227 -50.9433C125.12 -76.693 187.228 -85.4924 242.843 -75.6742C288.29 -67.7084 328.838 -47.5162 356.523 -20.8402C362.893 -14.7269 368.528 -8.33579 373.428 -1.66679C398.663 33.0676 404.665 74.3783 436.883 110.502C459.178 135.603 492.13 154.221 526.308 166.448C545.173 173.209 564.528 178.118 582.78 180.897C633.985 188.678 679.433 183.676 725.493 179.322C767.388 175.34 812.1 171.171 863.428 175.895C868.573 176.358 873.718 176.914 878.985 177.563C936.683 184.787 1001.73 206.462 1035.05 242.493C1061.02 270.743 1065.19 301.032 1067.02 329.375C1067.15 332.154 1067.39 334.932 1067.51 337.711C1069.72 374.761 1071.92 412.737 1072.41 453.4C1072.78 483.132 1074.13 519.812 1104.75 547.507C1139.05 578.444 1179.36 592.523 1226.89 599.377C1272.82 605.953 1327.21 602.711 1376.34 596.691C1409.04 592.708 1440.04 587.984 1470.78 585.02C1486.22 583.538 1501.53 582.612 1516.84 582.334C1578.34 581.407 1639.59 592.8 1687.36 616.698C1747.02 646.43 1780.34 696.262 1776.3 732.942" stroke="#4D7CBF" stroke-miterlimit="10"/>
<path d="M68.6484 -45.2935C117.771 -71.1359 181.593 -79.1943 238.066 -67.6161C284.248 -58.261 324.796 -36.1236 351.378 -7.50252C357.503 -0.92614 362.771 5.92812 367.303 13.0602C390.823 50.1103 393.518 93.5514 425.491 130.787C447.663 156.722 481.841 175.247 517.733 186.547C537.578 192.845 558.036 197.013 577.391 198.866C631.781 204.146 680.413 195.346 729.168 187.288C773.636 179.971 820.798 172.56 873.841 175.432C879.108 175.71 884.498 176.08 889.888 176.543C949.546 182.008 1016.19 204.331 1048.04 242.77C1072.9 272.873 1073.88 305.57 1072.29 336.044C1072.17 339.1 1071.92 342.064 1071.8 345.028C1069.47 384.95 1067.15 425.519 1063.47 468.22C1060.78 499.434 1059.43 537.966 1090.91 565.846C1125.09 595.949 1168.33 606.323 1215.74 610.769C1261.31 615.03 1313.98 611.696 1362.25 606.972C1394.34 603.823 1425.09 600.488 1455.59 599.099C1470.91 598.358 1486.1 598.265 1501.16 598.913C1561.8 601.322 1621.21 616.049 1665.56 643.096C1720.93 676.904 1747.27 730.626 1733.55 768.139" stroke="#4D7CBF" stroke-miterlimit="10"/>
<path d="M60.0723 -39.5507C110.42 -65.4857 175.957 -72.7105 233.287 -59.4651C280.082 -48.7206 320.63 -24.6381 346.355 5.92816C352.235 12.875 357.257 20.1924 361.422 27.7877C383.105 67.0607 382.615 112.632 414.342 150.979C436.392 177.655 471.795 196.087 509.28 206.647C530.105 212.482 551.542 215.909 572.122 216.928C629.697 219.614 681.392 207.11 732.965 195.346C779.882 184.694 829.495 174.043 884.375 174.969C889.887 175.061 895.4 175.247 900.912 175.617C962.407 179.322 1030.64 202.386 1061.14 243.233C1084.91 275.189 1082.7 310.294 1077.56 342.991C1077.07 346.232 1076.58 349.382 1076.09 352.624C1069.1 395.324 1062.37 438.58 1054.53 483.41C1048.77 516.107 1044.6 556.491 1077.07 584.557C1111 613.826 1157.3 620.495 1204.71 622.533C1250.04 624.478 1300.75 621.051 1348.28 617.624C1379.76 615.308 1410.39 613.363 1440.52 613.548C1455.59 613.641 1470.66 614.289 1485.6 615.771C1545.38 621.514 1602.84 639.576 1643.87 669.864C1695.08 707.748 1714.19 765.453 1690.79 803.707" stroke="#4D7CBF" stroke-miterlimit="10"/>
<path d="M51.498 -33.8083C103.071 -59.8359 170.323 -66.3196 228.511 -51.407C276.041 -39.2731 316.588 -13.2455 341.333 19.3585C346.968 26.7685 351.746 34.549 355.543 42.5147C375.511 84.1034 371.713 131.805 403.196 171.171C425.123 198.681 461.628 217.02 500.951 226.746C522.633 232.118 545.296 234.804 566.978 234.897C627.616 235.082 682.618 218.873 736.886 203.404C786.376 189.418 838.316 175.524 895.033 174.598C900.668 174.505 906.426 174.505 912.183 174.691C975.638 176.728 1045.46 200.348 1074.5 243.604C1097.16 277.504 1091.65 314.832 1083.19 349.844C1082.34 353.272 1081.48 356.699 1080.74 360.126C1069.23 405.697 1058.08 451.547 1045.95 498.508C1037.26 532.779 1030.27 574.831 1063.59 603.174C1097.28 631.702 1146.77 634.574 1194.06 634.203C1239.01 633.833 1288.01 630.313 1334.56 628.183C1365.56 626.701 1395.81 626.145 1425.7 627.905C1440.65 628.738 1455.59 630.313 1470.29 632.536C1529.22 641.706 1584.83 663.01 1622.44 696.54C1669.36 738.406 1681.48 800.095 1648.41 839.182" stroke="#4D7CBF" stroke-miterlimit="10"/>
<path d="M43.0439 -28.0651C95.7189 -54.1853 164.686 -59.8354 223.854 -43.2556C271.996 -29.7323 312.666 -1.75959 336.309 32.7895C341.699 40.6627 346.231 48.9063 349.661 57.3352C367.791 101.239 360.809 150.979 392.046 191.549C413.974 219.799 451.581 238.139 492.619 246.939C515.281 251.848 539.046 253.885 561.709 253.052C625.409 250.736 683.597 230.729 740.804 211.556C792.867 194.235 847.256 177.007 905.811 174.321C911.691 174.043 917.571 173.95 923.451 173.95C988.744 174.228 1060.28 198.588 1087.85 244.16C1109.41 279.913 1100.59 319.649 1088.83 356.792C1087.72 360.404 1086.5 364.109 1085.27 367.722C1069.35 416.072 1053.55 464.607 1037.25 513.699C1025.49 549.452 1015.69 593.356 1049.99 621.792C1083.44 649.487 1135.99 648.746 1183.27 645.874C1227.99 643.188 1275.15 639.576 1320.84 638.742C1351.22 638.187 1381.36 638.928 1410.88 642.262C1425.7 643.929 1440.4 646.245 1454.98 649.394C1513.04 661.899 1566.7 686.537 1601 723.309C1643.75 769.251 1648.77 834.922 1606.02 874.751" stroke="#4D7CBF" stroke-miterlimit="10"/>
<path d="M34.4697 -22.3227C88.3697 -48.5355 159.052 -53.4447 219.077 -35.1975C279.102 -16.9504 326.755 24.1751 343.782 71.9696C360.197 118.189 349.785 170.059 381.022 211.648C414.832 256.756 489.802 275.745 556.565 270.928C623.327 266.112 684.7 242.214 744.725 219.521C804.75 196.735 867.47 174.32 934.6 172.931C1001.73 171.541 1074.98 196.458 1101.08 244.53C1123.49 285.933 1106.71 332.616 1089.81 375.131C1069.35 426.353 1049.01 477.482 1028.56 528.703C1013.73 566.031 1001.12 611.695 1036.4 640.317C1069.59 667.178 1125.21 662.732 1172.49 657.452C1246.48 649.209 1322.56 644.392 1396.06 656.526C1469.56 668.66 1540.97 699.967 1579.44 749.892C1617.9 799.817 1615.82 869.471 1563.39 910.133" stroke="#4D7CBF" stroke-miterlimit="10"/>
<path d="M77.7119 -38.6244C130.877 -57.3346 195.189 -54.9264 246.027 -33.53C296.987 -12.1336 333.369 28.1582 344.884 77.0642C355.787 123.377 344.639 176.08 374.407 219.151C406.747 265.556 480.614 287.601 548.479 283.896C613.894 280.376 673.797 257.035 733.087 236.101C795.317 214.057 860.732 193.309 929.944 191.734C996.462 190.252 1069.1 213.686 1096.05 260.647C1119.33 301.124 1103.89 347.714 1087.48 389.859C1067.76 440.247 1047.3 490.357 1027.45 540.745C1012.88 578.073 1001.24 623.644 1036.52 652.265C1069.84 679.312 1125.58 675.514 1173.11 670.42C1245.75 662.547 1320.35 657.36 1392.5 669.216C1464.9 681.072 1534.85 712.101 1572.7 761.285C1610.55 810.469 1608.84 878.734 1558.37 919.303" stroke="#4D7CBF" stroke-miterlimit="10"/>
<path d="M120.832 -54.9266C173.385 -66.2268 231.082 -56.4086 272.855 -31.863C314.75 -7.31734 339.985 32.0483 345.987 82.0658C351.622 128.471 339.372 182.008 367.915 226.561C398.54 274.263 471.672 299.271 540.394 296.771C604.217 294.455 662.894 271.854 721.449 252.681C786.007 231.377 853.994 212.297 925.412 210.629C991.317 209.147 1063.35 231.007 1091.15 276.949C1115.29 316.592 1101.2 362.905 1085.27 404.864C1066.29 454.418 1045.71 503.602 1026.47 553.064C1012.14 590.392 1001.61 635.871 1036.76 664.492C1070.21 691.724 1126.19 688.574 1173.96 683.573C1245.26 675.977 1318.27 670.605 1389.07 682.091C1460.25 693.669 1528.97 724.513 1566.09 772.956C1603.2 821.399 1601.86 888.274 1553.35 928.751" stroke="#4D7CBF" stroke-miterlimit="10"/>
<path d="M164.074 -71.2286C215.892 -75.0263 266.974 -57.9832 299.804 -30.2884C332.512 -2.68613 346.722 35.8459 347.089 87.0675C347.457 133.38 334.104 187.936 361.422 233.878C390.454 282.877 462.607 310.849 532.309 309.553C594.662 308.441 652.114 286.674 709.812 269.076C776.697 248.605 847.257 231.099 920.757 229.247C985.927 227.765 1057.47 248.05 1086.25 292.88C1111.24 331.69 1098.63 377.817 1083.07 419.406C1064.69 468.127 1044.11 516.292 1025.62 564.92C1011.65 602.34 1001.97 647.634 1037.13 676.255C1070.7 703.672 1126.8 701.171 1174.94 696.355C1244.89 689.223 1316.43 683.387 1385.77 694.595C1455.84 705.895 1523.21 736.461 1559.47 784.163C1595.85 831.865 1594.87 897.258 1548.32 937.735" stroke="#4D7CBF" stroke-miterlimit="10"/>
<path d="M207.316 -87.531C258.399 -83.826 302.989 -59.6509 326.754 -28.6215C350.274 1.94474 353.581 39.5505 348.191 92.0688C343.414 138.289 328.836 193.864 354.806 241.288C382.369 291.49 453.541 324.928 524.101 322.427C584.739 320.204 641.334 301.679 698.051 285.562C767.386 265.926 840.396 249.994 915.979 248.049C980.536 246.475 1051.46 265.278 1081.11 308.997C1106.96 346.88 1095.69 392.822 1080.62 434.133C1062.98 482.02 1042.03 529.166 1024.39 577.053C1010.55 614.474 1002.1 659.582 1037.01 688.296C1070.7 715.898 1127.05 714.046 1175.31 709.322C1243.79 702.56 1313.86 696.447 1381.85 707.377C1450.69 718.399 1516.72 748.78 1552.37 795.741C1588.01 842.702 1587.4 906.706 1542.93 947.09" stroke="#4D7CBF" stroke-miterlimit="10"/>
<path d="M250.561 -103.833C300.908 -92.6249 338.883 -61.4103 353.706 -27.0464C368.038 6.39124 360.688 43.1634 349.418 97.0711C339.741 143.198 323.816 199.792 348.438 248.698C374.408 300.198 444.601 336.97 516.141 335.303C575.308 333.913 630.678 316.685 686.416 302.143C758.201 283.433 833.661 268.983 911.448 266.945C975.393 265.371 1045.71 282.599 1076.21 325.299C1102.79 362.349 1092.99 408.106 1078.42 449.139C1061.39 496.192 1040.44 542.412 1023.41 589.373C1009.82 626.794 1002.34 671.809 1037.26 700.43C1071.07 728.218 1127.54 727.014 1176.17 722.383C1243.3 715.991 1311.9 709.508 1378.42 720.16C1446.16 730.904 1510.84 761.1 1545.75 807.227C1580.67 853.354 1580.54 915.969 1537.91 956.261" stroke="#4D7CBF" stroke-miterlimit="10"/>
<path d="M293.68 -120.135C343.415 -101.517 374.897 -63.1701 380.532 -25.3792C385.922 10.9298 367.792 46.8683 350.397 102.073C335.942 148.015 318.425 205.72 341.822 256.108C366.2 308.904 435.412 345.584 508.055 348.177C565.63 350.215 620.142 331.783 674.777 318.63C749.135 300.846 827.045 287.879 906.792 285.656C970.002 284.081 1039.7 299.735 1071.19 341.323C1098.63 377.447 1090.3 423.018 1076.09 463.773C1059.92 509.993 1038.72 555.194 1022.31 601.322C1008.96 638.742 1002.59 683.665 1037.38 712.286C1071.31 740.259 1127.9 739.703 1176.9 735.257C1242.69 729.237 1309.69 722.475 1374.86 732.756C1441.38 743.223 1504.84 773.141 1539.01 818.527C1573.19 863.913 1573.44 925.139 1532.77 965.338" stroke="#4D7CBF" stroke-miterlimit="10"/>
<path d="M336.922 -136.437C385.922 -110.316 411.157 -64.93 407.482 -23.8045C403.93 15.2832 375.142 50.5733 351.622 106.982C332.512 152.831 313.402 211.556 335.33 263.426C358.237 317.426 426.347 356.977 499.97 360.96C555.952 363.924 609.485 346.788 663.14 335.117C740.07 318.352 820.307 306.681 902.137 304.458C964.735 302.791 1033.82 316.87 1066.29 357.44C1094.58 392.73 1087.6 438.116 1073.88 478.501C1058.45 523.887 1037.13 568.069 1021.33 613.455C1008.34 650.876 1002.83 695.614 1037.62 724.328C1071.8 752.486 1128.39 752.578 1177.64 748.225C1241.95 742.575 1307.61 735.535 1371.43 745.446C1436.85 755.635 1498.83 785.367 1532.4 830.013C1565.96 874.658 1566.45 934.401 1527.87 974.6" stroke="#4D7CBF" stroke-miterlimit="10"/>
<path d="M380.165 -152.738C428.43 -119.115 447.417 -66.6896 434.432 -22.137C422.06 19.8221 382.615 54.2786 352.725 112.077C329.083 157.833 308.135 217.484 328.838 270.929C350.153 326.133 417.283 368.37 491.885 373.835C546.275 377.725 598.95 362.072 651.502 351.605C731.005 335.859 813.57 325.577 897.482 323.169C959.345 321.502 1027.94 334.006 1061.26 373.557C1090.42 407.921 1084.91 453.122 1071.56 493.321C1056.73 537.874 1035.42 581.13 1020.23 625.59C1007.49 663.103 1003.08 707.655 1037.74 736.369C1072.04 764.712 1128.88 765.453 1178.37 761.285C1241.34 755.913 1305.41 748.596 1367.88 758.321C1432.07 768.232 1492.83 797.78 1525.66 841.591C1558.49 885.495 1559.35 943.849 1522.72 983.956" stroke="#4D7CBF" stroke-miterlimit="10"/>
<path d="M423.408 -169.041C471.06 -128.008 483.8 -68.45 461.383 -20.5629C440.313 24.3602 390.21 58.0757 353.828 116.985C325.653 162.742 302.99 223.319 322.345 278.153C342.19 334.654 408.218 379.67 483.8 386.617C536.598 391.433 588.293 377.169 639.865 368.092C722.063 353.549 806.833 344.472 892.95 341.971C954.2 340.304 1022.19 351.234 1056.37 389.673C1086.38 423.203 1082.21 468.219 1069.35 508.048C1055.26 551.767 1033.83 594.004 1019.37 637.63C1006.88 675.143 1003.45 719.603 1038.11 748.317C1072.54 776.846 1129.5 778.235 1179.36 774.16C1240.97 769.158 1303.57 761.563 1364.58 770.918C1427.66 780.551 1486.95 809.82 1519.17 852.983C1551.39 896.147 1552.61 953.018 1517.82 993.125" stroke="#4D7CBF" stroke-miterlimit="10"/>
<path d="M466.65 -185.342C513.568 -136.807 520.183 -70.0242 488.333 -18.8952C458.443 28.992 397.928 61.9665 355.053 122.08C322.468 167.837 297.968 229.34 315.853 285.656C334.228 343.454 399.153 391.156 475.715 399.585C527.043 405.235 577.758 392.638 628.228 384.672C712.998 371.334 800.095 363.461 888.295 360.775C948.933 359.015 1016.31 368.463 1051.47 405.883C1082.34 438.487 1079.52 483.318 1067.15 522.868C1053.79 565.754 1032.23 606.972 1018.39 649.857C1006.26 687.37 1003.81 731.738 1038.36 760.359C1072.9 789.073 1129.99 791.11 1180.09 787.22C1240.24 782.496 1301.37 774.623 1361.02 783.7C1422.89 793.056 1480.95 822.14 1512.43 864.469C1543.92 906.799 1545.51 962.374 1512.8 1002.3" stroke="#4D7CBF" stroke-miterlimit="10"/>
<path d="M509.77 -201.644C555.952 -145.606 556.442 -71.6914 515.16 -17.3205C476.572 33.5306 405.522 65.8567 356.032 126.989C319.037 172.746 292.7 235.175 309.237 292.973C326.142 351.975 390.087 402.271 467.63 412.274C517.365 418.758 567.222 407.828 616.59 401.067C704.055 389.118 793.357 382.264 883.64 379.485C943.542 377.725 1010.43 385.598 1046.44 421.907C1078.17 453.678 1076.7 498.323 1064.82 537.596C1052.08 579.648 1030.52 619.94 1017.29 661.899C1005.4 699.504 1003.93 743.594 1038.48 772.308C1073.15 801.207 1130.48 803.8 1180.82 800.095C1239.62 795.742 1299.28 787.591 1357.47 796.39C1418.23 805.56 1474.95 834.366 1505.69 875.955C1536.44 917.544 1538.4 971.637 1507.65 1011.56" stroke="#4D7CBF" stroke-miterlimit="10"/>
<path d="M553.013 -217.947C598.46 -154.406 592.825 -73.2663 541.988 -15.6535C494.58 38.1616 413.24 69.8393 357.013 132.083C315.608 178.025 287.432 241.103 302.622 300.476C318.057 360.774 380.9 413.571 459.423 425.241C507.565 432.466 556.565 423.296 604.83 417.646C694.99 407.18 786.62 401.252 878.862 398.288C938.152 396.528 1004.43 402.826 1041.3 438.024C1073.88 468.96 1073.76 513.328 1062.37 552.323C1050.36 593.541 1028.68 632.814 1016.06 673.94C1004.55 711.545 1004.06 755.542 1038.48 784.256C1073.27 813.34 1130.72 816.582 1181.44 812.97C1238.89 808.894 1296.96 800.465 1353.8 808.987C1413.45 817.879 1468.7 846.407 1498.71 887.255C1528.72 928.103 1531.05 980.806 1502.26 1020.64" stroke="#4D7CBF" stroke-miterlimit="10"/>
<path d="M596.254 -234.249C641.089 -163.298 629.084 -74.8409 568.937 -13.9863C512.709 42.8855 421.079 73.9149 358.237 137.085C312.422 183.12 282.409 247.031 296.129 307.886C310.094 369.389 371.957 424.686 451.337 438.116C498.009 446.082 546.029 438.765 593.192 434.226C686.047 425.334 779.882 420.24 874.329 417.183C932.884 415.331 998.544 420.147 1036.52 454.326C1069.96 484.336 1071.19 528.518 1060.28 567.236C1048.77 607.62 1027.21 645.967 1015.2 686.166C1003.93 723.772 1004.42 767.676 1038.72 796.39C1073.64 825.659 1131.21 829.55 1182.17 826.123C1238.15 822.325 1294.87 813.711 1350.36 821.862C1408.8 830.476 1462.82 858.819 1492.1 898.833C1521.37 938.847 1524.19 990.161 1497.36 1029.99" stroke="#4D7CBF" stroke-miterlimit="10"/>
<path d="M639.497 -250.551C683.597 -172.098 665.467 -76.5086 595.887 -12.4121C530.962 47.5162 428.919 77.8972 359.339 141.994C309.237 188.214 277.387 252.866 289.637 315.11C302.254 377.817 363.014 435.522 443.252 450.805C488.454 459.42 535.494 454.047 581.432 450.528C676.859 443.303 773.022 438.949 869.552 435.708C927.494 433.855 992.542 437.097 1031.37 470.164C1065.67 499.341 1068.25 543.338 1057.83 581.777C1047.05 621.328 1025.62 658.656 1013.98 698.114C1003.2 735.813 1004.55 779.532 1038.72 808.245C1073.88 837.7 1131.46 842.053 1182.78 838.904C1237.42 835.384 1292.54 826.585 1346.69 834.366C1404.02 842.702 1456.69 870.86 1485.24 910.133C1513.9 949.406 1516.96 999.331 1492.1 1039.07" stroke="#4D7CBF" stroke-miterlimit="10"/>
<path d="M682.74 -266.853C726.105 -180.897 701.85 -77.9902 622.837 -10.7444C549.092 52.2406 436.76 82.1585 360.565 147.089C306.052 193.586 272.242 258.887 283.267 322.613C294.292 386.617 354.317 446.545 435.29 463.773C479.022 473.036 524.96 469.609 569.917 467.201C668.04 461.828 766.407 457.938 865.02 454.696C922.35 452.844 986.785 454.511 1026.47 486.467C1061.63 514.717 1065.55 558.529 1055.63 596.69C1045.46 635.408 1023.9 671.809 1013.12 710.341C1002.59 748.04 1004.91 791.573 1039.09 820.38C1074.37 850.02 1132.19 855.022 1183.76 852.058C1237.05 848.816 1290.71 839.738 1343.38 847.334C1399.49 855.392 1450.81 883.272 1478.74 921.804C1506.67 960.336 1510.1 1008.78 1487.2 1048.42" stroke="#4D7CBF" stroke-miterlimit="10"/>
<path d="M725.86 -283.154C768.49 -189.788 737.988 -79.5645 649.665 -9.16955C567.1 56.7795 444.478 86.2342 361.545 151.998C302.623 198.681 266.975 264.63 276.53 329.931C286.085 395.231 345.253 457.29 427.083 476.556C469.345 486.467 514.303 485.077 558.158 483.595C658.853 480.168 759.548 476.741 860.243 473.407C916.838 471.462 980.783 471.647 1021.33 502.584C1057.22 530.001 1062.61 573.627 1053.18 611.418C1043.75 649.302 1022.07 684.684 1011.9 722.383C1001.73 760.081 1004.92 803.522 1039.09 832.236C1074.5 862.061 1132.44 867.711 1184.26 864.84C1236.07 861.969 1288.26 852.614 1339.59 859.838C1394.59 867.619 1444.57 895.314 1471.76 933.105C1498.96 970.896 1502.76 1017.95 1481.93 1057.5" stroke="#4D7CBF" stroke-miterlimit="10"/>
</g>
</g>
<defs>
<clipPath id="clip0_188_72">
<rect width="1699" height="741" fill="white"/>
</clipPath>
</defs>
</svg>
